<svg id="Layer_1" xmlns="http://www.w3.org/2000/svg" viewBox="0 0 261.5 165.43"><defs><style>.cls-1{fill:#fff;}</style></defs><polygon class="cls-1" points="45.02 148.91 46.16 148.91 45.6 147.41 45.02 148.91"></polygon><polygon class="cls-1" points="155.97 159.52 155.16 159.39 155.58 160.43 155.73 160.78 156.42 161 156.61 161.25 160.42 161.29 157.56 160.15 155.97 159.52"></polygon><polygon class="cls-1" points="106.21 162.06 106.76 165.43 111.47 158.56 107.82 161.1 106.21 162.06"></polygon><path class="cls-1" d="M196.84,188.29a3.41,3.41,0,0,0-1.12-.76,3.37,3.37,0,0,0-1.38-.28h-1.43v7.15h1.42a3.45,3.45,0,0,0,1.39-.28,3.52,3.52,0,0,0,1.12-.76,3.84,3.84,0,0,0,.75-1.13,3.6,3.6,0,0,0,.27-1.4,3.67,3.67,0,0,0-.27-1.4A3.59,3.59,0,0,0,196.84,188.29Z" transform="translate(-18.84 -42.36)"></path><path class="cls-1" d="M132.23,189.3a1.51,1.51,0,1,0,1.5,1.5A1.5,1.5,0,0,0,132.23,189.3Z" transform="translate(-18.84 -42.36)"></path><polygon class="cls-1" points="71.34 149.81 74.37 149.81 72.89 145.77 71.34 149.81"></polygon><polygon class="cls-1" points="71.86 136.56 71.16 136.93 78.21 138.37 78.2 137.76 81.68 138.42 82.11 137.36 78.2 136.48 78.2 135.93 74.71 135.08 73.34 135.8 68.46 135.52 68.98 136.02 71.86 136.56"></polygon><polygon class="cls-1" points="147.27 133.21 143.5 133.82 143.95 133.17 140.37 134.08 139.76 135.55 147.15 134.34 147.27 133.21"></polygon><path class="cls-1" d="M222.89,189.31a1.51,1.51,0,1,0,1.5,1.5A1.5,1.5,0,0,0,222.89,189.31Z" transform="translate(-18.84 -42.36)"></path><path class="cls-1" d="M240.25,196.32l-2.65-10.68-8.77-.7,2.21-2.81L217.76,182l3.24-4.77-25.17,4.57,6.16-5.6-9.08.94-5.25,3,.52-2.48-4.24.44,1-3.09-7.2,4-5.32.84-2.88-1.76L165,180.11l.27-1.26-12.73.74,1.7-2-12.21,1.8-.72,1.32-3.61.58-10.48-3.65-1.92,1.92-.6-.86L115.1,176l5.83,5.76-4.67.37-10.89-2.38L104.2,183l-14-.76-16.11-3.55-2.72,3.26-13.22-1.52L60,185l-5,.54.46.82-2,.33,4.73,12,7.28-.73,1.76,3,13.62-.5-9.87,3,7.38,1.5,15.14-3.61.56,1.43,15.07-3.27-3.49,3.75,3.72-.15-4.93,4.57,8.34-.16,4-2.72,2,.28,4.14-2.71,9.52-3.66-1,4.27,10.86,0,4.47-1.56,9.22,3-.78-2.21,1.68.34,6,1.5-2.17-2.47,10.72,1.32-1.07-2.41,3.88.06L200,206.69l-2.91-3.27,5.31,1.57-.29-1.51-1.92-.63.18-.95-3.52-1.17,14.24.19,2.13-3.16,22.92,2.41L234.27,196Zm-174.4-2.81-.4-1.06h-2l-.4,1.06H61.76l1.9-4.72-.34-.69H65l2.16,5.41Zm10.47,3.3H69.05l.6-1.24V186l-.6-1.24h3.17v9.66H77ZM85,187.14H80.44v2.43h4.11l-.63,2.26H80.44v2.63H85v2.35H77.86v-12H85Zm10,9.67-.92-2.34H89.3l-.9,2.34H85.77L90,186.33l-.77-1.53h3.66l4.79,12Zm13.93-5a6.45,6.45,0,0,1-.42,1.65,5.92,5.92,0,0,1-1.24,1.88,5.85,5.85,0,0,1-1.89,1.24A6.1,6.1,0,0,1,103,197a6.2,6.2,0,0,1-2.45-.5,6.06,6.06,0,0,1-2-1.35,6.24,6.24,0,0,1-1.32-2,6.14,6.14,0,0,1,0-4.83,6.63,6.63,0,0,1,1.35-2,6.29,6.29,0,0,1,2-1.33,6,6,0,0,1,2.43-.47,6.26,6.26,0,0,1,3.24.84,5.4,5.4,0,0,1,2.16,2.28l-2.34,1.12a3.16,3.16,0,0,0-1.24-1.34,3.63,3.63,0,0,0-1.85-.47,3.52,3.52,0,0,0-2.59,1.08,4,4,0,0,0-.79,1.2,4.11,4.11,0,0,0-.29,1.48,3.9,3.9,0,0,0,1.05,2.7,3.82,3.82,0,0,0,1.16.82,3.51,3.51,0,0,0,1.44.3,3.26,3.26,0,0,0,2.06-.63,2.84,2.84,0,0,0,1.1-1.67H102l1.06-2.17h5.91A14.41,14.41,0,0,1,108.92,191.81Zm10.55.22a6.1,6.1,0,0,1-.33,2.06,4.48,4.48,0,0,1-1,1.58,4.16,4.16,0,0,1-1.51,1,6,6,0,0,1-4.05,0,4.24,4.24,0,0,1-1.51-1,4.63,4.63,0,0,1-1-1.58,6.1,6.1,0,0,1-.33-2.06V184.8h2.6v7.09a3,3,0,0,0,.57,1.93,2,2,0,0,0,1.65.7,2,2,0,0,0,1.64-.7,3,3,0,0,0,.57-1.93V184.8h2.6Zm8.21-4.89h-4.5v2.43h4.11l-.63,2.26h-3.48v2.63h4.5v2.35H120.6v-12h7.08Zm4.55,6.47a2.81,2.81,0,1,1,2.8-2.81A2.81,2.81,0,0,1,132.23,193.61Zm6.55-4.28h-1.95v1.16h1.71l-.33,1.19h-1.38v1.83h-1.32V188.1h3.27Zm9.28,7.48h-7.27l.6-1.24V186l-.6-1.24H144v9.66h4.76Zm8.62-9.67h-4.51v2.43h4.12l-.63,2.26h-3.49v2.63h4.51v2.35H149.6v-12h7.08Zm12.6,4.67a6.45,6.45,0,0,1-.42,1.65,5.78,5.78,0,0,1-1.25,1.88,5.7,5.7,0,0,1-1.88,1.24,6.1,6.1,0,0,1-2.37.44,6.16,6.16,0,0,1-4.43-1.85,6.39,6.39,0,0,1-1.31-2,6,6,0,0,1-.48-2.42,5.79,5.79,0,0,1,.51-2.41,6.45,6.45,0,0,1,1.35-2,6.36,6.36,0,0,1,2-1.33,6.1,6.1,0,0,1,2.44-.47,6.26,6.26,0,0,1,3.24.84,5.31,5.31,0,0,1,2.15,2.28l-2.33,1.12a3.16,3.16,0,0,0-1.24-1.34,3.63,3.63,0,0,0-1.85-.47,3.58,3.58,0,0,0-1.43.28,3.76,3.76,0,0,0-1.16.8,3.58,3.58,0,0,0-.79,1.21,4,4,0,0,0-.29,1.47,3.91,3.91,0,0,0,.28,1.49,3.73,3.73,0,0,0,.77,1.21,3.82,3.82,0,0,0,1.16.82,3.64,3.64,0,0,0,1.44.31,3.35,3.35,0,0,0,2.06-.64,2.84,2.84,0,0,0,1.1-1.67h-4.22l1-2.17h5.92A14.41,14.41,0,0,1,169.28,191.81Zm8-4.67h-4.5v2.43h4.11l-.63,2.26h-3.48v2.63h4.5v2.35H170.2v-12h7.08Zm11.94,9.67h-2.6L181,189v7.8h-2.49V185.92L178,184.8h3.22l5.56,7.91V184.8h2.49Zm10.8-3.62a5.9,5.9,0,0,1-1.32,1.9,6.19,6.19,0,0,1-4.3,1.72h-4.06v-12h4.07a7.3,7.3,0,0,1,2.36.5,6.25,6.25,0,0,1,1.94,1.26,6,6,0,0,1,1.31,1.9,5.87,5.87,0,0,1,.48,2.37A6,6,0,0,1,200,193.19Zm8.56,2.68a5,5,0,0,1-7.84-1.86l2.14-1.2a2.53,2.53,0,0,0,2.5,1.89c1.06,0,1.72-.48,1.72-1.26,0-.61-.48-1.06-1.28-1.22l-1.62-.33A3.55,3.55,0,0,1,201,188.4a4,4,0,0,1,4.21-3.8c2.88,0,3.87,1.7,4.2,2.68l-2.24,1.1a1.89,1.89,0,0,0-1.94-1.45c-.82,0-1.66.49-1.66,1.31,0,.6.4,1,1.13,1.15l1.62.31c2.08.41,3.38,1.78,3.38,3.59A3.6,3.6,0,0,1,208.58,195.87Zm6.66-2.79a2.31,2.31,0,0,1-3.59-.83l.94-.53.12-.07a1.21,1.21,0,0,0,.18.35,1,1,0,0,0,.59.39,1.08,1.08,0,0,0,.72,0,.54.54,0,0,0,.18-.15.35.35,0,0,0,0-.43h0a.5.5,0,0,0-.19-.15l-.19-.08h0l-.09,0-.39-.1a3.59,3.59,0,0,1-.69-.2.2.2,0,0,1-.08,0,.39.39,0,0,1-.11-.06h0a2,2,0,0,1-.52-.57h0a1.49,1.49,0,0,1-.24-.82,2,2,0,0,1,3.79-.5l-1,.49-.11.05a.76.76,0,0,0-.12-.27.94.94,0,0,0-.59-.31.66.66,0,0,0-.54.15.43.43,0,0,0,0,.58c.14.19.44.23.86.33a3.24,3.24,0,0,1,.73.25h0a1.56,1.56,0,0,1,1,1.43A1.62,1.62,0,0,1,215.24,193.08Zm3.55-3.75v4.18h-1.33v-4.18H216V188.1h4.33l-.34,1.23Zm4.1,4.29a2.81,2.81,0,1,1,2.81-2.81A2.81,2.81,0,0,1,222.89,193.62Zm6.45-.11-1.17-2h-.6v2h-1.32V188.6l-.26-.5h2.71a2,2,0,0,1,.67.15,1.74,1.74,0,0,1,.56.36,1.58,1.58,0,0,1,.37.54,1.7,1.7,0,0,1,0,1.35,1.73,1.73,0,0,1-.37.54,1.63,1.63,0,0,1-.44.3l1.26,2.17Zm4.3,0h-1.33v-2.1l-1.93-3.31h1.4l1.2,2,1.19-2h1.41l-1.94,3.31Z" transform="translate(-18.84 -42.36)"></path><polygon class="cls-1" points="77.39 162.84 79.27 163.13 81.8 162.13 83.16 162.3 82.83 161.67 84.17 161 85.29 159.57 80.73 160.94 77.39 162.84"></polygon><path class="cls-1" d="M228.61,189.29h-1v1.05h1a.52.52,0,0,0,.52-.53A.52.52,0,0,0,228.61,189.29Z" transform="translate(-18.84 -42.36)"></path><path class="cls-1" d="M208,93.84c-.11.35-.24.71-.37,1a3,3,0,0,0,1.27.13l.15,0a1.75,1.75,0,0,0,1.34-1c.11-.25.33-.85.44-1.17a10.09,10.09,0,0,0,3,0l.2-.06.07,0,.12,0,.08,0,.1,0,.09,0,.09-.05.08-.06.09-.05.09-.07.08-.06.08-.07.08-.07a.6.6,0,0,0,.08-.08l.07-.07.09-.09.07-.08.08-.1a.27.27,0,0,1,.07-.08.83.83,0,0,1,.08-.12l.06-.08.09-.13.06-.09.09-.14a.41.41,0,0,1,0-.09l.09-.15.05-.09.09-.18a.3.3,0,0,0,0-.08l.11-.21.14-.28c1.18-2.56,1.7-4.39,1.55-5.47a4.54,4.54,0,0,0-1.92-2.84c-.2-.16-.42-.32-.65-.47l-.09-.06-.2-.13-.2-.13-.2-.12-.29-.16-.12-.07-.41-.23-.36-.17-.36-.17a10,10,0,0,0-4.2-.64,5.35,5.35,0,0,0-1.05.11l-1.69.31a6.57,6.57,0,0,0-2.13.78,3.25,3.25,0,0,0-.7.49,29.71,29.71,0,0,0-2.29,2.83l-.08.1a17.8,17.8,0,0,0-1.5,4.32,1.36,1.36,0,0,0,.28,1.11,7.25,7.25,0,0,0,1.65,1.61,7,7,0,0,0,.75.32l-.6,1.44v0c0,.09-.2.85,1.36,1.26.11-.29.24-.61.4-1s.35-.73.52-1a.26.26,0,0,1,.15-.14.31.31,0,0,1,.21,0,.21.21,0,0,1,.11.31c-.15.31-.31.65-.46,1s-.3.75-.4,1.06a6.59,6.59,0,0,0,1.61.57,4.79,4.79,0,0,0,1.87,0c.15-.35.3-.71.43-1.07s.23-.69.31-1a.32.32,0,0,1,.32-.22.21.21,0,0,1,.17.08.23.23,0,0,1,0,.18C208.24,93.12,208.14,93.46,208,93.84Zm3-10.63a4.8,4.8,0,0,1,.92-1,1.62,1.62,0,0,1,1.43-.34c2.65.75,2.95,1.78,3,2.26a7.72,7.72,0,0,1-.44,3.58c-.61,1.86-1.93,3.06-2.66,3.14a8.06,8.06,0,0,1-2.47-.66.7.7,0,0,1-.43-.5c-.14-.7-.46-2.26-.56-2.87C209.66,86.06,210.62,83.82,211,83.21Zm-5.74,5.4a1.07,1.07,0,0,1-.74.24,8,8,0,0,1-2.56-.44c-.54-.36-.73-1.89.18-3.68a10,10,0,0,1,2.36-3.16c.43-.37,1.46-1.11,4.24-.67a1.07,1.07,0,0,1,.93.86,3.06,3.06,0,0,1,0,1.16,10,10,0,0,1-1.79,3.52C207.35,86.91,205.9,88.08,205.24,88.61ZM208,90l-.14,0a2.9,2.9,0,0,1-1.09-.19.35.35,0,0,1-.21-.18l-.05-.1a.43.43,0,0,1,.11-.46l1.22-1.29a.57.57,0,0,1,.42-.17.36.36,0,0,1,.36.32,9.6,9.6,0,0,1,0,1.45A.69.69,0,0,1,208,90Z" transform="translate(-18.84 -42.36)"></path><path class="cls-1" d="M175.31,85.18a80.09,80.09,0,0,1,3.94-10.48l-21,2.61-8.8,31.27,1.13-.4a29.5,29.5,0,0,1,29,4.09C184,105.76,192.41,100,192.41,100a19.11,19.11,0,0,1-1.58-9.67c.35-4.49,2.38-10.88,10-15.93l-1-2.4a5.82,5.82,0,0,1,1.56-1.35h0a8.06,8.06,0,0,1,1-.55h0a4.23,4.23,0,0,1,1.67-.42l1.23,2.19,0,0c11.56-4.42,16.44,2.05,16.65,2.33l10.28-8a24.44,24.44,0,0,0-15.55-8.64,29.82,29.82,0,0,0-4.24-.36,27.86,27.86,0,0,0-6,.68l-1.64-2.44s-4.79-.1-7.93,1.19a12.53,12.53,0,0,0-1.36-2.21,8.74,8.74,0,0,0-.82-.89l5.85-1.34-5.76-2.08,1.86-5L190.56,48l-4.25-5.67v6.58l-6.05.79L184.8,53l-3,5.27,5.7-2.71,1.66,5.27,2.29-5.13a5.18,5.18,0,0,1,1.22,1.08,9.14,9.14,0,0,1,.92,1.52,14.19,14.19,0,0,0-4.88,5.13l-.2.41.92,3c-1.11.95-1.88,1.72-2.28,2.12a35,35,0,0,0-9.28,24,33.26,33.26,0,0,0,.82,6.89l-16.51,2,1.1-3.87,9.56-1.28L175,89.23l-9.24,1.28,1.46-4.24Z" transform="translate(-18.84 -42.36)"></path><path class="cls-1" d="M171.81,122.35l6.83-.46c-4.7-9.61-17.24-10.27-17.24-10.27l-.3,1.08-6.47,22.75h-6l6.55-22.92a32.48,32.48,0,0,0-4.3,1.5c-6.64,2.5-10.51,6.94-13.9,12.34,0,0-1.72,2.71-3.79,6.31a56.71,56.71,0,0,0-8.59-5.51l-5.65,9.68-9.25-12.49-.64,0a32,32,0,0,0-9.67,1.89h0l-1.06.4h0c-12,4.54-20.94,14.47-26.47,25.87a76.19,76.19,0,0,0-5.89,17.09l8,.12,4.32-8H90.4l.2,5.62h10.45l-2.16,3.79h13.74L133,136.63l-9.46,32.47H138.7l6.83-23h6.08L147,162.33H160.3l11.49-40ZM82.28,154.72l6.78-12.21.82,12ZM104,162.29l-3.76-32.73,12,18.23Z" transform="translate(-18.84 -42.36)"></path><path class="cls-1" d="M253.15,110.69l-16.26,23.45-5.33-23.74-9.8.58a36.08,36.08,0,0,0,5.45-4.08l12.22-.88,4.86-18.52,9.45-1L249,104.19l25.21-1.89L278,86.6l-7.19.73,9.59-35.86L263,53l-5.59,20-9.55,1,4.28-15.6-14.65,1.36L227.42,97.38l-7.81-4a25.51,25.51,0,0,1-9.69,9.29c-4.69,2.41-8.65,2.66-11.93,1,0,0-11.92,7.81-16.18,17.15-.15.34-.34.85-.34.85l28.31-1.88-13.68,47.4h18.15l7.92-27.76,8.65,20.86,22.67-26.55-8.87,30.95H270l3.77-16h-6.53l11.12-39.88Z" transform="translate(-18.84 -42.36)"></path><polygon class="cls-1" points="162.21 107.27 174.5 106.2 177.38 96.32 164.88 97.41 166.21 93.28 180.1 92.07 182.57 82.99 158 85.13 147.95 120.91 173.31 120.91 176.27 110.67 160.83 112.01 162.21 107.27"></polygon><path class="cls-1" d="M85.15,128.26l.3-.23,1.87-5.3-21.42,1.7L48.66,144.81l-5.35-17.38L27.69,129l-3.76,11.25,5.71-.2L18.84,173.3H30.43l8.09-25.09,3.85,18.19,16.77-18.79L52.21,169h9.31a78.94,78.94,0,0,1,7.61-21.47C74.19,137.67,80.06,131.93,85.15,128.26Z" transform="translate(-18.84 -42.36)"></path><path class="cls-1" d="M76.31,117.76l19.08-1.68-2.47,7.47,1.3-.7a28.54,28.54,0,0,1,7.1-2.64A37.88,37.88,0,0,1,111.94,119l5.49-7.61,4.8,9.28a38.82,38.82,0,0,1,8.37,3.72,39.08,39.08,0,0,1,12.59-12.73l.88-3L131.58,110,126.06,99.4l12.7-16.1-5,21.44,11.78-1.18,8.52-30.36,11.85-1.38,3.39-10-37,4.45-3.4,10,11.81-1.44-1,4.48-11.85,1.31L121,89.75l-5.41-10.39-14.38,1.26,2.15,4.09L86.13,86.28ZM91,104.09l9-.55,1.64-5.61-9.14.5,1.44-4.72L104.74,93l.73-4.36,6.62,12.6-7.49,11.07-2.59.25,1.34-4.52-13.79.84Z" transform="translate(-18.84 -42.36)"></path><polygon class="cls-1" points="29.71 78.5 33.8 65.17 43.92 64.24 40.47 75.36 52.51 74.14 63.62 37.94 51.8 38.88 47.24 53.57 37.08 54.5 41.05 41.55 23.93 43.44 20.7 52.87 27.08 52.17 18.62 79.38 29.71 78.5"></polygon><path class="cls-1" d="M239.93,183.4h3.25v.65h-1.27v3.35h-.71v-3.35h-1.27Zm7.18,0-1.22,1.89-1.22-1.89h-.75v4h.7v-2.86l1.25,1.88h0l1.26-1.89v2.87h.71v-4Z" transform="translate(-18.84 -42.36)"></path></svg>