<svg width="656" height="657" viewBox="0 0 656 657" fill="none" xmlns="http://www.w3.org/2000/svg">
<path d="M188.243 179.054H233.769L246.364 133.528L158.395 81.6382L188.243 179.054Z" fill="#CCCCCC" fill-opacity="0.2"></path>
<path d="M467.801 179.054L497.649 81.6382L409.68 133.528L422.275 179.054H467.801Z" fill="#CCCCCC" fill-opacity="0.2"></path>
<path d="M467.726 232.456C458.345 232.456 387.628 207.332 387.628 207.332L327.932 278.048L268.236 207.332C268.236 207.332 199.094 232.456 188.138 232.456C137.823 232.456 156.716 185.356 156.716 185.356C156.716 185.356 27.8774 317.277 13.7734 420.991C13.7734 420.991 51.4279 362.869 173.969 334.596C192.686 373.254 225.189 403.511 265.087 419.416C260.364 399.015 255.641 375.399 250.983 353.423C241.4 345.126 232.933 335.623 225.793 325.149C230.516 325.149 272.959 320.426 279.257 320.426C283.914 337.744 309.105 508.96 309.105 508.96L263.185 576.528V642.128L327.932 615.757L392.351 642.456V574.954L346.431 507.386C346.431 507.386 371.622 336.17 376.279 318.852C381.002 318.852 423.446 323.575 429.743 323.575C423.071 334.405 414.544 343.975 404.553 351.848C398.7 373.584 393.993 395.613 390.449 417.842C430.789 402.515 463.584 372.097 481.895 333.021C604.436 362.869 642.091 419.416 642.091 419.416C627.987 317.277 499.148 183.978 499.148 183.978C499.148 183.978 518.041 232.653 467.726 232.653" fill="#CCCCCC" fill-opacity="0.2"></path>
<path d="M327.961 14.1323L277.711 153.926H279.285L327.961 218.345L376.636 153.926H378.21L327.961 14.1323Z" fill="#CCCCCC" fill-opacity="0.2"></path>
</svg>
