<svg id="Layer_1" xmlns="http://www.w3.org/2000/svg" viewBox="0 0 406.21 295.36"><defs><style>.cls-1{fill:#f1f0f0;fill-rule:evenodd;}</style></defs><path class="cls-1" d="M949.26,479.22a9.91,9.91,0,0,0,1.08,2.1l1.12.51,1.7,1.12a18.44,18.44,0,0,1,5.55,6.53,6.84,6.84,0,0,1,.75,1.77c1.3-2.67,2.6-5.33,3.89-8l3.39-6.88c1.39-3.15,2.57-6.34,3.76-9.72.79-2.24,2-5.63,2-8.44L971,457a20.1,20.1,0,0,1-2.88-2.95,6.43,6.43,0,0,1-1-1.25l-.14-.1-.91,1.52-.07,0-.3-3.93c-.3-1.81-.23-3.52-.51-5.25l-.17-2.71,0-1.16c-.36-2.66-.53-4.9-1-7.48l-.61-26.63c-.95-3-1.89-6-2.84-8.95l-1.83-5.79q-2,6-4,12.1-.36,7.27-.71,14.56c-.13,2.17-.25,4.34-.38,6.51l-.3,4.91-.27,4.1-.24,3.25c-.57,3.7-.35,7.63-1.15,11.08a35,35,0,0,1-3.76,9.76,13.67,13.67,0,0,1-3.56,4.2l-1.36.71-.64.2c1.82,4,3.45,8.05,5.18,12C948.16,476.9,948.75,478.06,949.26,479.22ZM923.38,484l.06,0c-.3-.78-.6-1.56-.91-2.34l2.1-3.22c.9-1.42,1.81-2.85,2.71-4.3l1-1.7.07,0-4.68,9.86,2.24,5.18h0l1.35-3,1.8-3.9q.71-5.34,1.42-10.7h0l-2.34,2.54q1.5-3.41,3-6.81c.12-.85.23-1.69.34-2.54-.15-.5-.65-1.09-.88-1.63a26.6,26.6,0,0,1-1.12-3.79c-.47-1.91-.44-4-.78-6.1l-.06-2.64a14,14,0,0,1,0-3.93c0-1.89.09-3.77.14-5.66,0-3.1.11-6.21.16-9.32q.08-5.46.14-10.94l0-3.69q-1.75,2.17-3.49,4.37a6.57,6.57,0,0,0-1,1.42q-.9,4.17-1.79,8.34-1.65,7.49-3.29,15c-.59,2.39-.95,4.8-1.63,7.08-.94,3.17-1.63,6-3.93,7.79-.48.38-1.71,1.56-2.5,1.29l7.82,17.55Zm62.84-2,5.59-3.52a65.08,65.08,0,0,0,7.05-4.51l2.13-2.85c.67-.9,1.34-1.8,2-2.74l.65-.95c.13-2.22.27-4.45.4-6.67-4.48-1.35-5-8.66-6.23-13.45q-2.91-11.87-5.83-23.72l-2.64-3.86-2.91-4.3.54,30.05.1,5.79,0,2.07,0,2.06a20.58,20.58,0,0,1-.31,4.82,8.88,8.88,0,0,1-1.59,2.57c-1.16,1.76-2.33,3.52-3.49,5.29a9.92,9.92,0,0,1,1.15,1.89A28.78,28.78,0,0,1,986.22,481.93Zm1.59-.2-1.45,2.2.07,4.81h0a23.29,23.29,0,0,0,4.37-4.71l3.69-4.64A26,26,0,0,0,997,476.2c-.75.76-2,1-3,1.6Zm-37,4-2.07-.81-1.66-.68,2.34,4.06c.35.39,1.5.27,2,.45l3.22,1.49h0l-.64-2.14L952.58,487Zm49.94.85.06,0-.84-.37a7.46,7.46,0,0,0-2.37-1.29l-.17,1.53,0-1.29h-.07l-1.86,3.52a24.72,24.72,0,0,0,3.9-1.45ZM906.88,651.05l29,0-7.62-4.14v-21l3.76-6.13-3.76-6.07v-21l7.59-4.07,0-.06H905.59l7.56,4.06a7.51,7.51,0,0,1,.06,2.24v18.83q-1.87,3.06-3.76,6.1c1.26,2,2.51,4.07,3.76,6.1v21l-6.74,3.66-7.59-9.45-.06,0-.75,1.49-9.59,3.83,7.52-4,1.63-2.85-15.86-19.71H870.22l32.29-31.41,10.26-5.52.07,0H879l5.12,2.75a10.53,10.53,0,0,1-2.1,2.06l-5.15,5L860.3,608.7l-6,5.73c-.49,1.34-1,2.69-1.49,4V586.21a21.83,21.83,0,0,0,2.92-1.22l1.42-.65,4.88-6.53-1.83.94a12.19,12.19,0,0,1-6.13,1.12,23.19,23.19,0,0,1-5.22-1.18c-.74-.31-1.75-1.12-2.58-1l-.61-1.35-1.08,1-2.41,2.17a9.64,9.64,0,0,1-2.44,2.61l3.93-6.37a23.82,23.82,0,0,1-6-5.69c-3.2-4.08-6.05-8.53-9-12.91l-5.45-8.2a7.53,7.53,0,0,0-2.34-.07l-8,0-.07,0a5.67,5.67,0,0,0,1.52-.75c1.47-.85,2.82-1.63,4.14-2.57,5.13-3.67,8.87-8.76,12.16-14.27l2.44-4.57c.31-.68.63-1.36,1-2l6.37-3.73,0,12.91q-1.86,3-3.73,6c-.09.18.75,1.36.92,1.62l2.81,4.54.07,2.31c.25,1.5.26,3,.61,4.37a28.56,28.56,0,0,0,4.2,9.79c.65.92,1.44,1.71,2.13,2.57a14.67,14.67,0,0,0,3.29,3l.1.1,4-3.52-1.59,3.28-.82,1.43.27.74c2.26.34,3.78,1.54,5.66,2.34A40.37,40.37,0,0,0,869,575.27l2.58-.48a52.88,52.88,0,0,0,6-1.63c9.15-3.23,15-8.33,18.43-17.27a36.05,36.05,0,0,0,1.42-6.78c0-1,.09-2.05.14-3.08l3.79-6.1-3.79-6.13v-21l7.58-4.1h.07l-5.76,0c-3.5,0-7.65-.33-10.19.68l-5.22,3.32,3.93-3.8c-.11-.31-2.54-.2-3.12-.2h-10l7.59,4.13c.23.28.06,1.46.06,1.9V533.8l-3.72,6c-.1.2.71,1.29.88,1.56l2.84,4.6v1.94a13.43,13.43,0,0,1-.84,5.14c-2.11,5.18-7.09,7.09-12.81,8.68l-3.52.88v0l2.06-1.18.07-.1C862.13,560,857.42,557,856,551.72a17.76,17.76,0,0,1-.41-4.57V546l3.8-6.09-1.49-2.44-2.31-3.66v-21l7.62-4.1,0-.07H832.85v0l7.66,4.1V519l-6.44-3.8-1.49-3.11c-1.14-2-2.16-3.95-3.35-5.83a40.35,40.35,0,0,0-12.13-12.77,38.36,38.36,0,0,0-12.67-4.92c-5-1.08-11.4-.64-17.21-.64L756.9,488l10.3,5.59,1.22.61,1.86,1.69.71.58c.1,1.84.2,3.68.31,5.52h0c-.6-1.06-1.2-2.12-1.79-3.18l-.07,0-1,1.15v30.43l-8.23,4.43,0,.07,8.26,4.44V581.6L766,588l-1.45,4.17-5.12,2.71,0,.07h5.39L785.05,584h6.17q-2.28-4.23-4.54-8.47V552.06l16.26-.07,5.49,7.15,8.16,10.57c6.07,8.54,14.28,19.68,29.71,18.12v0c-.79.13-1.64.32-2.5.47a27.77,27.77,0,0,1-8.34-.34l-4.27-.84-2.67-.71,6.1,3.32c.21.25.06,1.31.06,1.72v23.85l-8.26,4.51q4.1,2.21,8.2,4.4a12.56,12.56,0,0,1,.06,3.09v33.1l1-.21,7.08-5.28c-1.78,1.94-3.57,3.88-5.35,5.83-.69.84-1.44,2-2.71,2.26,0,.58,0,1.16,0,1.73L832,672l-1.15,3.32-5.15,2.75,0,.06h5.39l20.23-10.9,6-.07q-2.28-4.23-4.54-8.47V638.89l12.13-13.35c.43-.29,1.14,1,1.45,1.39l4,5L887.47,653l.1.1-3.73,2h-.07l30.8,0v0l-7.62-4.1ZM809,534a11,11,0,0,1-3.83,1.76l0,.07,3.8.74-22.26,0V526.14c1.25-2,2.5-4.09,3.76-6.13q-1.89-3-3.76-6.07v-7.85l-5.63-2.55,9.62,0c4.78,0,10.44-.44,14.2.71a19.47,19.47,0,0,1,6.81,3.93,18.75,18.75,0,0,1,3.62,4.51c.32.53.64,1.06,1,1.59a6.53,6.53,0,0,1-1,1.69c-.84,1.37-1.67,2.74-2.51,4.1l3.52,5.73A20.35,20.35,0,0,1,809,534Zm346.07-3.42c-.69-2-1.37-4-2.06-6.07-1.63-4.18-3.27-8.24-5-12.2a61.81,61.81,0,0,0-4.4-7.82c-6.16-9.78-15.43-16.66-31.58-16.43l-2.27,2.37-7.62,2.91,6.07-4.57c0-.24-.07-.48-.11-.71h-39.23v0l11.49,6.17v36.21l-8.2,4.41h-.07l8.2,4.47a9.43,9.43,0,0,1,.07,2.24v31.5l-3.63,1.73,25.85,13c1.12-1.5,2.76-2.16,4.51-3l6.43-3.22-1.79,1.35c-1.93,1.42-4.56,3.13-6,4.95l-1,1.05,12.16,6.1h7.42v0l-5.19-2.77c-.4-1.18-.81-2.35-1.22-3.53.63-.31,1.25-.63,1.87-1,1.67-1,3.38-1.81,5-2.81a56.74,56.74,0,0,0,15.68-14c1.26-1.65,2.43-3.34,3.56-5.14a8.49,8.49,0,0,0,1.39-2.38c-1.7.32-3.65.33-5.08.92l-5,3.79-10,6.74,8-7.62,3.69-3.69,3.22-.54,6.2-1.26c2.6-4.31,4.52-9.82,6.3-14.9.82-2.54,1.65-5.08,2.47-7.63l8-4.26,0-.07Q1159.1,532.69,1155.07,530.55Zm-19.48,15.14c-.74,1.91-1.39,3.77-2.17,5.56a42.83,42.83,0,0,1-13.61,17.51c-1.6,1.21-3.22,2.36-4.92,3.49l-2,1.25c-.17.1-.7-.26-.92-.37l-2.64-1.25-10.7-5q0-11.39,0-22.77l4.71-7a8.64,8.64,0,0,0,1.46-2.24q-3.09-4.54-6.17-9.11V506.05l-5.55-2.51H1093l1-.06h8.33l4,0c4.38,0,9-.19,12.3.85,7.63,2.4,11,9.35,13.89,16.56l2.44,6.92-4.74,7,6.06,9C1136,544.49,1135.8,545.09,1135.59,545.69ZM768.21,497.41c-.49-.8-1-1.6-1.49-2.4l-4.64-2,2.88,4.61A18.53,18.53,0,0,0,768.21,497.41ZM905.62,571.1h-.06l30.39,0v0l-7.66-4.1V546l3.76-6.09c-1.25-2-2.51-4-3.76-6.07v-21l7.59-4.1,0-.07H905.56l7.65,4.13v21c-1.25,2-2.5,4.07-3.76,6.1q1.89,3,3.76,6.06v21Zm31.58,0h-.07l26.53,0v0l-3.8-2V539.35c-.65-2.24-1.31-4.49-2-6.74l29.61,36.46q-1.68,3.15-3.35,6.3h11.89l12.5,5.52-4.61-5.76V546l3.76-6.06-3.76-6.13v-21l7.59-4.14h.07l-26.53,0,3.83,2.07v31.5c.64,2.34,1.29,4.68,1.93,7l-30.9-38.46-.07-.06,3.76-2,0-.07H937.13l7.66,4.13v21c-1.25,2-2.51,4-3.76,6.07l3.76,6.09v21Zm151,101.63,2.14-.27,2.91-.91c-.45-1.23-.9-2.46-1.36-3.69l-1.62.84c-.67.79-1.21,2-2.17,2.44.28-.61.56-1.22.85-1.83a3.47,3.47,0,0,0-.21-1.39l1-1.15,1.32-1.22-.57-1.56V650.68l0-32.59,7.35-4h.07l-49.53,0,3.83,5.73c-1.28,3.83-2.55,7.68-3.83,11.51v3.93l2.78-3.65,6.67-2.38c.88-.87,1.76-1.74,2.65-2.6l16.33-3.22,2-1.66-2.44,3-1.21.81-1.43,2.24v0h1c-1,10-7.81,14.65-15.45,18-1.69.75-3.41,1.51-5.18,2.24a7.19,7.19,0,0,1-2,.75l-1.79-.75c-1.91-.78-3.74-1.61-5.56-2.4-5.36-2.36-10.06-5.52-12.91-10.41a20.11,20.11,0,0,1-2-5.89c-.06-.47-.12-1-.17-1.42l4.23-6.3,1.22-1.77-5.38-8.06a13.17,13.17,0,0,1,.71-3.12,16.32,16.32,0,0,1,4.94-8,49,49,0,0,1,11.86-7l4.81-2c.47-.08,1.25.45,1.63.61q2.22.9,4.33,1.83c4.11,1.79,9.29,4.39,11.9,7.62,1,1.24,2.34,2.5,2.88,4.17q2.82-3.35,5.65-6.67c2.28-2.88,4.81-5.56,7.08-8.47L1088,588l-6.54,1.15c-1.32-.87-2.56-1.89-3.93-2.74a51.67,51.67,0,0,0-10.4-4.68c-1.29-.45-2.63-.74-4-1.12a4.6,4.6,0,0,0-1.83-.37l-9.79,2.51,21.27-12a3.09,3.09,0,0,0-.54-1.05l-1.66-3.09q1.82-4,3.62-8h-15.78l7.21,3v0l-8,3.9c-5.54,2.44-10.75,5.61-16.2,8.13l2.38-2v-.07a9.57,9.57,0,0,0-2.88-2.44c.07-.4.65-1.5.5-1.83l-2.27-1.42a10.66,10.66,0,0,1-3.45-4.24c-.92-2.13-.92-5-.92-8.13v-6.57h21.79l1.05-7.22,9.45-5.66,0-.06h-31.74l-4.3,3.11,3.69-5.18V521.6h6l10.06-5.45-6,5.28-.14.17h24l5.36,6.37V528a4.15,4.15,0,0,0-.17-1.63l-.48-3.72q-.87-7-1.76-14h-59.66v0l7.66,4.1v21q-1.89,3-3.76,6.06,1.88,3.07,3.76,6.13c0,3.85.07,7.71.1,11.56.25,1.53.26,3,.61,4.43a26.31,26.31,0,0,0,4.47,9.83,28.28,28.28,0,0,0,8.67,7.08l3.9,1.76,1.73.65a12.8,12.8,0,0,0-2.41.88,40.7,40.7,0,0,0-6.16,3.08,39.39,39.39,0,0,0-16.4,19.65,45.25,45.25,0,0,0-1.93,7.28l-.44,3.8c-.26.38-1,.54-1.39.78l-3.52,1.89-3-4.81V592.71l7.59-4.13h.07l-26.53,0,3.76,2.06a13.47,13.47,0,0,1,.07,2.75v28.76c.64,2.34,1.29,4.67,1.93,7l-30.9-38.45-.07-.07,3.73-2h.07l-26.49,0,7.55,4.06a7.57,7.57,0,0,1,.07,2.3v18.77l-3.76,6a4.65,4.65,0,0,0,.74,1.26c1,1.63,2,3.27,3,4.91v21L937.2,651l0,.07h26.49l-3.8-2.07V619.24c-.65-2.25-1.31-4.5-2-6.74L987.51,649q-1.68,3.12-3.35,6.24v0l11.89,0,12.5,5.49c-1.54-1.91-3.07-3.82-4.61-5.72V625.71l2.91-4.71,3.63,1.93c.41.24,1.12.4,1.39.78l.13,1.66.51,3.63a51,51,0,0,0,2.64,8.91,39.79,39.79,0,0,0,21.31,21.41,52.55,52.55,0,0,0,5.76,1.93,43.94,43.94,0,0,0,19.38.74,36.2,36.2,0,0,0,11.39-4.54,5.36,5.36,0,0,1-1.19,2.68q-1.68,3.15-3.35,6.3v0l5.59.81,13,6.57C1087.39,673.91,1088,672.89,1088.23,672.73Zm-27.92-129.41.45,2.74h0l2.3-1.52c.56-.63,1.11-1.27,1.66-1.9a10.55,10.55,0,0,0-.54-2.78l-2.2,1ZM889.74,571.23l0,.07,3.12,1.53,3-2a9.15,9.15,0,0,0-1.63-2.06ZM762,583.87c-.48,1.56-1,3.12-1.43,4.68a9.48,9.48,0,0,0,3.73-4.31Zm310.76,43.91c.74-.85,1.47-1.7,2.21-2.54l.1-.11c-.21-.15-.41-.31-.61-.47h-.27l-2.31.34c-2,.61-4.22,1.26-6.16,1.86l-1,.07c-1.39.36-2.16.73-2.61,2l1.59.55,6-1.16Zm25.65,35.1h0v1.86l.88-1.22h1.35v5.22l-.57.47,0,.1h2.41l-.65-.54v-5.25h1.36c.28.38.56.77.85,1.15l0,.07v-1.86A15.67,15.67,0,0,1,1098.36,662.88Zm13.82.16h-1.42c-.77,1.2-1.54,2.4-2.3,3.6l-.07,0-2.37-3.52a3.72,3.72,0,0,0-1.49-.11l.61.55v5.15l-.55.5-.06,0,2.16,0v-.07l-.88-.47a21.28,21.28,0,0,1-.06-4h0l2.24,3.32.1.07,2.23-3.39v-.07l.07.2c0,1.22.3,3.91-.51,4.27l-.1.14,2.37,0v0l-.61-.51v-5.15ZM906,681.78v0h5.15c-.34,2-3,3.51-5.39,2.54a4.74,4.74,0,0,1,.27-8.87,4.2,4.2,0,0,1,5.05,2l2.88-1.32c0-.54-.73-1.16-1.05-1.56a7.51,7.51,0,0,0-7.22-2.17c-3.5.84-7.3,4.63-5.82,9.52a7.52,7.52,0,0,0,5.75,5.42,5.45,5.45,0,0,0,2,.17,8.91,8.91,0,0,0,3.32-.88c2.42-1.43,3.64-3.6,3.59-7.55l-7.25,0Zm74.09,0h5.15a4,4,0,0,1-5.49,2.51,4.69,4.69,0,0,1-2.84-3.93,4.31,4.31,0,0,1,.4-2.34,4.46,4.46,0,0,1,6.51-2,3.38,3.38,0,0,1,1.35,1.52l2.88-1.35c-.63-2.43-5.06-4.7-8.57-3.66s-7,4.68-5.52,9.52c1.22,4,6.38,7.43,11.21,4.57,2.34-1.38,3.58-3.7,3.46-7.48h-7.22A12.08,12.08,0,0,0,980.09,681.81Zm54.24-3.18c-1.27-.32-3.12-.2-3.56-1.36-.53-1.4,1.17-2.32,2.51-2a2.15,2.15,0,0,1,1.83,1.73l2.78-1.32c-.83-2.16-2.47-3.36-5.49-3.32l-1.22.2a6.51,6.51,0,0,0-2.24,1.25c-2.07,1.69-1.65,5.24.34,6.64a5.88,5.88,0,0,0,1.7.78c1.44.44,3.72.23,4,1.8.24,1.26-1.25,2-2.51,1.73a3,3,0,0,1-2.64-2.31l-2.64,1.43c.18,2.39,3.94,4.39,7,3.66a5,5,0,0,0,3.69-3C1039.21,681.37,1036.66,679.21,1034.33,678.63Zm-164.85-6.07h-3.87l.72,1.53v11.72l-.75,1.53h8.94c.28-1,.55-1.92.82-2.88l-5.86,0Zm10.09,11.86V681.2h4.3l.75-2.77h-5v-2.95h5.52v-2.92h-8.7v14.78h8.74l0-2.88Zm10.78-11.86c.31.64.63,1.27.94,1.9q-2.58,6.42-5.18,12.84v0h3.25l1.09-2.88h5.86l1.12,2.88h3.32q-2.94-7.38-5.86-14.74Zm4.87,9.05h-3.65c.6-1.63,1.21-3.25,1.82-4.88l1.83,4.85Zm29-2.17a10,10,0,0,1-.34,3.69,2.53,2.53,0,0,1-2.85,1.36,2.47,2.47,0,0,1-1.93-1.49,10.14,10.14,0,0,1-.27-3.46l0-7h-3.19V679c0,1.93-.08,3.9.48,5.25.87,2.11,2.43,3,5,3.36a5.81,5.81,0,0,0,2.91-.48c3.2-1.32,3.39-3.91,3.39-8.4v-6.17h-3.22Zm7.76,1.8h4.26l.78-2.81h-5v-2.95h5.52v-2.85a9.71,9.71,0,0,0-2.27-.07h-6.4q0,7.4,0,14.78h8.74v-2.88l-5.55,0Zm25.51-8.68h-3.9v0c.24.48.48,1,.71,1.46v11.82c-.23.47-.47,1-.71,1.42v0h8.94l.78-2.92h-5.82Zm6.91,14.78h8.7v-2.88l-5.52,0V681.2l4.24,0,.81-2.81h-5v-2.95h5.52v-2.92h-8.7Zm25.27,0h8.71v-2.88l-5.52,0V681.2l4.26,0,.78-2.78v0h-5v-2.95h5.52v-2.92h-8.71Zm20.29-5.09h0l-6.71-9.62a22.09,22.09,0,0,0-4-.07l.71,1.39v13.39h3v-9.56l6.81,9.49a13.67,13.67,0,0,0,3.29.07V672.6l-3.09,0Zm4.44-9.69v14.78c5.54,0,8.76.26,11.12-3.05a8.58,8.58,0,0,0,1.15-2.44,7.63,7.63,0,0,0-.58-5.15C1024,672.53,1020.64,672.51,1014.44,672.56Zm8.85,9.29c-.9,2-2.66,2.54-5.7,2.5v-8.74h1.29C1022.25,675.61,1024.78,678.43,1023.29,681.85Zm70.63-8.57h-.1a4.84,4.84,0,0,1-2.88.1l-.81-.07a9.57,9.57,0,0,0-2.92,1.63h-.06l7.62,3.32,2.81-.85h2l-5.19-2.85C1094.22,674.13,1094.07,673.71,1093.92,673.28Zm-151.1,3.21-.91.21a3.62,3.62,0,0,0-2,2,3.48,3.48,0,1,0,2.94-2.24Zm.65,5.29a1.84,1.84,0,0,1-2.1-2.41c.24-.76.78-.94,1.49-1.25A1.86,1.86,0,0,1,943.47,681.78Zm98.92-3.18c-.05-.17.07-.33.14-.48a1,1,0,0,1,1.52.54l1.39-.64c-.18-1.06-1.27-1.56-2.57-1.53a6.16,6.16,0,0,0-1.15.41,2.09,2.09,0,0,0-.11,3.36c.65.48,2,.32,2.41,1.08l-.1.37a1.33,1.33,0,0,1-2-.71l-1.32.75c.81,2.12,4.55,2.4,5-.21C1046,679.1,1042.65,679.57,1042.39,678.6Zm11.89-2.11-.74.11a3.54,3.54,0,0,0-2.37,2.1,3.48,3.48,0,1,0,3.11-2.21Zm.28,5.32a1.85,1.85,0,0,1-1.87-2.57c.29-.7.82-.83,1.53-1.12A1.85,1.85,0,0,1,1054.56,681.81Zm-196-5.18.4.85-2.33,5.79h1.55l.48-1.29h2.51c.14.42.29.84.44,1.26l1.62,0-2.64-6.64Zm.67,3.9c.23-.6.46-1.2.68-1.8l.68,1.8Zm87.89,2.74h1.66V681h1.69l.37-1.45-2.06,0v-1.39h2.4v-1.49l-4,0Zm98.75-6.64v1.52h1.83v5.12h1.66v-5.12h1.42c.14-.5.28-1,.41-1.52Zm17.48,3.25a2.19,2.19,0,0,0-1-3.08c-1-.41-2.89-.19-4.17-.17.11.24.21.47.31.71v5.93h1.63v-2.4h.74l1.39,2.33c.24.22,1.36.08,1.76.07-.51-.88-1-1.76-1.52-2.64A3,3,0,0,0,1063.36,679.88Zm-1.42-.74a3.34,3.34,0,0,1-1.79.23v-1.25l1.49,0C1062,678.31,1062.09,678.71,1061.94,679.14Zm4.88-.07-.07,0-1.42-2.47h-1.76l2.37,4v2.61h1.66v-2.61l2.37-4h-1.76Z" transform="translate(-756.9 -392.32)"></path></svg>