<?xml version="1.0" standalone="no"?>
<!DOCTYPE svg PUBLIC "-//W3C//DTD SVG 1.1//EN" "http://www.w3.org/Graphics/SVG/1.1/DTD/svg11.dtd" >
<svg xmlns="http://www.w3.org/2000/svg" xmlns:xlink="http://www.w3.org/1999/xlink" version="1.1">
<metadata>
Created by FontForge 20190801 at Sun Sep 27 02:01:27 2020
 By Unknown
Copyright (c) Beijing Tsanger Character Technology Co., Ltd.. All rights reserved.
</metadata>
<defs>
<font id="TsangerYuYangT-W05" horiz-adv-x="1000" vert-adv-y="1000" >
  <font-face 
    font-family="TsangerYuYangT W05"
    font-weight="400"
    font-stretch="normal"
    units-per-em="1000"
    panose-1="2 2 4 0 0 0 0 0 0 0"
    ascent="880"
    descent="-120"
    x-height="568"
    cap-height="760"
    bbox="-19 -208 1014 882"
    underline-thickness="50"
    underline-position="-150"
    unicode-range="U+0001-FFE5"
  />
<missing-glyph horiz-adv-x="500" 
 />
    <glyph glyph-name=".notdef" horiz-adv-x="500" 
 />
    <glyph glyph-name=".null" horiz-adv-x="0" vert-adv-y="0" 
 />
    <glyph glyph-name="nonmarkingreturn" horiz-adv-x="333" 
 />
    <glyph glyph-name="uni0001" horiz-adv-x="250" 
 />
    <glyph glyph-name="uni0001" unicode=" " horiz-adv-x="250" 
 />
    <glyph glyph-name="uni0001" horiz-adv-x="250" 
 />
    <glyph glyph-name="uni0001" horiz-adv-x="250" 
 />
    <glyph glyph-name="uni0001" horiz-adv-x="250" 
 />
    <glyph glyph-name="uni0001" horiz-adv-x="250" 
 />
    <glyph glyph-name="uni0001" horiz-adv-x="250" 
 />
    <glyph glyph-name="uni0001" horiz-adv-x="250" 
 />
    <glyph glyph-name="uni0001" horiz-adv-x="250" 
 />
    <glyph glyph-name="uni0001" horiz-adv-x="250" 
 />
    <glyph glyph-name="uni0001" horiz-adv-x="250" 
 />
    <glyph glyph-name="uni0001" horiz-adv-x="250" 
 />
    <glyph glyph-name="uni0001" horiz-adv-x="250" 
 />
    <glyph glyph-name="uni0001" horiz-adv-x="250" 
 />
    <glyph glyph-name="uni0001" horiz-adv-x="250" 
 />
    <glyph glyph-name="uni0001" horiz-adv-x="250" 
 />
    <glyph glyph-name="uni0001" horiz-adv-x="250" 
 />
    <glyph glyph-name="uni0001" horiz-adv-x="250" 
 />
    <glyph glyph-name="uni0001" horiz-adv-x="250" 
 />
    <glyph glyph-name="uni0001" horiz-adv-x="250" 
 />
    <glyph glyph-name="uni0001" unicode="&#xd;" horiz-adv-x="250" 
 />
    <glyph glyph-name="uni0001" horiz-adv-x="250" 
 />
    <glyph glyph-name="uni0001" horiz-adv-x="250" 
 />
    <glyph glyph-name="uni0001" unicode="&#xa;" horiz-adv-x="250" 
 />
    <glyph glyph-name="uni0001" unicode="&#x9;" horiz-adv-x="250" 
 />
    <glyph glyph-name="uni0001" horiz-adv-x="250" 
 />
    <glyph glyph-name="uni0001" horiz-adv-x="250" 
 />
    <glyph glyph-name="uni0001" horiz-adv-x="250" 
 />
    <glyph glyph-name="uni0001" horiz-adv-x="250" 
 />
    <glyph glyph-name="uni0001" horiz-adv-x="250" 
 />
    <glyph glyph-name="uni0001" horiz-adv-x="250" 
 />
    <glyph glyph-name="uni0001" horiz-adv-x="250" 
 />
    <glyph glyph-name="uni0001" horiz-adv-x="250" 
 />
    <glyph glyph-name="exclam" unicode="!" horiz-adv-x="310" 
d="M232 809l-40 -597h-82l-41 597h163zM225 -1h-149l1 149h148v-149z" />
    <glyph glyph-name="quotedbl" unicode="&#x22;" horiz-adv-x="500" 
d="M451 811l-28 -366h-111l-28 366h167zM212 811l-28 -366h-111l-28 366h167z" />
    <glyph glyph-name="numbersign" unicode="#" horiz-adv-x="627" 
d="M381 472h-133l-20 -154h134zM478 472l-20 -154h109v-89h-120l-29 -229h-96l28 229h-133l-29 -229h-96l29 229h-97v89h108l19 154h-99v89h110l26 203h97l-26 -203h133l25 203h98l-26 -203h106v-89h-117z" />
    <glyph glyph-name="dollar" unicode="$" horiz-adv-x="649" 
d="M378 110q83 23 81 109q0 66 -81 88v-197zM259 649q-77 -25 -73 -109q2 -54 73 -78v187zM378 439q21 -5 23 -5q198 -33 198 -189q1 -93 -57 -155q-59 -63 -164 -77v-132h-119v132q-126 17 -208 134l101 61q50 -80 107 -98v219q-209 48 -211 204q-1 85 52 144q57 62 159 74
v114h119v-117q128 -23 187 -110l-88 -80q-31 65 -99 87v-206z" />
    <glyph glyph-name="percent" unicode="%" horiz-adv-x="829" 
d="M571 96q16 -36 35 -36q21 0 35 32q17 39 17 111q0 69 -18 109q-15 33 -36 33q-50 0 -50 -144q0 -65 17 -105zM488 350q47 61 113 61q75 0 123 -61q47 -59 47 -143q0 -97 -47 -157q-45 -59 -116 -59q-73 0 -120 61q-47 60 -47 149q0 88 47 149zM707 812l-469 -822h-107
l469 822h107zM184 492q16 -36 35 -36q21 0 35 32q17 39 17 111q0 69 -18 108q-15 33 -36 33q-50 0 -50 -143q0 -65 17 -105zM101 746q47 61 113 61q75 0 123 -61q46 -59 46 -143q0 -98 -46 -157q-45 -59 -116 -59q-73 0 -120 61q-47 60 -47 149q0 88 47 149z" />
    <glyph glyph-name="ampersand" unicode="&#x26;" horiz-adv-x="785" 
d="M370 704q-25 31 -73 32q-44 1 -67 -39q-21 -37 -13 -82q13 -73 50 -114q103 46 119 128q8 44 -16 75zM245 339q-66 -44 -66 -112q0 -102 69 -129q50 -20 104 -5q55 15 89 57q-150 135 -196 189zM694 -21q-82 42 -165 102q-113 -120 -295 -76q-188 45 -188 217
q0 139 119 217q-63 95 -67 166q-4 84 42 140q54 64 158 60q97 -4 148 -59q49 -54 40 -140q-13 -119 -149 -199q62 -78 171 -157q53 84 88 197l120 -47q-55 -138 -116 -219q71 -48 159 -87z" />
    <glyph glyph-name="quotesingle" unicode="'" horiz-adv-x="756" 
d="M237 797l-28 -290h-112l-27 290h167z" />
    <glyph glyph-name="parenleft" unicode="(" horiz-adv-x="452" 
d="M380 -79q-103 85 -163 212q-59 123 -59 248q0 257 222 461l52 -36q-133 -212 -133 -425q0 -204 134 -425z" />
    <glyph glyph-name="parenright" unicode=")" horiz-adv-x="453" 
d="M97 842q103 -86 163 -212q58 -124 58 -249q0 -257 -221 -460l-52 35q133 213 133 425q0 206 -134 425z" />
    <glyph glyph-name="asterisk" unicode="*" horiz-adv-x="500" 
d="M345 475l93 -102l-116 -85l-71 125l-70 -123l-116 84l92 101l-139 29l44 136l128 -58l-14 128h143l-15 -130l134 60l44 -136z" />
    <glyph glyph-name="plus" unicode="+" horiz-adv-x="609" 
d="M21 358v81h220v235h119v-235h220v-81h-220v-231h-119v231h-220z" />
    <glyph glyph-name="comma" unicode="," horiz-adv-x="405" 
d="M5 -78q74 90 74 289h152q0 -129 -35 -207q-36 -83 -125 -144z" />
    <glyph glyph-name="hyphen" unicode="-" horiz-adv-x="631" 
d="M585 426v-78h-563v78h563z" />
    <glyph glyph-name="period" unicode="." horiz-adv-x="405" 
d="M266 34h-153l1 154h152v-154z" />
    <glyph glyph-name="slash" unicode="/" horiz-adv-x="460" 
d="M429 791l-298 -806h-106l298 806h106z" />
    <glyph glyph-name="zero" unicode="0" horiz-adv-x="595" 
d="M385 595q-33 86 -92 86q-61 0 -92 -85q-30 -79 -30 -215q0 -134 32 -217q33 -86 90 -86q60 0 93 86q31 82 31 217q0 133 -32 214zM293 -9q-125 0 -194 94q-73 100 -73 296q0 195 75 294q69 91 192 91q124 0 194 -91q76 -99 76 -294q0 -390 -270 -390z" />
    <glyph glyph-name="one" unicode="1" horiz-adv-x="594" 
d="M257 642q-70 -55 -199 -80l-12 83q149 33 211 115h99q46 0 46 -49v-710h-145v641z" />
    <glyph glyph-name="two" unicode="2" horiz-adv-x="595" 
d="M55 537q12 99 71 159q64 65 167 66q121 2 190 -59t62 -164q-6 -96 -84 -176q-19 -20 -134 -109q-117 -91 -142 -176h364l-10 -78h-440q-78 0 -50 92q44 119 201 250l92 77q55 56 60 118q5 64 -22 103q-30 42 -88 40q-48 -1 -82 -47q-34 -44 -45 -118z" />
    <glyph glyph-name="three" unicode="3" horiz-adv-x="595" 
d="M133 180q48 -94 139 -94q53 0 89 33q37 33 38 83q3 149 -188 149q-48 0 -51 41t38 42q101 2 141 39q32 29 34 96q2 114 -106 114q-91 0 -120 -98l-96 44q23 60 81 97q60 39 141 39q110 0 177 -55q66 -55 66 -143q0 -130 -116 -166v-3q66 -13 107 -59q44 -48 44 -116
q0 -101 -73 -164q-74 -64 -194 -64q-186 0 -252 156z" />
    <glyph glyph-name="four" unicode="4" horiz-adv-x="595" 
d="M320 245v327q-88 -142 -188 -321l2 -6h186zM554 245l-10 -80h-86v-165h-138v165h-252q-38 0 -47 36q-9 33 10 66q215 390 289 492h93q45 0 45 -59v-455h96z" />
    <glyph glyph-name="five" unicode="5" horiz-adv-x="595" 
d="M196 475l2 -2q74 38 136 33q92 -7 157 -73q70 -72 70 -179q0 -122 -76 -193q-73 -70 -193 -70q-184 0 -257 166l88 43q31 -71 65 -97q34 -25 101 -25q133 0 131 176q0 68 -32 115q-37 53 -100 53q-83 0 -126 -69q-16 -28 -55 -18q-39 11 -37 54l30 370h417l-10 -79h-296z
" />
    <glyph glyph-name="six" unicode="6" horiz-adv-x="595" 
d="M377 119q32 49 32 129q0 64 -31 111q-32 47 -79 47q-49 0 -82 -48q-31 -46 -31 -111q0 -80 31 -128q31 -47 82 -47q47 0 78 47zM177 423q54 76 157 71q98 -5 156 -64q59 -62 59 -167q0 -131 -65 -202q-65 -70 -181 -70q-267 0 -267 352q0 193 62 302q69 121 209 121
q197 0 240 -173l-104 -23q-33 106 -128 106q-140 0 -140 -251z" />
    <glyph glyph-name="seven" unicode="7" horiz-adv-x="595" 
d="M186 1q33 437 222 675h-354l-10 79h452q37 0 50 -31q13 -32 -13 -62q-65 -84 -124 -245q-78 -213 -78 -416h-145z" />
    <glyph glyph-name="eight" unicode="8" horiz-adv-x="595" 
d="M292 695q-53 0 -83 -34q-26 -31 -26 -80q0 -87 122 -121q46 17 74 52q25 33 25 69q0 114 -112 114zM380 316q-42 38 -107 46q-42 -8 -73 -52q-30 -42 -30 -89q0 -71 34 -110q33 -39 93 -39q59 0 93 41q33 40 33 108q0 56 -43 95zM163 412q-106 45 -106 163q0 86 65 140
q66 55 175 55q110 0 178 -57q64 -55 64 -138q0 -125 -104 -163v-2q61 -21 98 -73q36 -52 36 -116q0 -108 -77 -170q-74 -60 -195 -60q-124 0 -197 64q-72 63 -72 166q0 61 38 115t97 74v2z" />
    <glyph glyph-name="nine" unicode="9" horiz-adv-x="595" 
d="M216 638q-32 -49 -32 -129q0 -64 31 -110q32 -47 78 -47q49 0 82 47q32 46 32 111q0 80 -31 128q-31 47 -82 47q-47 0 -78 -47zM415 334q-52 -76 -157 -71q-98 5 -155 65q-60 61 -60 167q0 131 66 202q64 69 180 69q268 0 268 -352q0 -193 -62 -301q-69 -122 -209 -122
q-197 0 -240 173l104 23q31 -105 127 -105q140 0 140 250z" />
    <glyph glyph-name="colon" unicode=":" horiz-adv-x="405" 
d="M266 2h-149v149h149v-149zM266 486h-149v149h149v-149z" />
    <glyph glyph-name="semicolon" unicode=";" horiz-adv-x="405" 
d="M28 -130q72 88 72 281h149q0 -125 -34 -202q-36 -80 -122 -139zM240 486h-149v149h149v-149z" />
    <glyph glyph-name="less" unicode="&#x3c;" horiz-adv-x="690" 
d="M647 550l-419 -167l419 -167v-134l-560 244v114l560 244v-134z" />
    <glyph glyph-name="equal" unicode="=" horiz-adv-x="690" 
d="M620 299v-106h-555v106h555zM620 567v-106h-555v106h555z" />
    <glyph glyph-name="greater" unicode="&#x3e;" horiz-adv-x="690" 
d="M605 434v-114l-560 -244v134l418 166l-418 163v139z" />
    <glyph glyph-name="question" unicode="?" horiz-adv-x="513" 
d="M305 2h-149v149h149v-149zM166 280q-13 97 72 195q89 103 89 149q0 112 -97 112q-48 0 -75 -44q-26 -42 -27 -111l-110 11q10 110 68 171q57 61 149 61q102 0 163 -52q64 -55 64 -149q0 -81 -91 -175q-87 -90 -79 -168h-126z" />
    <glyph glyph-name="at" unicode="@" horiz-adv-x="880" 
d="M472 306q19 104 49 214q-21 63 -79 58q-42 -3 -71 -72q-26 -61 -30 -136q-6 -117 52 -117q42 0 78 48zM647 597q-58 -173 -67 -282q-5 -56 5 -68q9 -11 45 4q108 46 108 203q0 119 -80 193q-80 73 -210 73q-134 0 -222 -90q-88 -91 -88 -230q0 -142 86 -228
q88 -88 236 -88q143 0 225 88l57 -61q-103 -113 -288 -113q-192 0 -303 110q-110 109 -110 294q0 166 116 283q118 121 292 121q150 0 260 -96q113 -98 113 -234q0 -144 -80 -233q-73 -80 -174 -80q-73 0 -94 64q-46 -42 -108 -42t-99 52q-37 51 -37 133q0 110 59 190
q59 81 144 81q76 0 116 -53l16 25z" />
    <glyph glyph-name="A" unicode="A" horiz-adv-x="698" 
d="M440 345l-87 286l-102 -286h189zM464 266h-241l-94 -266h-111l263 761h121q34 0 51 -12q17 -13 31 -50q12 -33 233 -699h-172z" />
    <glyph glyph-name="B" unicode="B" horiz-adv-x="717" 
d="M229 86h164q57 4 89 41q29 34 29 83q0 53 -23 90q-27 46 -80 47q-83 3 -179 0v-261zM229 427q55 -3 143 -1q98 3 98 127q0 120 -110 128h-131v-254zM393 761q117 -5 178 -65q54 -54 54 -143q0 -124 -100 -158q66 -11 106 -62t40 -122q0 -94 -64 -150q-68 -61 -192 -61
h-344v761h322z" />
    <glyph glyph-name="C" unicode="C" horiz-adv-x="727" 
d="M544 479q-10 83 -56 142q-48 60 -106 60q-81 0 -132 -88q-50 -85 -50 -210q0 -122 50 -208q53 -92 135 -92q137 0 168 219l150 -29q-45 -281 -318 -281q-160 0 -251 101q-94 104 -94 290q0 184 94 286q91 100 251 100q120 0 201 -66q82 -67 108 -189z" />
    <glyph glyph-name="D" unicode="D" horiz-adv-x="659" 
d="M335 85q94 0 148 94q47 82 47 198q0 114 -47 197q-55 96 -148 96h-106v-585h106zM360 759q163 0 247 -100q83 -98 83 -282q0 -170 -82 -271q-88 -109 -248 -109h-289v762h289z" />
    <glyph glyph-name="E" unicode="E" horiz-adv-x="678" 
d="M639 75l-8 -75h-388q-95 0 -133 38q-36 36 -36 121v599h548l-9 -73h-378v-256h384l-8 -72h-376v-282h404z" />
    <glyph glyph-name="F" unicode="F" horiz-adv-x="693" 
d="M232 685v-263h339l-8 -73h-331v-349h-160v758h578l-8 -73h-410z" />
    <glyph glyph-name="G" unicode="G" horiz-adv-x="705" 
d="M649 388q69 0 65 -78q-18 -322 -317 -322q-166 0 -261 100q-97 102 -97 286q0 191 98 294q94 98 260 98q107 0 186 -57q81 -59 110 -163l-149 -42q-13 80 -56 128q-43 47 -102 47q-89 0 -140 -92q-47 -85 -47 -213q0 -129 53 -213q56 -88 145 -88q78 0 122 82
q35 67 39 160h-164l-9 73h264z" />
    <glyph glyph-name="H" unicode="H" horiz-adv-x="780" 
d="M682 759v-759h-160v361h-294v-361h-157v759h157v-324h294v324h160z" />
    <glyph glyph-name="I" unicode="I" horiz-adv-x="298" 
d="M235 1h-163v759h163v-759z" />
    <glyph glyph-name="J" unicode="J" horiz-adv-x="529" 
d="M461 244q0 -249 -239 -249q-210 0 -210 245h133q4 -91 16 -123q16 -42 61 -42q79 0 79 166v519h160v-516z" />
    <glyph glyph-name="K" unicode="K" horiz-adv-x="711" 
d="M304 380l-75 -84v-296h-158v760h158v-355l303 354h104l-233 -272l256 -487h-180z" />
    <glyph glyph-name="L" unicode="L" horiz-adv-x="602" 
d="M232 75h354l-8 -75h-338q-95 0 -133 38q-36 36 -36 121v599h161v-683z" />
    <glyph glyph-name="M" unicode="M" horiz-adv-x="931" 
d="M253 758q43 0 61 -50l154 -507h2l143 557h81q36 0 55 -22q19 -21 31 -74l144 -661h-158l-118 538h-2l-146 -503h-81q-36 0 -49 35l-145 464h-2l-128 -534h-88l169 757h77z" />
    <glyph glyph-name="N" unicode="N" horiz-adv-x="777" 
d="M630 758v-758h-105q-55 0 -83 53l-282 539v-592h-89v758h90q58 0 87 -52q50 -91 293 -542v594h89z" />
    <glyph glyph-name="O" unicode="O" horiz-adv-x="744" 
d="M494 586q-50 93 -126 93q-78 0 -127 -93q-46 -87 -46 -212q0 -126 46 -210q49 -87 127 -87q79 0 128 87q46 84 46 210q0 123 -48 212zM613 91q-90 -104 -245 -104t-244 107q-88 105 -88 280q0 180 89 287q90 108 243 108q155 0 246 -108q89 -107 89 -287t-90 -283z" />
    <glyph glyph-name="P" unicode="P" horiz-adv-x="697" 
d="M401 398q47 0 78 42q32 42 32 110q0 56 -26 93q-30 41 -84 41h-169v-286h169zM458 756q93 0 153 -57q60 -58 60 -153q0 -106 -63 -163q-65 -58 -188 -59h-188v-324h-160v756h386z" />
    <glyph glyph-name="Q" unicode="Q" horiz-adv-x="741" 
d="M513 203q29 73 29 171q0 123 -48 212q-50 93 -126 93q-78 0 -127 -93q-46 -87 -46 -212q0 -126 46 -210q49 -87 127 -87q62 0 106 55l-72 90l51 42zM629 -62l-79 98q-77 -49 -182 -49q-155 0 -244 107q-88 105 -88 280q0 180 89 287q90 108 243 108q155 0 246 -108
q89 -107 89 -287q0 -175 -85 -277l92 -93z" />
    <glyph glyph-name="R" unicode="R" horiz-adv-x="691" 
d="M231 397h164q47 0 78 42q32 42 32 110q0 55 -27 93q-30 41 -83 41h-164v-286zM312 323h-81v-323h-160v755h381q93 0 152 -57q60 -58 60 -154q0 -198 -206 -219q21 -12 40 -38q34 -48 181 -287h-195z" />
    <glyph glyph-name="S" unicode="S" horiz-adv-x="668" 
d="M109 195q96 -117 229 -117q154 0 154 122q0 49 -31 85q-32 38 -88 48l-31 6q-301 46 -301 226q0 95 76 148q76 52 210 52q198 0 303 -119l-68 -87q-82 122 -238 122q-60 0 -93 -36q-29 -33 -29 -85q0 -95 158 -123l40 -7q258 -30 258 -228q0 -100 -83 -157
q-84 -57 -231 -57q-185 0 -307 124z" />
    <glyph glyph-name="T" unicode="T" horiz-adv-x="653" 
d="M632 680h-208v-680h-160v680h-207l-10 78h595z" />
    <glyph glyph-name="U" unicode="U" horiz-adv-x="713" 
d="M652 272q0 -279 -271 -279q-310 0 -310 284v481h160v-481q0 -82 46 -140q50 -62 127 -62q162 0 162 197v486h86v-486z" />
    <glyph glyph-name="V" unicode="V" horiz-adv-x="718" 
d="M5 758h168l213 -615h2l204 615h91l-263 -758h-94q-63 0 -83 65z" />
    <glyph glyph-name="W" unicode="W" horiz-adv-x="931" 
d="M236 1q-36 0 -55 22q-19 20 -31 73l-143 662h157l118 -538h2l146 503h81q37 0 49 -35l145 -464h2l128 534h89l-169 -757h-78q-43 0 -60 50q-5 14 -155 507h-2l-143 -557h-81z" />
    <glyph glyph-name="X" unicode="X" horiz-adv-x="710" 
d="M501 4l-189 298l-208 -301h-86l252 368l-246 389h178l182 -277l191 277h86l-235 -341l271 -413h-196z" />
    <glyph glyph-name="Y" unicode="Y" horiz-adv-x="671" 
d="M436 337v-335h-160v312l-272 444h178l210 -359l188 359h84z" />
    <glyph glyph-name="Z" unicode="Z" horiz-adv-x="690" 
d="M684 77l-11 -75h-526q-85 0 -109 59q-23 56 24 124q261 367 359 498h-356l-5 75h530q47 -1 60 -33t-16 -69q-184 -240 -440 -579h490z" />
    <glyph glyph-name="bracketleft" unicode="[" horiz-adv-x="345" 
d="M320 879l-10 -76h-119v-855h129l-10 -78h-239v1009h249z" />
    <glyph glyph-name="backslash" unicode="\" horiz-adv-x="449" 
d="M303 -131l-270 1000h107l270 -1000h-107z" />
    <glyph glyph-name="bracketright" unicode="]" horiz-adv-x="345" 
d="M150 -50v854h-120l-10 77h250v-1009h-240l-10 78h130z" />
    <glyph glyph-name="asciicircum" unicode="^" horiz-adv-x="569" 
d="M403 425l-130 261l-129 -260h-144l216 374h113l213 -376z" />
    <glyph glyph-name="underscore" unicode="_" horiz-adv-x="574" 
d="M554 -16v-64h-542v64h542z" />
    <glyph glyph-name="grave" unicode="`" horiz-adv-x="408" 
d="M168 859l177 -230l-80 -73l-207 202z" />
    <glyph glyph-name="a" unicode="a" horiz-adv-x="633" 
d="M563 6h-112l-12 64q-51 -77 -156 -77q-112 0 -179 80q-66 77 -66 203q0 134 71 218q70 82 177 82q87 0 146 -46l9 35h122v-559zM218 141q35 -59 87 -59q49 0 82 27q37 30 39 75v215q0 41 -40 71q-27 19 -77 19q-53 0 -90 -62q-36 -60 -36 -141q0 -86 35 -145z" />
    <glyph glyph-name="b" unicode="b" horiz-adv-x="675" 
d="M218 372q-15 -106 0 -189q6 -38 35 -69q34 -36 96 -34q58 1 93 62q33 57 33 138q0 86 -39 144q-40 58 -98 58q-50 0 -83 -35q-31 -32 -37 -75zM216 513h2q57 57 169 57q95 0 161 -75q71 -82 71 -214q0 -140 -73 -219q-65 -69 -159 -69q-120 0 -182 56h-2l-12 -46h-120
v758h145v-248z" />
    <glyph glyph-name="c" unicode="c" horiz-adv-x="589" 
d="M449 375q-33 114 -126 114q-62 0 -100 -55q-39 -57 -39 -151q0 -96 40 -151q37 -50 96 -50q57 0 93 40t42 111l118 -29q-38 -211 -270 -211q-110 0 -187 84q-77 82 -77 198q0 129 81 216q78 84 186 84q194 0 260 -173z" />
    <glyph glyph-name="d" unicode="d" horiz-adv-x="668" 
d="M397 116q27 29 35 69q14 90 0 191q-6 42 -37 76q-35 35 -83 35q-58 0 -98 -59q-39 -59 -39 -145q0 -82 33 -140q35 -61 93 -62q63 -2 96 35zM578 3h-125l-6 47h-2q-64 -57 -174 -57q-98 0 -164 64q-77 75 -77 215q0 135 69 218q64 79 158 79q124 0 175 -51h2v243h144
v-758z" />
    <glyph glyph-name="e" unicode="e" horiz-adv-x="619" 
d="M447 340q-4 60 -39 104q-39 47 -94 47q-60 0 -99 -47q-35 -43 -38 -104h270zM177 259q0 -81 38 -132q39 -52 103 -53q121 0 152 116l106 -19q-49 -178 -263 -178q-120 0 -202 89q-79 86 -79 203q0 124 81 209t200 85t194 -81q81 -87 78 -239h-408z" />
    <glyph glyph-name="f" unicode="f" horiz-adv-x="500" 
d="M22 531h99v87q0 191 266 130l-12 -88q-45 28 -78 12q-32 -16 -32 -63v-78h112l-10 -75h-102v-456h-144v456h-94z" />
    <glyph glyph-name="g" unicode="g" horiz-adv-x="620" 
d="M368 464q-31 26 -75 26q-50 0 -87 -56q-36 -55 -36 -125q0 -81 35 -136q36 -55 88 -55q51 0 84 31q24 24 31 79q12 81 -2 174q-6 35 -38 62zM553 36q0 -119 -63 -175q-63 -57 -198 -57q-156 0 -249 123l72 72q74 -116 179 -116q50 0 86 40q36 39 36 93v72h-2
q-58 -65 -158 -65q-97 0 -161 81t-64 202q0 116 65 192q64 75 161 75q110 0 157 -56h2l12 42h125v-523z" />
    <glyph glyph-name="h" unicode="h" horiz-adv-x="543" 
d="M216 493h3q46 82 135 82q145 0 145 -187v-388h-79v368q0 55 -24 91q-26 37 -68 37t-70 -26q-42 -42 -42 -108v-362h-145v760h145v-267z" />
    <glyph glyph-name="i" unicode="i" horiz-adv-x="310" 
d="M72 760h142v-137h-142v137zM215 0h-144v570h144v-570z" />
    <glyph glyph-name="j" unicode="j" horiz-adv-x="627" 
d="M238 570v-643q0 -123 -141 -123h-109l-7 55h115v711h142zM96 760h142v-137h-142v137z" />
    <glyph glyph-name="k" unicode="k" horiz-adv-x="573" 
d="M371 396l198 -396h-159l-132 316l-62 -55v-261h-145v760h145v-416l248 225h105z" />
    <glyph glyph-name="l" unicode="l" horiz-adv-x="358" 
d="M206 60h101l-6 -60h-98q-85 0 -113 29q-27 27 -27 103v625h143v-697z" />
    <glyph glyph-name="m" unicode="m" horiz-adv-x="811" 
d="M207 505h2q38 74 147 74q112 0 150 -76q35 76 139 76q56 0 95 -49q42 -54 42 -140v-389h-81v377q0 116 -83 116q-39 0 -61 -22q-30 -30 -30 -99v-372h-144v374q0 119 -84 119q-38 0 -60 -22q-24 -29 -24 -87v-384h-144v564h130z" />
    <glyph glyph-name="n" unicode="n" horiz-adv-x="606" 
d="M208 503h3q38 76 142 76q65 0 103 -46q40 -47 40 -134v-398h-76v374q0 118 -93 118q-48 0 -77 -27q-35 -35 -35 -112v-353h-144v564h131z" />
    <glyph glyph-name="o" unicode="o" horiz-adv-x="597" 
d="M398 430q-37 61 -93 61q-58 0 -93 -61q-34 -58 -34 -144q0 -85 33 -142q35 -60 94 -60q57 0 93 56q35 56 35 146q0 85 -35 144zM498 73q-77 -79 -193 -79q-126 0 -200 83q-72 80 -72 209q0 132 74 211q75 80 198 80q121 0 198 -82q75 -81 75 -209q0 -131 -80 -213z" />
    <glyph glyph-name="p" unicode="p" horiz-adv-x="651" 
d="M253 461q-26 -22 -34 -62q-18 -95 0 -218q6 -42 43 -68q35 -24 82 -24q132 0 132 198q0 97 -37 151q-36 52 -95 52q-57 0 -91 -29zM72 567h120l12 -47h2q64 57 182 57q95 0 160 -70q73 -80 73 -221q0 -133 -71 -215q-67 -76 -162 -76q-113 0 -169 58h-2v-249h-145v763z
" />
    <glyph glyph-name="q" unicode="q" horiz-adv-x="615" 
d="M432 181q18 121 0 214q-8 40 -34 62q-35 28 -91 28q-59 0 -95 -51q-37 -54 -37 -149q0 -194 132 -194q48 0 82 23q37 24 43 67zM434 54h-2q-58 -56 -169 -56q-95 0 -161 75q-72 80 -72 211q0 139 73 218q65 69 160 69q118 0 182 -57h2l12 47h120v-752h-145v245z" />
    <glyph glyph-name="r" unicode="r" horiz-adv-x="433" 
d="M203 465h2q41 111 199 111l-14 -95q-96 0 -137 -54q-43 -56 -43 -200v-227h-145v567h126z" />
    <glyph glyph-name="s" unicode="s" horiz-adv-x="524" 
d="M76 142q72 -57 176 -57q51 0 73 15q21 15 21 50q0 57 -95 79q-16 4 -24 5q-187 40 -198 152q-9 79 49 131q61 56 173 56q131 0 218 -66l-51 -66q-59 48 -172 48q-42 0 -64 -23q-18 -19 -16 -43q4 -56 117 -76l17 -3q199 -33 197 -153q-1 -193 -246 -193q-133 0 -233 82z
" />
    <glyph glyph-name="t" unicode="t" 
d="M380 57l-7 -60h-108q-84 0 -113 29q-26 27 -26 103v326h-93l-5 74h98v230h142v-230h110l-5 -74h-105v-398h112z" />
    <glyph glyph-name="u" unicode="u" horiz-adv-x="576" 
d="M428 68h-4q-18 -31 -67 -54q-47 -21 -93 -21q-93 0 -136 34q-57 46 -57 166v376h145v-376q0 -118 92 -118q52 0 79 21q33 29 33 106v367h80v-563h-67z" />
    <glyph glyph-name="v" unicode="v" horiz-adv-x="536" 
d="M245 0q-59 0 -78 56q-14 46 -162 512h151l116 -416h2l120 416h83l-178 -568h-54z" />
    <glyph glyph-name="w" unicode="w" horiz-adv-x="737" 
d="M567 1q-59 0 -72 59l-91 368h-2l-90 -427h-76q-60 0 -86 78l-144 489h152l97 -451h2l88 418h128q43 0 52 -41q6 -24 81 -376h2l130 450h84l-166 -567h-89z" />
    <glyph glyph-name="x" unicode="x" horiz-adv-x="554" 
d="M374 0l-129 209l-148 -208h-93l198 277l-181 292h165l116 -185l121 185h97l-176 -253l198 -317h-168z" />
    <glyph glyph-name="y" unicode="y" horiz-adv-x="504" 
d="M545 570q-161 -460 -232 -652q-31 -84 -113 -106q-72 -19 -164 12l17 73q49 -21 71 -13q22 7 44 49q15 29 64 147l-217 490h81l170 -387l129 387h150z" />
    <glyph glyph-name="z" unicode="z" horiz-adv-x="512" 
d="M515 64l-9 -64h-400q-58 0 -75 40q-16 38 15 83q129 183 268 377h-275l-5 69h434q30 0 40 -20q9 -21 -9 -45q-161 -218 -332 -440h348z" />
    <glyph glyph-name="braceleft" unicode="{" horiz-adv-x="405" 
d="M321 -127q-82 0 -117 36q-37 37 -37 129l1 206q0 87 -96 89v90q96 1 96 88l-1 207q0 92 37 129q35 35 117 35h71l-10 -62q-45 0 -64 -16q-22 -19 -22 -67q0 -114 -3 -222q-3 -66 -18 -95q-17 -32 -60 -42q44 -10 62 -41q16 -31 16 -96l3 -221q0 -48 22 -67q19 -16 64 -16
l10 -64h-71z" />
    <glyph glyph-name="bar" unicode="|" horiz-adv-x="236" 
d="M177 880v-1000h-105v1000h105z" />
    <glyph glyph-name="braceright" unicode="}" horiz-adv-x="405" 
d="M100 882q82 0 117 -35q37 -38 37 -129l-1 -207q0 -87 96 -89v-90q-96 -1 -96 -88l1 -206q0 -92 -37 -130q-35 -35 -117 -35h-71l10 62q45 0 64 17q22 18 22 67q0 125 4 221q2 67 18 96q16 32 59 41q-43 10 -61 42q-16 30 -16 95q0 38 -2 114t-2 107q0 49 -22 67
q-18 16 -64 16l-10 64h71z" />
    <glyph glyph-name="asciitilde" unicode="~" horiz-adv-x="541" 
d="M523 379q-69 -116 -159 -116q-49 0 -107 58q-59 57 -86 57q-33 0 -82 -92l-75 60q70 117 160 117q49 0 107 -58t85 -58q34 0 81 92z" />
    <glyph glyph-name="currency" unicode="&#xa4;" 
d="M344 195q65 -64 156 -64t155 64q64 65 64 156t-64 155t-155 64t-156 -64q-64 -64 -64 -155t64 -156zM776 544q61 -86 61 -193q0 -104 -58 -189l121 -115l-95 -92l-109 121q-87 -63 -196 -63q-106 0 -194 61l-111 -120l-92 92l118 113q-59 88 -59 192q0 108 62 195
l-121 115l90 90l116 -122q86 59 191 59q106 0 193 -61l109 124l100 -95z" />
    <glyph glyph-name="section" unicode="&#xa7;" 
d="M601 354q-1 61 -175 135q-39 -25 -38 -70q1 -62 174 -135q40 25 39 70zM615 640q-22 108 -90 108q-46 0 -71 -26q-19 -20 -20 -46q0 -74 68 -96q127 -42 178 -116q46 -67 16 -134q-23 -51 -74 -78q41 -33 55 -82q13 -47 -1 -91q-41 -127 -202 -127q-85 0 -151 66
q-33 32 -49 65l99 50q23 -109 90 -109q47 0 72 26q19 20 19 47q2 72 -67 95q-128 42 -178 116q-46 67 -17 134q23 52 74 78q-41 33 -55 83q-13 46 1 91q40 126 203 126q85 0 151 -65q33 -32 49 -65z" />
    <glyph glyph-name="dieresis" unicode="&#xa8;" 
d="M726 571h-149l1 150h148v-150zM420 571h-149l1 150h148v-150z" />
    <glyph glyph-name="degree" unicode="&#xb0;" 
d="M151 764q39 38 94 37q54 -1 91 -40q38 -39 37 -94t-40 -93t-93 -37t-92 40t-37 94q2 55 40 93zM188 618q21 -22 52 -22q31 -1 53 21q21 21 22 52t-21 53q-21 21 -51 22q-31 1 -52 -21q-22 -21 -23 -52t20 -53z" />
    <glyph glyph-name="plusminus" unicode="&#xb1;" 
d="M426 420h-270v82h270v260h144v-260h272v-82h-272v-260h-144v260zM843 108v-82h-686v82h686z" />
    <glyph glyph-name="periodcentered" unicode="&#xb7;" 
d="M569 302h-149l1 150h148v-150z" />
    <glyph glyph-name="multiply" unicode="&#xd7;" 
d="M600 411l197 -198l-102 -102l-197 198l-198 -198l-102 102l198 198l-198 197l102 102l198 -197l197 197l102 -102z" />
    <glyph glyph-name="divide" unicode="&#xf7;" 
d="M420 213h148v-149h-148v149zM837 429v-82h-686v82h686zM420 697h148v-149h-148v149z" />
    <glyph glyph-name="caron" unicode="&#x2c7;" 
d="M498 563q-63 0 -99 33q-55 50 -215 202h168l147 -133l146 133h170l-247 -235h-70z" />
    <glyph glyph-name="uni02C9" unicode="&#x2c9;" 
d="M692 646h-384v74h384v-74z" />
    <glyph glyph-name="uni2005" unicode="&#x2005;" horiz-adv-x="250" 
 />
    <glyph glyph-name="emdash" unicode="&#x2014;" 
d="M966 425v-77h-940v77h940z" />
    <glyph glyph-name="quoteleft" unicode="&#x2018;" 
d="M827 739q-72 -88 -72 -281h-148q0 125 34 202q35 80 121 139z" />
    <glyph glyph-name="quoteright" unicode="&#x2019;" 
d="M162 518q72 88 72 281h148q0 -125 -34 -202q-35 -80 -121 -139z" />
    <glyph glyph-name="quotedblleft" unicode="&#x201c;" 
d="M870 755q-72 -88 -72 -282l-148 1q0 125 34 201q35 80 121 140zM671 755q-73 -88 -73 -282l-148 1q0 125 34 201q36 80 122 140z" />
    <glyph glyph-name="quotedblright" unicode="&#x201d;" 
d="M249 533q72 89 72 282h149q0 -125 -34 -202q-36 -80 -122 -140zM50 533q72 89 72 282h148q0 -126 -34 -202q-35 -80 -122 -140z" />
    <glyph glyph-name="ellipsis" unicode="&#x2026;" 
d="M883 322h-148v150h148v-150zM271 322h-149v150h149v-150zM575 322h-149v150h149v-150z" />
    <glyph glyph-name="perthousand" unicode="&#x2030;" 
d="M395 315q37 55 90 55q59 0 98 -55q37 -53 37 -129q0 -87 -37 -141q-36 -53 -93 -53q-58 0 -95 55q-37 53 -37 134q0 79 37 134zM461 86q12 -32 28 -32q41 0 41 129q0 62 -14 97q-12 30 -29 30q-40 0 -40 -129q0 -58 14 -95zM93 1l438 800l109 -1l-440 -800zM684 315
q37 55 90 55q59 0 97 -55q37 -53 37 -129q0 -87 -37 -141q-36 -53 -92 -53q-58 0 -96 55q-37 54 -37 134q0 79 38 134zM750 86q12 -32 28 -32t27 29q14 35 14 100q0 61 -14 97q-13 30 -29 30q-40 0 -40 -129q0 -58 14 -95zM136 750q37 55 90 55q59 0 97 -56q37 -53 37 -130
q0 -89 -37 -144q-36 -54 -92 -54q-58 0 -96 56q-37 54 -37 136q0 80 38 137zM202 517q12 -33 28 -33t27 30q14 35 14 101q0 63 -14 99q-12 30 -29 30q-40 0 -40 -131q0 -59 14 -96z" />
    <glyph glyph-name="minute" unicode="&#x2032;" 
d="M399 799l-145 -268h-104l101 268h148z" />
    <glyph glyph-name="second" unicode="&#x2033;" 
d="M531 800l-145 -267h-104l101 267h148zM316 800l-145 -267h-104l101 267h148z" />
    <glyph glyph-name="uni2103" unicode="&#x2103;" 
d="M781 540q-17 143 -166 143q-77 0 -131 -87q-53 -87 -53 -214q0 -129 57 -223q55 -90 122 -90q76 0 124 49q49 49 61 139l116 -32q-58 -239 -297 -239q-139 0 -224 104q-89 108 -89 295q0 159 89 268q91 113 233 113q94 0 168 -52q76 -54 93 -138zM149 643q17 -19 41 -19
q28 0 46 18q17 17 17 44q0 29 -18 47q-17 17 -45 17q-24 0 -41 -18t-17 -44q0 -27 17 -45zM109 767q33 33 82 33q52 0 87 -33q35 -34 35 -82q0 -53 -37 -85q-35 -30 -85 -30q-51 0 -84 34q-31 32 -31 81q0 50 33 82z" />
    <glyph glyph-name="uni2109" unicode="&#x2109;" 
d="M341 714q0 50 -52 50q-19 0 -33 -15t-14 -36q0 -22 14 -37t34 -15q51 0 51 53zM364 777q26 -26 26 -67q0 -40 -27 -66q-29 -28 -73 -28q-42 0 -69 28q-26 27 -26 67t27 67t68 27q46 0 74 -28zM569 645v-253h199v-74h-199v-316h-160v717h410v-74h-250z" />
    <glyph glyph-name="uni2116" unicode="&#x2116;" 
d="M709 357q0 -63 15 -103q13 -35 30 -35q44 0 44 139q0 68 -15 106q-13 32 -31 32q-43 0 -43 -139zM652 211q-40 58 -40 146q0 86 41 146q40 59 97 59q64 0 105 -60q40 -57 40 -140q0 -95 -40 -153q-39 -58 -99 -58q-63 0 -104 60zM465 749h89v-749h-89q-39 0 -58 20
q-12 12 -27 50l-179 457v-527h-89v749h90q34 0 49 -18q9 -10 25 -50q10 -24 189 -489v557zM896 97v-74h-289v74h289z" />
    <glyph glyph-name="uni2160" unicode="&#x2160;" 
d="M584 760v-760h-171v760h171z" />
    <glyph glyph-name="uni2161" unicode="&#x2161;" 
d="M746 760v-760h-171v760h171zM413 760v-760h-171v760h171z" />
    <glyph glyph-name="uni2162" unicode="&#x2162;" 
d="M917 760v-760h-170v760h170zM584 760v-760h-171v760h171zM250 760v-760h-170v760h170z" />
    <glyph glyph-name="uni2163" unicode="&#x2163;" 
d="M513 760l109 -478q17 -74 28 -117h5q12 44 28 117l117 478h123l-213 -760h-103q-47 0 -71 23q-21 19 -34 67q-14 48 -187 670h198zM242 760v-760h-171v760h171z" />
    <glyph glyph-name="uni2164" unicode="&#x2164;" 
d="M372 760l83 -362q9 -35 27 -116q17 -74 28 -117h4q12 44 28 117l28 116l91 362h126l-212 -760h-112q-48 0 -68 17q-16 14 -28 52l-193 691h198z" />
    <glyph glyph-name="uni2165" unicode="&#x2165;" 
d="M907 760v-760h-171v760h171zM243 760l83 -362q9 -35 27 -116q17 -74 28 -117h4q12 44 28 117l28 116l91 362h126l-212 -760h-93q-58 0 -84 24q-18 17 -31 65q-16 55 -188 671h193z" />
    <glyph glyph-name="uni2166" unicode="&#x2166;" 
d="M938 760v-760h-170v760h170zM709 760v-760h-170v760h170zM225 760l39 -362q20 -156 32 -233h5q23 129 33 233l52 362h121l-136 -760h-114q-61 0 -83 20q-16 14 -25 62l-122 678h198z" />
    <glyph glyph-name="uni2167" unicode="&#x2167;" 
d="M937 760v-760h-132v760h132zM767 760v-760h-133v760h133zM596 760v-760h-132v760h132zM203 760l35 -347l26 -242h5q22 182 27 242l40 347h102l-107 -760h-98q-69 0 -80 68l-116 692h166z" />
    <glyph glyph-name="uni2168" unicode="&#x2168;" 
d="M117 760h156v-760h-156v760zM777 2l-137 274l-151 -275h-152l223 386l-208 373h193l133 -253l128 253h152l-204 -364l219 -394h-196z" />
    <glyph glyph-name="uni2169" unicode="&#x2169;" 
d="M622 2l-137 273l-150 -274h-152l223 385l-208 374h193l133 -252l128 252h152l-204 -364l219 -394h-197z" />
    <glyph glyph-name="uni216A" unicode="&#x216a;" 
d="M477 396l220 -394h-197l-137 274l-150 -275h-153l223 386l-208 373h194l132 -253l128 253h152zM902 760v-760h-171v760h171z" />
    <glyph glyph-name="uni216B" unicode="&#x216b;" 
d="M361 405l173 -404h-152l-115 297l-114 -297h-113l169 400l-154 359h149l103 -255l103 255h104zM565 760h152v-760h-152v760zM937 760v-760h-152v760h152z" />
    <glyph glyph-name="uni2170" unicode="&#x2170;" 
d="M578 602h-166v160h166v-160zM578 568v-568h-166v568h166z" />
    <glyph glyph-name="uni2171" unicode="&#x2171;" 
d="M736 602h-166v160h166v-160zM436 602h-166l1 160h165v-160zM736 568v-568h-167v568h167zM436 568v-568h-166v568h166z" />
    <glyph glyph-name="uni2172" unicode="&#x2172;" 
d="M883 602h-166v160h166v-160zM583 602h-166l1 160h165v-160zM284 602h-166v160h166v-160zM883 568v-568h-167v568h167zM583 568v-568h-166v568h166zM284 568v-568h-167v568h167z" />
    <glyph glyph-name="uni2173" unicode="&#x2173;" 
d="M605 -3q-46 0 -59 38l-175 534h183l116 -390h2l116 390h105l-186 -572h-102zM291 602h-166v160h166v-160zM291 568v-568h-166v568h166z" />
    <glyph glyph-name="uni2174" unicode="&#x2174;" 
d="M469 -3q-45 0 -58 38l-176 534h184l116 -390h2l116 390h105l-186 -572h-103z" />
    <glyph glyph-name="uni2175" unicode="&#x2175;" 
d="M359 -3q-45 0 -58 38l-176 534h184l116 -390h2l116 390h105l-186 -572h-103zM861 568v-568h-166v568h166zM861 602h-166v160h166v-160z" />
    <glyph glyph-name="uni2176" unicode="&#x2176;" 
d="M24 569h173l109 -390h2l110 390h99l-176 -572h-96q-44 0 -56 40zM933 602h-166l1 160h165v-160zM707 602h-165v160h165v-160zM933 568v-568h-166v568h166zM708 568v-568h-166v568h166z" />
    <glyph glyph-name="uni2177" unicode="&#x2177;" 
d="M919 569v-569h-130v569h130zM750 569v-569h-129v569h129zM582 569v-569h-129v569h129zM234 0q-42 0 -55 44q-6 25 -144 526h146l94 -388h2l80 388h89l-126 -570h-86zM919 602h-129v160h129v-160zM750 602h-129l1 160h128v-160zM581 602h-128v160h128v-160z" />
    <glyph glyph-name="uni2178" unicode="&#x2178;" 
d="M116 569h166v-569h-166v569zM116 762h166v-160h-166v160zM686 1l-129 214l-128 -214h-122l191 288l-191 281h173l122 -193l118 193h127l-184 -272l199 -297h-176z" />
    <glyph glyph-name="uni2179" unicode="&#x2179;" 
d="M608 1l-129 215l-129 -215h-121l190 288l-190 281h172l123 -193l117 193h127l-184 -272l199 -297h-175z" />
    <glyph glyph-name="infinity" unicode="&#x221e;" 
d="M752 583q80 0 140 -55q65 -60 65 -154t-65 -152q-60 -54 -140 -54q-139 0 -256 115q-115 -115 -256 -115q-80 0 -140 54q-65 58 -65 152t65 154q60 55 140 55q140 0 256 -114q118 114 256 114zM143 317q42 -28 89 -28q102 0 205 107q-65 66 -84 81q-58 45 -116 45
q-59 0 -101 -33q-44 -34 -44 -85q0 -54 51 -87zM755 239q64 0 105 35q37 32 37 74q0 48 -40 79q-41 30 -107 30q-100 0 -206 -108q108 -110 211 -110z" />
    <glyph glyph-name="therefore" unicode="&#x2234;" 
d="M427 669h149v-149h-149v149zM694 204h148v-150h-148v150zM163 204h149v-150h-149v150z" />
    <glyph glyph-name="uni2235" unicode="&#x2235;" 
d="M428 204h148v-150h-149zM691 669h149v-149h-149v149zM161 669h149v-149h-149v149z" />
    <glyph glyph-name="uni2236" unicode="&#x2236;" 
d="M425 203h148v-149h-148v149zM425 687h148v-149h-148v149z" />
    <glyph glyph-name="uni2460" unicode="&#x2460;" 
d="M551 713q46 0 46 -44v-644h-145v581q-67 -48 -199 -72l-12 75q148 29 211 104h99zM796 84q123 123 123 296t-123 296t-297 123q-173 0 -296 -123q-122 -123 -122 -296t123 -296t296 -123t296 123zM825 705q135 -135 135 -325t-135 -325q-134 -135 -325 -135
q-190 0 -325 135t-135 325q0 191 134 325q135 135 325 135q191 0 326 -135z" />
    <glyph glyph-name="uni2461" unicode="&#x2461;" 
d="M254 526q12 90 72 144q64 59 167 60q120 2 189 -53t62 -149q-6 -87 -84 -160q-21 -19 -134 -98q-118 -84 -142 -160h364l-10 -71h-440q-78 0 -50 84q45 108 201 226q101 79 92 70q55 51 60 108q6 58 -22 93q-30 38 -88 36q-48 -1 -82 -43q-34 -40 -45 -107zM796 84
q123 123 123 296t-123 296t-297 123q-173 0 -296 -123q-122 -123 -122 -296t123 -296t296 -123t296 123zM825 705q135 -135 135 -325t-135 -325q-134 -135 -325 -135q-190 0 -325 135t-135 325q0 191 134 325q135 135 325 135q191 0 326 -135z" />
    <glyph glyph-name="uni2462" unicode="&#x2462;" 
d="M606 385q66 -13 107 -53q43 -43 43 -105q0 -92 -72 -149q-74 -58 -195 -58q-185 0 -252 141l101 26q48 -85 139 -85q54 0 90 30q35 30 37 76q5 135 -188 135q-48 0 -51 37q-2 37 39 38q101 1 141 34q32 27 33 88q2 104 -106 104q-91 0 -120 -89l-96 40q23 54 81 87
q61 36 141 36q110 0 177 -50t67 -129q0 -117 -116 -152v-2zM796 84q123 123 123 296t-123 296t-297 123q-173 0 -296 -123q-122 -123 -122 -296t123 -296t296 -123t296 123zM825 705q135 -135 135 -325t-135 -325q-134 -135 -325 -135q-190 0 -325 135t-135 325
q0 191 134 325q135 135 325 135q191 0 326 -135z" />
    <glyph glyph-name="uni2463" unicode="&#x2463;" 
d="M495 246v297q-81 -118 -188 -292l2 -5h186zM634 246h95l-10 -72h-85v-150h-139v150l-252 -1q-38 0 -47 33q-9 30 10 60q272 426 289 447h93q46 0 46 -54v-413zM796 84q123 123 123 296t-123 296t-297 123q-173 0 -296 -123q-122 -123 -122 -296t123 -296t296 -123
t296 123zM825 705q135 -135 135 -325t-135 -325q-134 -135 -325 -135q-190 0 -325 135t-135 325q0 191 134 325q135 135 325 135q191 0 326 -135z" />
    <glyph glyph-name="uni2464" unicode="&#x2464;" 
d="M397 453q75 35 136 30q92 -6 157 -66q70 -65 70 -162q0 -111 -76 -176q-73 -63 -193 -63q-185 0 -257 151l88 38q31 -65 65 -87q35 -23 102 -23q131 0 131 160q-1 61 -33 104q-37 48 -100 48q-80 0 -126 -62q-16 -26 -55 -17q-39 10 -37 49q3 26 30 336h417l-10 -72h-296
l-15 -186zM796 84q123 123 123 296t-123 296t-297 123q-173 0 -296 -123q-122 -123 -122 -296t123 -296t296 -123t296 123zM825 705q135 -135 135 -325t-135 -325q-134 -135 -325 -135q-190 0 -325 135t-135 325q0 191 134 325q135 135 325 135q191 0 326 -135z" />
    <glyph glyph-name="uni2465" unicode="&#x2465;" 
d="M576 132q32 44 32 117q0 58 -31 100q-32 43 -78 43q-49 0 -82 -43q-32 -42 -32 -100q0 -74 31 -117t82 -43q47 0 78 43zM377 408q53 69 157 64q98 -5 156 -58q59 -56 59 -152q0 -118 -66 -183q-64 -63 -180 -63q-268 0 -268 319q0 176 62 274q69 110 209 110
q197 0 240 -157l-104 -21q-31 96 -127 96q-140 0 -140 -227zM796 84q123 123 123 296t-123 296t-297 123q-173 0 -296 -123q-122 -123 -122 -296t123 -296t296 -123t296 123zM825 705q135 -135 135 -325t-135 -325q-134 -135 -325 -135q-190 0 -325 135t-135 325
q0 191 134 325q135 135 325 135q191 0 326 -135z" />
    <glyph glyph-name="uni2466" unicode="&#x2466;" 
d="M695 699q37 0 51 -28q13 -29 -13 -56q-65 -77 -124 -223q-79 -193 -79 -377h-145q33 395 223 612h-355l-10 72h452zM796 84q123 123 123 296t-123 296t-297 123q-173 0 -296 -123q-122 -123 -122 -296t123 -296t296 -123t296 123zM825 705q135 -135 135 -325t-135 -325
q-134 -135 -325 -135q-190 0 -325 135t-135 325q0 191 134 325q135 135 325 135q191 0 326 -135z" />
    <glyph glyph-name="uni2467" unicode="&#x2467;" 
d="M592 113q34 39 34 104q0 55 -44 93q-42 37 -107 44q-42 -7 -72 -50q-30 -41 -30 -87q0 -68 33 -106t93 -38q59 0 93 40zM411 644q-26 -30 -26 -78q0 -83 122 -117q47 16 74 51q26 32 26 66q0 110 -113 110q-54 0 -83 -32zM637 400q62 -20 98 -71q36 -50 36 -112
q0 -105 -77 -165q-73 -57 -195 -57q-123 0 -197 62q-72 61 -72 160q0 60 38 112q39 52 97 71v2q-105 45 -105 158q0 84 64 136q66 53 175 53q110 0 178 -55q64 -53 64 -134q0 -120 -104 -158v-2zM796 84q123 123 123 296t-123 296t-297 123q-173 0 -296 -123
q-122 -123 -122 -296t123 -296t296 -123t296 123zM825 705q135 -135 135 -325t-135 -325q-134 -135 -325 -135q-190 0 -325 135t-135 325q0 191 134 325q135 135 325 135q191 0 326 -135z" />
    <glyph glyph-name="uni2468" unicode="&#x2468;" 
d="M578 390q31 44 31 107q0 78 -31 124t-82 46q-47 0 -77 -45q-33 -48 -33 -125q0 -63 31 -107q32 -46 79 -46q49 0 82 46zM618 328q-53 -74 -157 -69q-99 5 -155 60q-60 58 -60 164q0 122 65 192q66 71 181 71q267 0 267 -341q0 -187 -62 -292q-69 -118 -209 -118
q-105 0 -162 46q-47 37 -78 121l104 23q33 -102 128 -102q140 0 140 242zM796 84q123 123 123 296t-123 296t-297 123q-173 0 -296 -123q-122 -123 -122 -296t123 -296t296 -123t296 123zM825 705q135 -135 135 -325t-135 -325q-134 -135 -325 -135q-190 0 -325 135
t-135 325q0 191 134 325q135 135 325 135q191 0 326 -135z" />
    <glyph glyph-name="uni2469" unicode="&#x2469;" 
d="M613 639q-34 0 -54 -78q-19 -75 -20 -197q-2 -278 68 -278q71 0 73 278q2 275 -67 275zM759 634q56 -91 55 -270q-1 -178 -59 -271q-54 -87 -147 -87q-95 0 -146 86q-54 92 -53 272q1 179 59 270q53 84 145 84q94 0 146 -84zM302 11q92 -50 198 -50q173 0 296 123
t123 296t-123 296t-297 123q-173 0 -296 -123q-122 -123 -122 -296q0 -212 172 -338l2 306q1 228 2 254q-30 -30 -71 -38l-11 75q43 18 83 72h82q46 0 46 -44l-5 -656h-79zM825 705q135 -135 135 -325t-135 -325q-134 -135 -325 -135q-190 0 -325 135t-135 325
q0 191 134 325q135 135 325 135q191 0 326 -135z" />
    <glyph glyph-name="uni2474" unicode="&#x2474;" 
d="M446 642q-70 -55 -199 -80l-12 83q150 33 211 115h99q46 0 46 -49v-710h-145v641zM723 -44q143 172 143 425q0 244 -145 425l53 36q187 -203 187 -461q0 -265 -187 -460zM222 -79q-187 203 -187 460q0 266 187 461l51 -36q-142 -171 -142 -425q0 -243 144 -425z" />
    <glyph glyph-name="uni2475" unicode="&#x2475;" 
d="M255 537q12 98 72 159q64 65 167 66q120 2 189 -59t62 -164q-6 -96 -84 -176q-19 -20 -134 -109q-117 -93 -142 -176h364l-10 -78h-440q-78 0 -50 92q44 119 201 250l92 77q55 56 60 118q6 64 -22 103q-30 42 -88 40q-48 -1 -82 -47q-34 -44 -45 -118zM723 -44
q143 172 143 425q0 244 -145 425l53 36q187 -203 187 -461q0 -265 -187 -460zM222 -79q-187 203 -187 460q0 266 187 461l51 -36q-142 -171 -142 -425q0 -243 144 -425z" />
    <glyph glyph-name="uni2476" unicode="&#x2476;" 
d="M339 180q48 -94 139 -94q54 0 90 33q35 33 37 83q5 149 -188 149q-48 0 -51 41q-2 41 39 42q101 2 141 39q32 30 33 96q2 114 -106 114q-91 0 -120 -98l-96 44q23 60 81 97q61 39 141 39q110 0 177 -55t67 -143q0 -129 -116 -166v-3q65 -13 107 -59q43 -48 43 -116
q0 -101 -72 -164q-74 -64 -195 -64q-185 0 -252 156zM723 -44q143 172 143 425q0 244 -145 425l53 36q187 -203 187 -461q0 -265 -187 -460zM222 -79q-187 203 -187 460q0 266 187 461l51 -36q-142 -171 -142 -425q0 -243 144 -425z" />
    <glyph glyph-name="uni2477" unicode="&#x2477;" 
d="M273 806q-142 -171 -142 -425q0 -243 144 -425l-53 -35q-187 203 -187 460q0 266 187 461zM513 245v327q-59 -95 -188 -321l2 -6h186zM737 165h-85v-165h-139v165h-252q-38 0 -47 36q-9 33 10 66q259 451 289 492h93q46 0 46 -59v-455h95zM774 842q187 -203 187 -461
q0 -265 -187 -460l-51 35q143 172 143 425q0 244 -145 425z" />
    <glyph glyph-name="uni2478" unicode="&#x2478;" 
d="M398 475l2 -2q75 38 136 33q92 -7 157 -73q70 -72 70 -179q0 -122 -76 -193q-73 -70 -193 -70q-184 0 -257 166l88 43q31 -71 65 -97q35 -25 102 -25q131 0 131 176q-1 68 -33 115q-37 53 -100 53q-81 0 -126 -69q-16 -28 -55 -18q-39 11 -37 54q3 29 30 370h417l-10 -79
h-296zM723 -44q143 172 143 425q0 244 -145 425l53 36q187 -203 187 -461q0 -265 -187 -460zM222 -79q-187 203 -187 460q0 266 187 461l51 -36q-142 -171 -142 -425q0 -243 144 -425z" />
    <glyph glyph-name="uni2479" unicode="&#x2479;" 
d="M580 119q32 49 32 129q0 64 -31 111q-32 47 -78 47q-49 0 -82 -48q-32 -46 -32 -111q0 -80 31 -128q31 -47 82 -47q47 0 78 47zM381 423q52 76 157 71q98 -5 156 -64q59 -62 59 -167q0 -131 -66 -202q-64 -70 -180 -70q-268 0 -268 352q0 193 62 302q69 121 209 121
q197 0 240 -173l-104 -23q-31 106 -127 106q-140 0 -140 -251zM723 -44q143 172 143 425q0 244 -145 425l53 36q187 -203 187 -461q0 -265 -187 -460zM222 -79q-187 203 -187 460q0 266 187 461l51 -36q-142 -171 -142 -425q0 -243 144 -425z" />
    <glyph glyph-name="uni247A" unicode="&#x247a;" 
d="M391 1q33 436 223 675h-355l-10 79h452q37 0 51 -31q13 -32 -13 -62q-65 -84 -124 -245q-79 -213 -79 -416h-145zM723 -44q143 172 143 425q0 244 -145 425l53 36q187 -203 187 -461q0 -265 -187 -460zM222 -79q-187 203 -187 460q0 266 187 461l51 -36
q-142 -171 -142 -425q0 -243 144 -425z" />
    <glyph glyph-name="uni247B" unicode="&#x247b;" 
d="M494 695q-53 0 -83 -34q-26 -31 -26 -80q0 -87 122 -121q47 17 74 52q26 33 26 69q0 114 -113 114zM582 316q-42 38 -107 46q-42 -8 -72 -52q-30 -42 -30 -89q0 -149 126 -149q59 0 93 41t34 108q0 56 -44 95zM365 412q-105 45 -105 163q0 87 64 140q66 55 175 55
q110 0 178 -57q64 -55 64 -138q0 -125 -104 -163v-2q61 -21 98 -73q36 -52 36 -116q0 -108 -77 -170q-73 -60 -195 -60q-123 0 -197 64q-72 63 -72 166q0 61 38 115q39 54 97 74v2zM723 -44q143 172 143 425q0 244 -145 425l53 36q187 -203 187 -461q0 -265 -187 -460z
M222 -79q-187 203 -187 460q0 266 187 461l51 -36q-142 -171 -142 -425q0 -243 144 -425z" />
    <glyph glyph-name="uni247C" unicode="&#x247c;" 
d="M419 638q-33 -49 -33 -129q0 -64 31 -110q32 -47 79 -47q49 0 82 47q31 46 31 111q0 80 -31 128q-31 47 -82 47q-47 0 -77 -47zM618 334q-54 -76 -157 -71q-99 5 -155 62q-60 61 -60 170q0 126 65 198q66 73 181 73q267 0 267 -352q0 -193 -62 -301q-69 -122 -209 -122
q-105 0 -162 48q-47 38 -78 125l104 23q33 -105 128 -105q140 0 140 250zM723 -44q143 172 143 425q0 244 -145 425l53 36q187 -203 187 -461q0 -265 -187 -460zM222 -79q-187 203 -187 460q0 266 187 461l51 -36q-142 -171 -142 -425q0 -243 144 -425z" />
    <glyph glyph-name="uni247D" unicode="&#x247d;" 
d="M335 760q46 0 46 -49v-710h-128v641q-29 -33 -71 -42l-11 76q-63 -140 -63 -295q0 -243 144 -425l-53 -35q-187 203 -187 460q0 266 187 461l51 -36q-44 -53 -76 -122q41 19 79 76h82zM688 380q0 298 -69 298q-34 0 -53 -85q-19 -82 -19 -213q0 -302 70 -302q71 0 71 302
zM765 672q57 -99 57 -292t-57 -295q-53 -94 -146 -94q-95 0 -146 94q-55 99 -55 295q0 194 57 292q52 90 144 90q93 0 146 -90zM798 842q187 -203 187 -461q0 -265 -187 -460l-51 35q143 172 143 425q0 243 -144 425z" />
    <glyph glyph-name="uni247E" unicode="&#x247e;" 
d="M747 -44q143 172 143 425q0 243 -144 425l52 36q187 -203 187 -461q0 -265 -187 -460zM199 -79q-187 203 -187 460q0 266 187 461l51 -36q-142 -171 -142 -425q0 -243 144 -425zM626 642q-29 -33 -71 -42l-11 82q44 19 82 78h82q46 0 46 -49v-710h-128v641zM298 642
q-29 -33 -71 -42l-11 82q42 18 82 78h82q46 0 46 -49v-710h-128v641z" />
    <glyph glyph-name="uni247F" unicode="&#x247f;" 
d="M325 760q46 0 46 -49v-710h-128v641q-29 -33 -71 -42l-9 59q-55 -134 -55 -278q0 -243 144 -425l-53 -35q-187 203 -187 460q0 266 187 461l51 -36q-38 -44 -73 -115q32 18 66 69h82zM798 842q187 -203 187 -461q0 -265 -187 -460l-51 35q21 26 35 48h-346q-66 0 -43 92
q39 119 173 250q121 115 132 195q8 62 -17 103q-27 42 -78 40q-84 -3 -104 -165l-101 22q10 98 62 159q55 65 144 66q104 2 163 -59t54 -164q-6 -96 -73 -176q-18 -22 -115 -109q-102 -92 -122 -176h284l-8 -71q103 166 103 370q0 243 -144 425z" />
    <glyph glyph-name="uni2480" unicode="&#x2480;" 
d="M704 398q59 -13 97 -59q40 -48 40 -116q0 -101 -66 -164q-67 -64 -177 -64q-168 0 -229 151v-145h-128v641q-29 -33 -71 -42l-8 55q-54 -133 -54 -274q0 -243 144 -425l-53 -35q-187 203 -187 460q0 266 187 461l51 -36q-39 -47 -72 -114q28 16 63 68h82q46 0 46 -49
v-559l91 28q44 -94 127 -94q49 0 82 33t34 83q3 149 -172 149q-44 0 -46 41q-3 41 34 42q93 2 129 39q30 30 31 96q2 114 -97 114q-83 0 -110 -98l-88 44q22 60 75 97q55 39 128 39q100 0 162 -55q61 -55 61 -143q0 -130 -106 -166v-3zM798 842q187 -203 187 -461
q0 -265 -187 -460l-51 35q143 172 143 425q0 243 -144 425z" />
    <glyph glyph-name="uni2481" unicode="&#x2481;" 
d="M323 760q46 0 46 -49v-710h-128v641q-29 -33 -71 -42l-8 55q-54 -133 -54 -274q0 -243 144 -425l-53 -35q-187 203 -187 460q0 266 187 461l51 -36q-39 -47 -72 -114q28 16 63 68h82zM629 245v296q-31 -63 -83 -165l-63 -125l2 -6h144zM629 0v165h-213q-34 0 -42 36
q-8 33 9 66l246 492h83q41 0 41 -59v-455h92l-9 -80h-83v-165h-124zM798 842q187 -203 187 -461q0 -265 -187 -460l-51 35q143 172 143 425q0 243 -144 425z" />
    <glyph glyph-name="uni2482" unicode="&#x2482;" 
d="M323 760q46 0 46 -49v-710h-128v641q-29 -33 -71 -42l-8 55q-54 -133 -54 -274q0 -243 144 -425l-53 -35q-187 203 -187 460q0 266 187 461l51 -36q-39 -47 -72 -114q28 16 63 68h82zM798 842q187 -203 187 -461q0 -265 -187 -460l-51 35q143 172 143 425q0 184 -94 350
l-6 -51h-256l-13 -205l1 -2q66 37 114 33q82 -7 140 -73q62 -72 62 -179q0 -121 -67 -191q-66 -67 -173 -67q-158 0 -229 161l83 43q52 -120 148 -117q113 3 113 171q-1 68 -29 115q-33 53 -89 53q-73 0 -113 -69q-15 -28 -49 -18q-35 11 -33 54l27 370h352q-13 22 -33 47z
" />
    <glyph glyph-name="uni2483" unicode="&#x2483;" 
d="M322 760q46 0 46 -49v-710h-128v641q-29 -33 -71 -42l-8 53q-53 -129 -53 -272q0 -243 144 -425l-53 -35q-187 203 -187 460q0 266 187 461l51 -36q-41 -50 -71 -113q27 17 61 67h82zM688 119q28 49 28 129q0 64 -27 111q-28 47 -68 47q-43 0 -72 -48q-28 -46 -28 -111
q0 -80 27 -128q27 -47 72 -47q41 0 68 47zM514 423q47 76 137 71q86 -5 136 -64q52 -62 52 -167q0 -131 -57 -202q-57 -70 -158 -70q-234 0 -234 352q0 193 54 302q61 121 183 121q89 0 141 -52q37 -37 69 -121l-91 -23q-37 106 -112 106q-122 0 -122 -251zM798 842
q187 -203 187 -461q0 -265 -187 -460l-51 35q143 172 143 425q0 243 -144 425z" />
    <glyph glyph-name="uni2484" unicode="&#x2484;" 
d="M332 760q46 0 46 -49v-710h-128v641q-29 -33 -71 -42l-10 71q-61 -138 -61 -290q0 -243 144 -425l-53 -35q-187 203 -187 460q0 266 187 461l51 -36q-43 -52 -75 -120q38 18 75 74h82zM744 755q30 0 40 -31q11 -32 -10 -62q-47 -77 -90 -245q-54 -211 -54 -416h-132
q28 456 166 675h-266l-8 79h354zM798 842q187 -203 187 -461q0 -265 -187 -460l-51 35q143 172 143 425q0 243 -144 425z" />
    <glyph glyph-name="uni2485" unicode="&#x2485;" 
d="M320 760q46 0 46 -49v-710h-128v641q-29 -33 -71 -42l-7 50q-52 -131 -52 -269q0 -243 144 -425l-53 -35q-187 203 -187 460q0 266 187 461l51 -36q-40 -47 -71 -111q25 15 59 65h82zM689 113q29 41 29 108q0 56 -37 95q-36 38 -93 46q-36 -8 -62 -52q-26 -42 -26 -89
q0 -149 109 -149q50 0 80 41zM533 661q-23 -31 -23 -80q0 -87 106 -121q85 36 85 121q0 114 -96 114q-46 0 -72 -34zM728 410q53 -21 84 -73t31 -116q0 -108 -66 -170q-63 -60 -168 -60q-107 0 -170 64q-62 63 -62 166q0 61 33 115q32 54 83 74v2q-91 45 -91 163
q0 87 56 140q57 55 151 55q95 0 153 -57q56 -55 56 -138q0 -124 -90 -163v-2zM798 842q187 -203 187 -461q0 -265 -187 -460l-51 35q143 172 143 425q0 243 -144 425z" />
    <glyph glyph-name="uni2486" unicode="&#x2486;" 
d="M317 760q46 0 46 -49v-710h-128v641q-29 -33 -71 -42l-6 44q-50 -127 -50 -263q0 -243 144 -425l-53 -35q-187 203 -187 460q0 266 187 461l51 -36q-39 -48 -69 -108q19 13 54 62h82zM680 399q29 46 29 111q0 80 -29 129q-28 47 -74 47q-42 0 -70 -47q-29 -49 -29 -129
q0 -65 28 -111q29 -47 71 -47q45 0 74 47zM716 335q-46 -77 -142 -71q-88 5 -140 64q-54 61 -54 167q0 131 59 202q58 70 163 70q243 0 243 -352q0 -193 -56 -302q-63 -122 -190 -122q-179 0 -217 173l94 23q30 -105 116 -105q126 0 126 251zM798 842q187 -203 187 -461
q0 -265 -187 -460l-51 35q143 172 143 425q0 243 -144 425z" />
    <glyph glyph-name="uni2487" unicode="&#x2487;" 
d="M199 -79q-187 203 -187 460q0 266 187 461l51 -36q-142 -171 -142 -425q0 -243 144 -425zM747 -44q143 172 143 425q0 243 -144 425l52 36q187 -203 187 -461q0 -265 -187 -460zM681 678q-21 0 -36 -85q-16 -87 -16 -213q0 -302 50 -302q22 0 37 86t15 216q0 298 -50 298
zM797 85q-42 -94 -116 -94q-160 0 -160 389q0 193 45 292q41 90 115 90t116 -90q45 -98 45 -292t-45 -295zM207 547q13 100 53 160q42 63 105 65q79 2 119 -59q40 -59 35 -164q-7 -140 -132 -285q-79 -93 -94 -173h233l-7 -78h-283q-51 0 -33 92q29 115 133 247
q82 102 88 195q3 63 -11 102q-16 41 -48 41q-62 0 -85 -165z" />
    <glyph glyph-name="uni2488" unicode="&#x2488;" 
d="M351 642q-70 -55 -199 -80l-12 83q151 33 211 115h99q46 0 46 -49v-710h-145v641zM789 3h-109v91h109v-91z" />
    <glyph glyph-name="uni2489" unicode="&#x2489;" 
d="M149 537q12 98 72 159q64 65 167 66q120 2 189 -59t62 -164q-6 -96 -84 -176q-19 -20 -134 -109q-117 -91 -142 -176h364l-10 -78h-440q-78 0 -50 92q44 119 201 250l92 77q55 56 60 118q6 64 -22 103q-30 42 -88 40q-48 -1 -82 -47q-34 -44 -45 -118zM789 3h-109v91h109
v-91z" />
    <glyph glyph-name="uni248A" unicode="&#x248a;" 
d="M227 180q48 -94 139 -94q54 0 90 33q35 33 37 83q5 149 -188 149q-48 0 -51 41t38 42q101 2 141 39q33 30 34 96q2 114 -106 114q-91 0 -120 -98l-96 44q23 60 81 97q61 39 141 39q110 0 177 -55q66 -55 66 -143q0 -130 -116 -166v-3q66 -13 107 -59q44 -48 44 -116
q0 -101 -73 -164q-74 -64 -194 -64q-186 0 -252 156zM789 3h-109v91h109v-91z" />
    <glyph glyph-name="uni248B" unicode="&#x248b;" 
d="M414 245v327q-59 -95 -188 -321l2 -6h186zM553 245h95l-10 -80h-85v-165h-139v165h-252q-38 0 -47 36q-9 33 10 66q260 453 289 492h93q46 0 46 -59v-455zM789 94v-91h-109v91h109z" />
    <glyph glyph-name="uni248C" unicode="&#x248c;" 
d="M294 475l2 -2q75 38 136 33q92 -7 157 -73q70 -72 70 -179q0 -122 -76 -193q-73 -70 -193 -70q-184 0 -257 166l88 43q31 -71 65 -97q34 -25 101 -25q133 0 131 176q0 68 -32 115q-37 53 -100 53q-81 0 -126 -69q-16 -28 -55 -18q-39 11 -37 54q3 29 30 370h417l-10 -79
h-296zM789 3h-109v91h109v-91z" />
    <glyph glyph-name="uni248D" unicode="&#x248d;" 
d="M475 119q32 49 32 129q0 64 -31 111q-32 47 -78 47q-50 0 -82 -48q-32 -45 -32 -111q0 -80 31 -128q31 -47 82 -47q47 0 78 47zM275 423q54 76 157 71q98 -5 156 -64q60 -62 60 -167q0 -131 -66 -202q-64 -70 -180 -70q-268 0 -268 352q0 193 62 302q69 121 209 121
q197 0 240 -173l-104 -23q-31 106 -128 106q-140 0 -140 -251zM789 3h-109v91h109v-91z" />
    <glyph glyph-name="uni248E" unicode="&#x248e;" 
d="M284 1q33 435 222 675h-354l-10 79h452q36 0 50 -31q13 -32 -12 -62q-65 -83 -125 -245q-78 -213 -78 -416h-145zM789 3h-109v91h109v-91z" />
    <glyph glyph-name="uni248F" unicode="&#x248f;" 
d="M375 695q-53 0 -83 -34q-26 -31 -26 -80q0 -87 122 -121q47 16 74 52q25 33 25 69q0 114 -112 114zM463 316q-42 38 -107 46q-42 -8 -73 -52q-30 -42 -30 -89q0 -71 34 -110q33 -39 93 -39q59 0 93 41q33 40 33 108q0 56 -43 95zM246 412q-105 45 -105 163q0 87 64 140
q66 55 175 55q110 0 178 -57q64 -55 64 -138q0 -125 -104 -163v-2q61 -21 98 -73q36 -52 36 -116q0 -108 -77 -170q-74 -60 -195 -60q-124 0 -197 64q-72 63 -72 166q0 61 38 115q39 54 97 74v2zM789 3h-109v91h109v-91z" />
    <glyph glyph-name="uni2490" unicode="&#x2490;" 
d="M300 638q-33 -49 -33 -129q0 -64 31 -110q32 -47 78 -47q50 0 83 47q31 46 31 111q0 80 -31 128q-31 47 -82 47q-47 0 -77 -47zM499 334q-54 -76 -157 -71q-98 5 -156 65q-60 61 -60 167q0 131 66 202q64 69 180 69q268 0 268 -352q0 -193 -62 -301q-69 -122 -209 -122
q-197 0 -240 173l104 23q31 -105 127 -105q141 0 141 250zM789 3h-109v91h109v-91z" />
    <glyph glyph-name="uni2491" unicode="&#x2491;" 
d="M165 642q-42 -39 -128 -59l-12 83q86 25 140 94h99q47 0 47 -49v-710h-146v641zM705 595q-32 86 -79 86q-51 0 -82 -85q-29 -83 -29 -215q0 -131 32 -217q31 -86 79 -86t79 86t31 217q0 128 -31 214zM810 83q-67 -92 -184 -92q-111 0 -179 94q-75 103 -75 296
q0 191 77 294q68 91 177 91q111 0 180 -91q77 -102 77 -294q0 -197 -73 -298zM950 3h-98v91h98v-91z" />
    <glyph glyph-name="uni2492" unicode="&#x2492;" 
d="M595 642q-44 -39 -129 -59l-12 83q85 24 141 94h99q46 0 46 -49v-710h-145v641zM170 642q-42 -39 -128 -59l-12 83q86 25 140 94h99q47 0 47 -49v-710h-146v641zM950 3h-98v91h98v-91z" />
    <glyph glyph-name="uni2493" unicode="&#x2493;" 
d="M351 537q17 100 74 158q63 66 165 67q121 1 189 -59q67 -60 62 -164q-4 -100 -83 -179q-7 -8 -134 -106q-119 -92 -142 -176h333l-10 -78h-410q-77 0 -49 92q45 120 200 250q87 72 92 77q55 56 60 118q6 64 -22 103q-30 42 -88 40q-48 -1 -82 -47q-33 -45 -44 -118z
M150 642q-42 -39 -128 -59l-12 83q86 25 140 94h99q47 0 47 -49v-710h-146v641zM950 3h-98v91h98v-91z" />
    <glyph glyph-name="uni2494" unicode="&#x2494;" 
d="M430 180q47 -94 139 -94q53 0 89 33t37 83q5 152 -188 149q-47 0 -50 41t38 42q101 2 141 39q32 30 33 96q1 52 -28 83q-28 31 -78 31q-84 0 -120 -98l-96 44q23 60 81 97q61 39 141 39q110 0 177 -55t67 -143q0 -129 -116 -166v-3q65 -13 107 -59q43 -48 43 -116
q0 -101 -72 -164q-74 -64 -194 -64q-186 0 -252 156zM150 642q-42 -39 -128 -59l-12 83q86 25 140 94h99q47 0 47 -49v-710h-146v641zM950 3h-98v91h98v-91z" />
    <glyph glyph-name="uni2495" unicode="&#x2495;" 
d="M249 760q47 0 47 -49v-710h-146v641q-42 -39 -128 -59l-12 83q86 25 140 94h99zM617 245v328q-46 -73 -189 -322l2 -6h187zM755 245h95l-10 -80h-85v-165h-138v165h-253q-37 0 -47 36q-8 33 10 66q257 446 290 492h92q46 0 46 -59v-455zM950 94v-91h-98v91h98z" />
    <glyph glyph-name="uni2496" unicode="&#x2496;" 
d="M497 475l2 -2q73 38 135 33q93 -7 157 -73q70 -71 70 -179q0 -122 -76 -193q-73 -70 -193 -70q-103 0 -166 45q-53 38 -91 121l88 43q30 -67 64 -94q37 -28 103 -28q131 0 131 176q-1 68 -33 115q-37 53 -100 53q-82 0 -125 -69q-16 -28 -55 -18q-40 11 -37 54l29 370
h417l-10 -79h-296zM150 642q-42 -39 -128 -59l-12 83q86 25 140 94h99q47 0 47 -49v-710h-146v641zM950 3h-98v91h98v-91z" />
    <glyph glyph-name="uni2497" unicode="&#x2497;" 
d="M677 119q33 49 33 129q0 64 -31 111q-33 47 -79 47q-49 0 -82 -48q-31 -46 -31 -111q0 -80 31 -128q30 -47 81 -47q47 0 78 47zM478 423q52 76 157 71q98 -5 156 -64q59 -62 59 -167q0 -131 -66 -202q-64 -70 -180 -70q-268 0 -268 352q0 193 62 302q69 121 209 121
q192 0 241 -173l-105 -23q-31 106 -127 106q-140 0 -140 -251zM150 642q-42 -39 -128 -59l-12 83q86 25 140 94h99q47 0 47 -49v-710h-146v641zM950 3h-98v91h98v-91z" />
    <glyph glyph-name="uni2498" unicode="&#x2498;" 
d="M486 1q33 436 223 675h-355l-10 79h452q37 0 51 -31q13 -32 -13 -62q-65 -84 -124 -245q-79 -213 -79 -416h-145zM150 642q-42 -39 -128 -59l-12 83q86 25 140 94h99q47 0 47 -49v-710h-146v641zM950 3h-98v91h98v-91z" />
    <glyph glyph-name="uni2499" unicode="&#x2499;" 
d="M586 695q-53 0 -83 -34q-27 -31 -27 -80q0 -87 122 -121q47 17 74 52q26 33 26 69q0 114 -112 114zM674 316q-42 38 -108 46q-42 -8 -72 -52q-30 -42 -30 -89q0 -71 33 -110q34 -39 93 -39t93 41t34 108q0 56 -43 95zM456 412q-105 45 -105 163q0 87 64 140q66 55 175 55
q110 0 178 -57q65 -55 65 -138q0 -124 -105 -163v-2q61 -21 98 -73q36 -52 36 -116q0 -108 -77 -170q-73 -60 -195 -60q-123 0 -197 64q-72 63 -72 166q0 61 38 115q39 54 97 74v2zM150 642q-42 -39 -128 -59l-12 83q86 25 140 94h99q47 0 47 -49v-710h-146v641zM950 3h-98
v91h98v-91z" />
    <glyph glyph-name="uni249A" unicode="&#x249a;" 
d="M510 638q-33 -49 -33 -129q0 -64 31 -110q32 -47 79 -47q49 0 82 47q31 46 31 111q0 80 -31 128q-31 47 -82 47q-47 0 -77 -47zM709 334q-52 -76 -157 -71q-98 5 -155 65q-60 61 -60 167q0 131 66 202q64 69 180 69q268 0 268 -352q0 -193 -62 -301q-69 -122 -209 -122
q-186 0 -241 173l104 23q33 -105 128 -105q140 0 140 250zM150 642q-42 -39 -128 -59l-12 83q86 25 140 94h99q47 0 47 -49v-710h-146v641zM950 3h-98v91h98v-91z" />
    <glyph glyph-name="uni249B" unicode="&#x249b;" 
d="M950 3h-98v91h98v-91zM690 677q-34 0 -55 -85q-21 -83 -21 -213t21 -215q21 -86 54 -86q67 0 67 301q0 298 -66 298zM691 -9q-92 0 -144 94q-56 100 -56 294q0 383 199 383q197 0 197 -383q0 -388 -196 -388zM73 537q17 100 69 160q54 63 136 65q103 2 156 -59
q50 -58 44 -164q-5 -97 -64 -176q-28 -38 -107 -109q-102 -93 -122 -173h302l-8 -78h-368q-68 0 -43 92q38 116 173 247q108 105 114 195q5 63 -15 102q-21 41 -62 41q-38 0 -68 -47q-30 -46 -42 -118z" />
    <glyph glyph-name="uni3000" unicode="&#x3000;" horiz-adv-x="500" 
 />
    <glyph glyph-name="uni3001" unicode="&#x3001;" 
d="M209 258q114 -92 238 -219l-111 -92q-101 151 -195 255z" />
    <glyph glyph-name="uni3002" unicode="&#x3002;" 
d="M148 244q43 41 103 41q59 0 100 -43q40 -43 40 -104q0 -59 -43 -101q-43 -41 -102 -41t-100 44q-41 43 -41 103q0 59 43 101zM190 85q23 -25 56 -25t57 23q25 23 25 57t-23 58q-24 25 -56 25q-34 0 -58 -23t-24 -57t23 -58z" />
    <glyph glyph-name="uni3005" unicode="&#x3005;" 
d="M765 568q50 0 63 -37q12 -34 -16 -70q-146 -182 -232 -280q86 -52 155 -100l-89 -144q-181 158 -393 305l60 86q78 -40 151 -80q104 190 130 239h-208q-96 -114 -237 -246l-77 80q146 174 315 488l190 -64q-56 -85 -126 -177h314z" />
    <glyph glyph-name="uni3006" unicode="&#x3006;" 
d="M666 419q121 -93 165 -136l-96 -118q-72 68 -156 140l-268 -351l-125 28l-70 407l133 23l35 -260l191 244q-134 115 -179 150l73 78q59 -33 187 -124l226 290l106 -80z" />
    <glyph glyph-name="uni3007" unicode="&#x3007;" 
d="M196 684q125 126 301 126t301 -126q125 -125 125 -303t-126 -304q-125 -125 -300 -125q-176 0 -301 126t-125 303q0 178 125 303zM295 145q76 -105 202 -105q124 0 199 105q69 96 69 236q0 145 -66 239q-73 102 -202 102q-125 0 -201 -104q-71 -97 -71 -237t70 -236z" />
    <glyph glyph-name="uni3008" unicode="&#x3008;" 
d="M681 -87l-214 457l214 486h106l-223 -486l224 -457h-107z" />
    <glyph glyph-name="uni3009" unicode="&#x3009;" 
d="M319 856l214 -457l-214 -486h-106l223 486l-224 457h107z" />
    <glyph glyph-name="uni300A" unicode="&#x300a;" 
d="M670 -105l-213 482l213 483h100l-220 -483l220 -482h-100zM854 -105l-212 482l212 483h102l-221 -483l221 -482h-102z" />
    <glyph glyph-name="uni300B" unicode="&#x300b;" 
d="M207 860h100l214 -483l-214 -482h-100l220 482zM32 860h91l212 -483l-212 -482h-101l221 482z" />
    <glyph glyph-name="uni300C" unicode="&#x300c;" 
d="M783 834v-94h-199v-826h-145v920h344z" />
    <glyph glyph-name="uni300D" unicode="&#x300d;" 
d="M148 -86v94h200v826h145v-920h-345z" />
    <glyph glyph-name="uni300E" unicode="&#x300e;" 
d="M443 838h380v-152h-172v-772h-208v924zM772 734v56h-278v-828h106v772h172z" />
    <glyph glyph-name="uni300F" unicode="&#x300f;" 
d="M563 -86h-380v152h172v772h208v-924zM233 18v-56h279v828h-106v-772h-173z" />
    <glyph glyph-name="uni3010" unicode="&#x3010;" 
d="M939 828q-212 -161 -212 -444q0 -281 212 -444v-7h-340v903h340v-8z" />
    <glyph glyph-name="uni3011" unicode="&#x3011;" 
d="M59 -67v7q212 164 212 444q0 281 -212 444v8h340v-903h-340z" />
    <glyph glyph-name="uni3013" unicode="&#x3013;" 
d="M163 58v239h661v-239h-661zM163 457v239h661v-239h-661z" />
    <glyph glyph-name="uni3014" unicode="&#x3014;" 
d="M498 723l247 115l-5 -84l-109 -49v-644l119 -52v-85l-252 113v686z" />
    <glyph glyph-name="uni3015" unicode="&#x3015;" 
d="M498 39l-247 -115l5 85l109 48v644l-119 53v84l252 -113v-686z" />
    <glyph glyph-name="uni3220" unicode="&#x3220;" 
d="M129 420h745l-9 -80h-730zM747 -44q143 172 143 425q0 243 -144 425l52 36q187 -203 187 -461q0 -265 -187 -460zM199 -79q-187 203 -187 460q0 266 187 461l51 -36q-142 -171 -142 -425q0 -243 144 -425z" />
    <glyph glyph-name="uni3221" unicode="&#x3221;" 
d="M798 842q187 -203 187 -461q0 -265 -187 -460l-51 35q49 58 83 138h-660q35 -79 82 -138l-53 -35q-187 203 -187 460q0 266 187 461l51 -36q-142 -171 -142 -425q0 -138 56 -271l-5 59h681l-9 -72q59 134 59 284q0 243 -144 425zM242 582l-5 74h525l-8 -74h-512z" />
    <glyph glyph-name="uni3222" unicode="&#x3222;" 
d="M798 842q187 -203 187 -461q0 -265 -187 -460l-51 35q39 49 67 104h-628q33 -63 66 -104l-53 -35q-187 203 -187 460q0 266 187 461l51 -36q-142 -171 -142 -425q0 -147 66 -296l-3 47h657l-6 -57q68 145 68 306q0 243 -144 425zM792 637h-589l-5 70h602zM249 358l-5 70
h511l-8 -70h-498z" />
    <glyph glyph-name="uni3223" unicode="&#x3223;" 
d="M707 146v104h-111q-71 0 -71 83v284h-48q-17 -270 -138 -417l-47 19v-73h415zM168 670q-60 -139 -60 -289q0 -143 60 -282v571zM292 617v-343q51 119 51 343h-51zM707 617h-52v-308h52v308zM798 842q187 -203 187 -461q0 -265 -187 -460l-51 35q41 50 71 112h-636
q34 -67 70 -112l-53 -35q-187 203 -187 460q0 266 187 461l51 -36q-41 -48 -71 -112h545q59 0 85 -22q24 -21 24 -70v-501q57 136 57 280q0 243 -144 425z" />
    <glyph glyph-name="uni3224" unicode="&#x3224;" 
d="M462 112h165l8 291h-144zM798 842q187 -203 187 -461q0 -265 -187 -460l-51 35q32 37 58 87h-610q22 -42 57 -87l-53 -35q-187 203 -187 460q0 266 187 461l51 -36q-142 -171 -142 -425q0 -149 65 -292l-2 23h143l29 291h-120l-5 69h131l17 171h-167l-5 70h602l-8 -70
h-273l-17 -171h239q56 0 51 -45l-18 -315h53l-5 -45q72 150 72 314q0 243 -144 425z" />
    <glyph glyph-name="uni3225" unicode="&#x3225;" 
d="M431 568v178h156v-178h260l-8 -74h-681l-5 74h278zM476 399q-100 -205 -231 -357l-69 40q33 -71 76 -126l-53 -35q-187 203 -187 460q0 266 187 461l51 -36q-142 -171 -142 -425q0 -139 58 -276q91 164 154 347zM798 842q187 -203 187 -461q0 -265 -187 -460l-51 35
q48 59 81 132l-96 -61q-35 75 -177 367l98 57q148 -209 202 -292q35 113 35 222q0 243 -144 425z" />
    <glyph glyph-name="uni3226" unicode="&#x3226;" 
d="M250 806q-142 -171 -142 -425q0 -243 144 -425l-53 -35q-187 203 -187 460q0 266 187 461zM789 25h-269q-95 0 -130 35q-33 33 -33 118v188l-217 -19l-14 81l231 21v296h162v-282l304 27l-1 -82l-303 -27v-290h277zM798 842q187 -203 187 -461q0 -265 -187 -460l-51 35
q143 172 143 425q0 243 -144 425z" />
    <glyph glyph-name="uni3227" unicode="&#x3227;" 
d="M471 731q-42 -423 -234 -688l-51 17q31 -59 66 -104l-53 -35q-187 203 -187 460q0 266 187 461l51 -36q-142 -171 -142 -425q0 -131 51 -259q109 248 135 620zM798 842q187 -203 187 -461q0 -265 -187 -460l-51 35q53 64 88 150l-128 -57q-136 269 -168 684l105 18
q62 -327 215 -579q31 104 31 209q0 243 -144 425z" />
    <glyph glyph-name="uni3228" unicode="&#x3228;" 
d="M798 842q187 -203 187 -461q0 -265 -187 -460l-51 35q33 41 60 90h-153q-91 0 -88 96l9 377h-86q-35 -319 -236 -490l-71 39q34 -67 70 -112l-53 -35q-187 203 -187 460q0 266 187 461l51 -36q-142 -171 -142 -425q0 -156 72 -307q141 162 155 445h-155v82h157
q2 69 0 147h165q-1 -76 -6 -147h177q66 0 63 -65l-12 -428h102l-4 -33q68 145 68 306q0 243 -144 425z" />
    <glyph glyph-name="uni3229" unicode="&#x3229;" 
d="M250 806q-142 -171 -142 -425q0 -243 144 -425l-53 -35q-187 203 -187 460q0 266 187 461zM587 390v-390h-165v390h-282l-5 71h287v287h165v-287h269l-9 -71h-260zM798 842q187 -203 187 -461q0 -265 -187 -460l-51 35q143 172 143 425q0 243 -144 425z" />
    <glyph glyph-name="uni3231" unicode="&#x3231;" 
d="M138 588q-30 -104 -30 -207q0 -204 109 -375v243q-27 -44 -55 -85l-40 139q55 100 81 226h-61zM798 842q187 -203 187 -461q0 -265 -187 -460l-51 35q77 92 114 224l-74 -62q-44 47 -83 117v-241h-128v226q-62 -77 -148 -137l-67 69q104 88 162 221h-100q16 -17 39 -44
l-89 -78l-31 58v-312h-119q13 -20 29 -41l-53 -35q-187 203 -187 460q0 266 187 461l51 -36q-73 -89 -110 -214h77v165h125v-165h62l-6 -63h-56v-100l16 13l41 -44l-2 35h179v116h-58q-16 -48 -34 -99l-76 23q13 106 19 240l136 -7l-26 -96h39v150h128v-150h116l-6 -61h-110
v-116h160l-7 -60h-119q53 -80 134 -149q18 77 18 157q0 243 -144 425z" />
    <glyph glyph-name="uni32A3" unicode="&#x32a3;" 
d="M824 115q95 116 95 265q0 173 -123 296t-297 123q-173 0 -296 -123q-122 -123 -122 -296q0 -148 93 -263l-5 56h94v315h131v-315h71v413h-241l-5 70h588l-7 -70h-198v-156h174l-6 -69h-168v-188h229zM185 104q125 -143 315 -143t315 143h-630zM825 705q135 -135 135 -325
t-135 -325q-134 -135 -325 -135q-190 0 -325 135t-135 325q0 191 134 325q135 135 325 135q191 0 326 -135z" />
    <glyph glyph-name="uni338E" unicode="&#x338e;" 
d="M764 472q-24 26 -52 20q-62 -10 -62 -184q0 -181 62 -194q35 -6 58 34q15 27 21 78q10 84 -2 177q-6 49 -25 69zM911 31q0 -223 -195 -223q-129 0 -186 152l74 34q32 -105 107 -105q86 0 86 122v73h-1q-49 -65 -111 -53q-64 11 -104 81q-42 75 -42 194q0 118 45 193
q46 74 123 78q25 2 52 -15q28 -17 37 -42h1l10 42h104v-531zM198 493h1q22 78 79 78q49 0 69 -80q21 80 88 80q72 0 72 -199v-371h-83v358q0 72 -3 91q-5 32 -25 32q-16 0 -22 -28q-6 -21 -6 -100v-353h-111v355q0 75 -4 98q-5 28 -23 28q-15 0 -22 -25q-6 -18 -6 -90v-366
h-117v555h109z" />
    <glyph glyph-name="uni338F" unicode="&#x338f;" 
d="M288 289l-38 -46v-243h-116v758h116v-418l174 231h91l-160 -198l172 -373h-114zM751 403q-6 49 -25 69q-24 26 -52 20q-63 -10 -63 -184q0 -181 63 -194q35 -6 58 34q15 27 21 78q10 84 -2 177zM873 562v-531q0 -223 -195 -223q-129 0 -186 152l74 34q32 -105 107 -105
q86 0 86 122v73h-1q-49 -65 -111 -53q-64 11 -104 81q-42 75 -42 194q0 118 45 193q46 74 123 78q25 2 52 -15q28 -17 37 -42h1l10 42h104z" />
    <glyph glyph-name="uni339C" unicode="&#x339c;" 
d="M641 493h1q9 34 31 56q21 22 44 22q46 0 66 -80q19 80 84 80q40 0 56 -52q13 -44 13 -147v-371h-79v358q0 72 -3 91q-5 32 -24 32q-15 0 -21 -28q-5 -18 -5 -100v-353h-112v355q0 88 -1 98q-3 28 -19 28q-15 0 -22 -25q-5 -17 -5 -90v-366h-112v555h104zM192 493h2
q20 78 75 78q46 0 66 -80q19 80 84 80q40 0 56 -52q13 -44 13 -147v-371h-79v358q0 70 -3 91q-6 32 -24 32q-15 0 -21 -28q-6 -21 -6 -100v-353h-111v355q0 88 -1 98q-3 28 -19 28q-15 0 -22 -25q-5 -17 -5 -90v-366h-112v555h104z" />
    <glyph glyph-name="uni339D" unicode="&#x339d;" 
d="M592 493h1q20 78 75 78q46 0 66 -80q19 80 84 80q69 0 69 -199v-371h-79v358q0 70 -3 91q-6 32 -24 32q-15 0 -21 -28q-5 -18 -5 -100v-353h-112v355q0 88 -1 98q-3 28 -19 28q-15 0 -22 -25q-5 -17 -5 -90v-366h-112v555h104zM380 379q-26 123 -79 118q-31 -3 -50 -62
q-20 -60 -20 -155q0 -94 22 -150q20 -50 49 -52q31 -2 53 30q26 38 29 112l77 -17q-6 -101 -47 -155q-45 -59 -123 -53q-79 5 -128 93q-47 83 -47 201q0 127 56 209q53 77 127 77q114 0 158 -172z" />
    <glyph glyph-name="uni339E" unicode="&#x339e;" 
d="M499 61v490l-144 -178zM608 493q20 78 75 78q46 0 66 -80q19 80 84 80q40 0 56 -52q13 -44 13 -147v-371h-79v358q0 70 -3 91q-6 32 -24 32q-15 0 -21 -28q-5 -18 -5 -100v-353h-112v355q0 88 -1 98q-3 28 -19 28q-15 0 -22 -25q-5 -17 -5 -90v-366l-198 -1l-125 289
l-38 -46v-243h-116v758h116v-418l174 231h91l-12 -15h100l4 -63h1z" />
    <glyph glyph-name="uni33A1" unicode="&#x33a1;" 
d="M207 470h2q38 74 147 74q112 0 150 -76q35 76 139 76q56 0 95 -49q42 -54 42 -140v-354h-81v342q0 116 -83 116q-39 0 -61 -22q-30 -32 -30 -100v-336h-144v338q0 120 -84 120q-38 0 -60 -22q-24 -29 -24 -87v-349h-144v529h130zM689 717q5 35 28 58q24 24 58 24
q47 0 71 -25t18 -65q-5 -40 -54 -73q-42 -28 -61 -47h123l-9 -41h-174v41q15 25 85 75q31 23 34 55q3 44 -34 42q-31 -2 -36 -57z" />
    <glyph glyph-name="uni33C4" unicode="&#x33c4;" 
d="M781 379q-25 123 -79 118q-30 -3 -49 -62q-20 -60 -20 -155q0 -94 22 -150q20 -50 49 -52q30 -2 52 30q27 38 30 112l77 -17q-6 -101 -47 -155q-45 -59 -123 -53q-79 5 -128 93q-47 83 -47 201q0 127 56 209q53 77 127 77q114 0 158 -172zM399 379q-26 123 -79 118
q-31 -3 -50 -62q-20 -60 -20 -155q0 -94 22 -150q20 -50 49 -52q31 -2 53 30q26 38 29 112l77 -17q-6 -101 -47 -155q-45 -59 -123 -53q-79 5 -128 93q-47 83 -47 201q0 127 56 209q53 77 127 77q114 0 158 -172z" />
    <glyph glyph-name="uni33CE" unicode="&#x33ce;" 
d="M303 493l125 -493h-119l-72 380l-33 -58v-322h-133v760h133v-304l163 303h79zM842 758q34 0 45 -96q3 -22 37 -661h-119l-28 538h-1l-62 -464h-84q-20 0 -26 35l-73 425h-1l-20 -534h-75l33 757h99q22 0 32 -50l82 -487h1l76 537h84z" />
    <glyph glyph-name="uni33D1" unicode="&#x33d1;" 
d="M321 60h91l-6 -60h-88q-83 0 -108 29q-22 25 -22 103v626h133v-698zM582 502h2q35 76 125 76q59 0 97 -46q42 -49 42 -134v-398h-81v374q0 118 -81 118q-43 0 -67 -27q-31 -36 -31 -112v-353h-127v564h116z" />
    <glyph glyph-name="uni33D2" unicode="&#x33d2;" 
d="M216 60h71l-6 -60h-63q-83 0 -108 29q-22 25 -22 103v626h128v-698zM365 140q14 -51 32 -51q19 0 32 47q16 55 16 153q0 95 -16 149q-15 47 -34 47q-46 0 -46 -198q0 -89 16 -147zM288 491q43 83 105 83q69 0 114 -84q43 -80 43 -195q0 -133 -43 -215q-42 -80 -108 -80
q-68 0 -112 83q-43 82 -43 204q0 120 44 204zM775 465q-19 26 -47 18q-23 -5 -38 -60q-15 -53 -15 -126q0 -81 16 -137q15 -54 38 -58q29 -5 49 33q11 24 19 89q8 74 -2 160q-8 63 -20 81zM909 17q0 -103 -45 -163q-46 -62 -129 -62q-122 0 -166 154l76 32q35 -105 83 -105
q75 0 75 124v74h-2q-41 -61 -94 -54q-56 6 -96 80q-43 79 -43 198q0 116 44 194q43 74 106 80q27 2 51 -15t32 -43h2l9 43h97v-537z" />
    <glyph glyph-name="uni33D5" unicode="&#x33d5;" 
d="M192 493h2q20 78 75 78q46 0 66 -80q19 80 84 80q40 0 56 -52q13 -44 13 -147v-371h-79v358q0 70 -3 91q-6 32 -24 32q-15 0 -21 -28q-6 -21 -6 -100v-353h-111v355q0 88 -1 98q-3 28 -19 28q-15 0 -22 -25q-5 -17 -5 -90v-366h-112v555h104zM546 752h112v-113h-112v113z
M659 0h-115v568h115v-568zM845 60h72l-6 -60h-63q-83 0 -108 29q-22 25 -22 103v626h127v-698z" />
    <glyph glyph-name="uni4E00" unicode="&#x4e00;" 
d="M37 497h924l-10 -88h-907z" />
    <glyph glyph-name="uni4E01" unicode="&#x4e01;" 
d="M951 700h-345v-613q0 -82 -50 -123q-44 -37 -118 -37h-139l-9 73h143v700h-380l-6 81h914z" />
    <glyph glyph-name="uni4E03" unicode="&#x4e03;" 
d="M480 30h458l-8 -72h-437q-99 0 -141 43q-40 40 -40 129v283l-277 -44l-19 80l296 47v357h168v-330l481 76l3 -82l-484 -77v-410z" />
    <glyph glyph-name="uni4E07" unicode="&#x4e07;" 
d="M487 680q-9 -103 -27 -194l321 1q29 0 48 -16q20 -16 20 -43v-347q0 -125 -167 -125h-209l-7 70h210v377h-235q-81 -309 -343 -494l-73 66q153 135 212 311q46 137 58 394h-232l-7 81h883l-10 -81h-442z" />
    <glyph glyph-name="uni4E08" unicode="&#x4e08;" 
d="M903 -78q-269 51 -439 182q-142 -123 -381 -193l-41 90q217 77 327 190q-122 131 -201 340l92 41q77 -171 190 -274q62 113 83 291h-478l-6 81h492q6 86 9 182h179q-7 -104 -16 -182h250l-10 -81h-251q-37 -231 -137 -373q150 -84 401 -121z" />
    <glyph glyph-name="uni4E09" unicode="&#x4e09;" 
d="M51 101h905l-10 -81h-889zM174 436h658l-8 -80h-644zM115 751h778l-9 -80h-762z" />
    <glyph glyph-name="uni4E0A" unicode="&#x4e0a;" 
d="M949 37l-9 -81h-880l-6 81h308v798h168v-306h351l-7 -79h-344v-413h419z" />
    <glyph glyph-name="uni4E0B" unicode="&#x4e0b;" 
d="M535 686v-236l61 71q177 -134 317 -249l-114 -144q-112 128 -264 293v-513h-168v778h-321l-7 80h923l-9 -80h-418z" />
    <glyph glyph-name="uni4E0C" unicode="&#x4e0c;" 
d="M940 661h-163v-752h-164v752h-169q-18 -272 -81 -430q-77 -194 -255 -333l-81 57q135 137 184 314q37 134 43 392h-185l-6 81h887z" />
    <glyph glyph-name="uni4E0D" unicode="&#x4e0d;" 
d="M883 125q-185 167 -306 272v-491h-171v470q-139 -139 -304 -253l-81 89q238 209 414 470h-353l-6 84h855l-10 -84h-255q-29 -40 -89 -116v-111l40 53q200 -125 365 -236z" />
    <glyph glyph-name="uni4E0E" unicode="&#x4e0e;" 
d="M693 166h-648l-6 74h662zM344 648l-29 -178h493q26 0 43 -15q18 -15 18 -40v-380q0 -118 -149 -118h-249l-7 65h251v413h-567l74 461h155l-22 -134h563l-8 -74h-566z" />
    <glyph glyph-name="uni4E10" unicode="&#x4e10;" 
d="M575 697v-137h301l-7 -74h-294v-148h257q63 0 63 -54v-258q0 -106 -155 -106h-249l-7 65h251v278h-625l41 344h148l-31 -269h149v359h-348l-6 75h886l-9 -75h-365z" />
    <glyph glyph-name="uni4E11" unicode="&#x4e11;" 
d="M423 51h212l8 325h-189zM461 453h183l6 243h-166zM973 51l-10 -79h-929l-7 79h228l31 325h-157l-6 77h170l23 243h-201l-6 79h668v-1q63 -2 56 -66l-31 -657h171z" />
    <glyph glyph-name="uni4E13" unicode="&#x4e13;" 
d="M436 461l-37 -124h403q55 0 68 -43q12 -42 -26 -72q-91 -72 -186 -140l141 -39l-67 -151q-282 116 -536 211l56 89q174 -46 261 -70l126 139h-424l60 200h-237l-6 78h266l40 132h-212l-6 75h240l33 110h161l-33 -110h376l-9 -75h-389l-40 -132h519l-10 -78h-532z" />
    <glyph glyph-name="uni4E14" unicode="&#x4e14;" 
d="M328 32h328v181h-328v-181zM328 706v-165h328v165h-328zM328 290h328v174h-328v-174zM974 32l-10 -79h-929l-7 79h138v753h593q72 0 72 -77v-676h143z" />
    <glyph glyph-name="uni4E15" unicode="&#x4e15;" 
d="M6 296q257 169 428 412h-355l-6 80h850l-10 -80h-225q-58 -75 -106 -127v-101l70 65q186 -140 321 -251l-123 -125q-134 148 -268 289v-374h-171v333q-153 -129 -336 -219zM43 45h910l-10 -80h-893z" />
    <glyph glyph-name="uni4E16" unicode="&#x4e16;" 
d="M547 496v-235h105v235h-105zM543 198q-91 0 -122 31q-29 29 -29 111v156h-73v-442h631l-9 -78h-601q-202 0 -202 190v330h-107l-7 81h114v234h181v-234h73v260h155v-260h105v265h155v-265h182l-10 -81h-172v-298h-264z" />
    <glyph glyph-name="uni4E18" unicode="&#x4e18;" 
d="M348 57h215v322h-215v-322zM965 57l-10 -81h-916l-6 81h147v652h8q307 57 593 135l68 -165q-240 -34 -501 -49v-171h560l-8 -80h-172v-322h237z" />
    <glyph glyph-name="uni4E19" unicode="&#x4e19;" 
d="M566 354q108 -70 194 -130v261h-173q-19 -97 -56 -170zM250 155q129 114 156 330h-156v-330zM861 563q28 0 46 -16q19 -17 19 -44v-457q0 -129 -161 -129h-106l-6 67h107v209l-82 -102q-51 55 -172 180q-72 -114 -213 -193l-43 51v-224h-159v658h327v140h-265l-6 81h727
l-9 -81h-276v-140h272z" />
    <glyph glyph-name="uni4E1A" unicode="&#x4e1a;" 
d="M695 43h271l-10 -83h-907l-6 83h251v192l-102 -47q-36 115 -132 398l106 45l128 -254v438h165v-772h71v785h165v-505q60 158 105 303l170 -50q-98 -214 -211 -388l-64 29v-174z" />
    <glyph glyph-name="uni4E1B" unicode="&#x4e1b;" 
d="M393 261l-95 186q-67 -193 -176 -345l-98 36q140 250 183 710l180 -9q-17 -135 -46 -248q109 -140 149 -197q57 188 87 458l181 -10q-20 -146 -55 -272q123 -225 286 -385l-158 -111q-104 136 -183 328q-77 -194 -192 -341l-96 39q61 99 101 209zM40 40h919l-10 -81h-902
z" />
    <glyph glyph-name="uni4E1C" unicode="&#x4e1c;" 
d="M393 206q-116 -145 -235 -276l-110 121q141 123 258 232zM618 320v-269q0 -143 -167 -143h-118l-8 68h121v344h-169q-71 0 -89 43q-17 41 16 112l67 141h-201l-7 78h245l84 171l177 -30q-18 -37 -72 -141h439l-9 -78h-472q-59 -109 -124 -218h115v165h172v-165h276
l-8 -78h-268zM724 281q165 -157 247 -245l-127 -101q-109 156 -204 285z" />
    <glyph glyph-name="uni4E1D" unicode="&#x4e1d;" 
d="M599 449q-61 0 -77 37q-14 34 13 93q49 106 132 271l161 -42q-75 -147 -160 -284h60q14 19 49 69q33 46 54 74l143 -76q-113 -156 -280 -350h244l-7 -76h-298q-70 0 -84 47q-15 45 29 105q51 69 95 132h-74zM169 482q-113 0 -62 120q19 45 115 249l159 -32
q-59 -119 -141 -262h61l74 114l150 -62q-109 -165 -254 -350h217l-6 -76h-271q-68 0 -83 44q-15 42 24 102l100 153h-83zM985 58l-10 -75h-948l-6 75h964z" />
    <glyph glyph-name="uni4E1E" unicode="&#x4e1e;" 
d="M157 720l-6 77h599v-1h18q58 0 70 -49t-34 -74q-95 -52 -159 -84q32 -62 67 -112q68 59 129 140l118 -106q-87 -76 -171 -123q80 -80 203 -140l-120 -136q-199 118 -299 357v-241q0 -139 -155 -139h-114l-12 65h121v471h50l128 95h-433zM32 168q120 176 180 336h-145
l-9 75h296q37 0 51 -26q13 -25 -5 -55q-149 -256 -282 -398zM39 38h913l-9 -77h-898z" />
    <glyph glyph-name="uni4E22" unicode="&#x4e22;" 
d="M965 285h-469l20 -11q-84 -90 -240 -242h422q-20 32 -55 85l-53 82l94 58q179 -192 241 -265l-141 -97l-37 60h-541q-75 0 -92 49q-17 48 31 104l153 177h-249l-6 76h367v126h-285l-6 75h291v98q-145 -7 -266 -8l-16 97q323 31 675 103l52 -154q-140 -17 -286 -28v-108
h326l-9 -75h-317v-126h406z" />
    <glyph glyph-name="uni4E24" unicode="&#x4e24;" 
d="M774 492h-79q-5 -78 -13 -136l1 1q54 -70 91 -122v257zM442 359q41 -56 77 -107q13 85 13 240h-77q-7 -65 -20 -137zM226 91q59 143 67 401h-67v-401zM444 569h98v133h-98v-133zM697 569l170 1q26 0 43 -15q18 -16 18 -41v-466q0 -121 -149 -121h-108l-7 53h110v171
l-67 -46l-54 118q-42 -133 -142 -232l-77 38q47 69 70 153l-60 -38l-39 96q-39 -115 -113 -218l-66 29v-139h-143v657h209v133h-245l-7 79h914l-9 -79h-248v-133z" />
    <glyph glyph-name="uni4E25" unicode="&#x4e25;" 
d="M490 423h66v308h-66v-308zM968 347h-699q-30 -294 -182 -451l-78 37q99 151 101 490h231v308h-217l-6 76h818l-10 -76h-221v-308h272zM191 451q-17 46 -76 198l96 40q98 -136 121 -172zM712 490q51 91 86 201l149 -56q-74 -110 -155 -185z" />
    <glyph glyph-name="uni4E27" unicode="&#x4e27;" 
d="M879 233q-60 -45 -134 -93q102 -51 234 -85l-75 -164q-351 114 -542 457h-30v-248q78 23 156 48l25 -100q-196 -92 -353 -157l-39 150l60 16v291h-149l-6 78h206l-77 170l93 47l128 -158l-104 -59h137v231h-329l-6 75h335v119h159v-119h333l-9 -75h-324v-231h100l-51 33
q62 124 89 189l143 -73q-53 -72 -130 -149h234l-10 -78h-455q67 -83 149 -143q58 58 136 142z" />
    <glyph glyph-name="uni4E28" unicode="&#x4e28;" 
d="M574 -92h-162v945h162v-945z" />
    <glyph glyph-name="uni4E2A" unicode="&#x4e2a;" 
d="M403 529h168v-623h-168v623zM626 819q-26 -40 -50 -73q151 -153 416 -242l-85 -152q-235 105 -400 308q-175 -198 -428 -300l-58 86q274 145 417 412z" />
    <glyph glyph-name="uni4E2B" unicode="&#x4e2b;" 
d="M148 860q192 -191 316 -326l-131 -120q-123 175 -270 374zM926 761q-176 -223 -353 -367v-488h-158v537h42q166 190 296 418z" />
    <glyph glyph-name="uni4E2C" unicode="&#x4e2c;" 
d="M652 854v-950h-152v343q-75 -74 -177 -164l-92 137q136 95 269 199v129l-119 -96q-56 92 -133 209l86 62q114 -106 166 -159v290h152z" />
    <glyph glyph-name="uni4E2D" unicode="&#x4e2d;" 
d="M759 592h-183v-289h183v289zM412 303v289h-177v-289h177zM915 226h-339v-322h-164v322h-332v443h332v185h164v-185h217q122 0 122 -93v-350z" />
    <glyph glyph-name="uni4E30" unicode="&#x4e30;" 
d="M959 158h-380v-252h-158v252h-383l-6 79h389v163h-308l-6 77h314v147h-335l-6 79h341v149h158v-149h341l-9 -79h-332v-147h314l-9 -77h-305v-163h389z" />
    <glyph glyph-name="uni4E32" unicode="&#x4e32;" 
d="M755 300h-175v-151h175v151zM253 149h168v151h-168v-151zM306 534h115v145h-115v-145zM700 679h-120v-145h120v145zM917 77h-332v-172h-168v172h-325v295h325v94h-272v281h272v108h168v-108h172q105 0 105 -81v-200h-277v-94h220q112 0 112 -83v-212z" />
    <glyph glyph-name="uni4E34" unicode="&#x4e34;" 
d="M52 746h143v-711h-143v711zM380 445v-538h-150v950h150v-329q50 110 133 341l184 -27q-34 -67 -72 -136h317l-7 -79h-272q114 -104 164 -155l-112 -96q-65 100 -141 206l58 45h-54q-62 -101 -145 -214zM789 296h-54v-260h54v260zM560 36h44v260h-44v-260zM831 373
q59 0 84 -21q24 -21 24 -70v-324h-528v415h420z" />
    <glyph glyph-name="uni4E36" unicode="&#x4e36;" 
d="M368 663q220 -167 370 -293l-132 -128q-144 157 -324 346z" />
    <glyph glyph-name="uni4E38" unicode="&#x4e38;" 
d="M981 25l-9 -74h-268q-99 0 -95 104l15 527h-126q-20 -132 -59 -239l171 -89l-80 -146l-149 105q-93 -171 -272 -302l-72 61q162 144 229 320q-66 45 -129 87l56 87l110 -54q16 63 28 170h-258v78h265q6 90 9 190h179q-7 -113 -17 -190h225q73 0 70 -72l-19 -563h196z" />
    <glyph glyph-name="uni4E39" unicode="&#x4e39;" 
d="M651 401v324h-256l-3 -101l61 58q149 -117 191 -153l-110 -114q-62 82 -143 183q-5 -109 -16 -197h276zM967 320h-150v-237q0 -81 -48 -122q-42 -36 -113 -36h-170l-7 72h172v323h-290q-46 -238 -197 -411l-97 41q106 164 132 370h-161l-7 81h176q9 116 3 404h542
q27 0 46 -18q19 -19 19 -46v-340h160z" />
    <glyph glyph-name="uni4E3A" unicode="&#x4e3a;" 
d="M857 600q25 0 43 -16t18 -40v-487q0 -128 -149 -128h-195l-7 66h197v523h-238q-81 -397 -404 -618l-69 64q256 210 309 554h-288l-7 81h186q-77 105 -119 160l80 61l160 -125l-113 -96h111q11 110 16 256h179q-10 -148 -26 -256zM638 134q-100 119 -164 191l70 74
q156 -112 198 -145z" />
    <glyph glyph-name="uni4E3B" unicode="&#x4e3b;" 
d="M961 59l-10 -80h-902l-6 80h375v250h-285l-6 78h291v194h-321l-7 79h328v179h171v-179h324l-9 -79h-318v-194h291l-9 -78h-282v-250h375z" />
    <glyph glyph-name="uni4E3D" unicode="&#x4e3d;" 
d="M240 424q88 -102 80 -92v227h-121v-159zM408 634q25 0 42 -15q17 -16 17 -40v-530q0 -121 -143 -121h-75l-7 57h78v233l-52 -34l-69 129v-400h-138v721h347zM695 427q62 -74 87 -107v244h-136v-164zM875 639q25 0 42 -16q18 -17 18 -41v-532q0 -127 -148 -127h-74l-7 59
h76v249l-68 -41q-12 23 -34 69l-34 68v-417h-143v729h372zM976 788l-9 -75h-939l-6 75h954z" />
    <glyph glyph-name="uni4E3E" unicode="&#x4e3e;" 
d="M496 859q79 -149 98 -190l-149 -45q-12 54 -50 207zM421 356v123h156v-123h122q-71 76 -125 191h-129q-76 -110 -165 -191h141zM577 164h348l-10 -75h-338v-183h-156v183h-340l-6 75h346v119h-162l-4 51q-78 -64 -163 -110l-66 72q142 102 232 251h-192l-6 77h161
q-57 138 -71 170l94 44q127 -168 122 -160l-103 -54h355q43 101 78 226l169 -42q-54 -97 -119 -184h209l-9 -77h-250q98 -127 286 -194l-84 -141q-90 43 -160 105l-4 -34h-157v-119z" />
    <glyph glyph-name="uni4E3F" unicode="&#x4e3f;" 
d="M631 844q-6 -390 -52 -542q-75 -241 -321 -384l-80 61q191 145 239 361q28 129 21 504h193z" />
    <glyph glyph-name="uni4E43" unicode="&#x4e43;" 
d="M880 473q29 0 47 -16q20 -16 20 -44v-329q0 -124 -167 -124h-259l-8 70h262v365h-29v-1h-161l55 313h-140q-27 -267 -112 -448q-93 -197 -278 -349l-74 65q146 148 207 330q48 145 64 402h-192l-6 83h661q28 0 43 -14q15 -15 9 -38l-59 -266h12v1h105z" />
    <glyph glyph-name="uni4E45" unicode="&#x4e45;" 
d="M698 702q49 0 67 -33q16 -32 -4 -76q-60 -129 -127 -234q133 -205 357 -330l-128 -145q-190 127 -309 365q-181 -227 -467 -343l-65 96q372 197 528 620h-176q-101 -158 -227 -290l-93 61q137 188 248 468l193 -25q-36 -73 -72 -134h275z" />
    <glyph glyph-name="uni4E47" unicode="&#x4e47;" 
d="M956 19l-7 -68h-391q-96 0 -133 37q-35 35 -35 120v220l-330 -29l-14 83l344 31v190q-150 -21 -262 -31l-25 105q328 64 634 177l75 -162q-136 -37 -260 -60v-205l375 34l-3 -85l-372 -33v-324h404z" />
    <glyph glyph-name="uni4E48" unicode="&#x4e48;" 
d="M578 748q-205 -241 -474 -410l-63 82q219 183 397 426zM811 -96l-41 81l-504 -1q-92 0 -106 68q-13 68 62 143q166 165 470 486l149 -104q-159 -163 -531 -515h420l-115 218l96 60q176 -232 246 -337z" />
    <glyph glyph-name="uni4E49" unicode="&#x4e49;" 
d="M468 541q-26 57 -131 277l102 48q156 -209 180 -245zM859 -109q-217 86 -361 213q-161 -133 -393 -212l-59 95q207 98 341 232q-161 193 -255 517l97 36q105 -278 256 -437q131 182 204 471l193 -33q-81 -340 -265 -552q135 -97 343 -169z" />
    <glyph glyph-name="uni4E4B" unicode="&#x4e4b;" 
d="M762 628q50 0 67 -38q16 -37 -13 -70q-233 -253 -435 -395q161 -52 588 3l-18 -176q-482 -33 -672 106q-64 -40 -161 -89l-60 95q335 199 549 489h-519l-8 75h301v202h165v-202h216z" />
    <glyph glyph-name="uni4E4C" unicode="&#x4e4c;" 
d="M740 123h-703l-5 73h717zM872 382q63 0 63 -55v-299q0 -110 -155 -110h-214l-7 65h216v327h-617l47 426l185 -1q6 81 7 119l191 -10q-31 -62 -60 -109h229q63 0 63 -51v-152q0 -55 -46 -74q-33 -15 -109 -15h-128l-7 61h130v156h-315l-30 -278h557z" />
    <glyph glyph-name="uni4E4D" unicode="&#x4e4d;" 
d="M499 611v-154h402l-7 -78h-395v-150h424l-8 -79h-416v-247h-165v667q-108 -129 -223 -224l-88 72q171 186 300 443l197 -31q-41 -66 -93 -140h540l-9 -79h-459z" />
    <glyph glyph-name="uni4E4E" unicode="&#x4e4e;" 
d="M945 285h-352v-216q0 -80 -49 -121q-43 -37 -114 -37h-151l-9 72h156v302h-361l-7 82h207q-80 160 -117 232l92 49q141 -173 165 -206l-127 -75h148v296q-141 -7 -261 -8l-18 100q307 32 632 104l56 -161q-126 -15 -242 -24v-307h361zM622 426q70 133 122 255l147 -67
q-82 -126 -185 -239z" />
    <glyph glyph-name="uni4E4F" unicode="&#x4e4f;" 
d="M872 681q-374 -51 -740 -55l-19 108q350 39 695 121zM790 499q44 0 53 -35q10 -35 -29 -67q-210 -169 -390 -277q210 -52 530 8l-16 -188q-373 -46 -637 111q-71 -38 -179 -87l-24 124q221 121 458 342h-423l-8 69h295v127h162v-127h208z" />
    <glyph glyph-name="uni4E50" unicode="&#x4e50;" 
d="M389 277q-112 -165 -226 -315l-125 110q120 127 253 274zM607 377v-314q0 -152 -168 -152h-132l-9 71h136v395h-328l44 392h142q258 39 516 95l58 -166q-262 -26 -560 -32l-24 -210h152v187h173v-187h324l-9 -79h-315zM715 344q191 -193 260 -272l-140 -102
q-85 129 -213 314z" />
    <glyph glyph-name="uni4E52" unicode="&#x4e52;" 
d="M341 268h219v198h-219v-198zM956 191h-522l76 -103q-188 -108 -375 -184l-51 95q105 68 262 192h-306l-6 77h145v465h29q274 41 611 112l65 -165q-253 -23 -543 -29v-109h556l-8 -76h-167v-198h244z" />
    <glyph glyph-name="uni4E53" unicode="&#x4e53;" 
d="M337 269h223v198h-223v-198zM952 193h-348q202 -90 324 -146l-97 -150q-136 98 -311 212l65 84h-545l-6 76h142v487h82q261 41 560 104l65 -165q-280 -23 -546 -29v-123h558l-9 -76h-167v-198h242z" />
    <glyph glyph-name="uni4E54" unicode="&#x4e54;" 
d="M908 180q-92 39 -170 96v-366h-158v434h76q-67 65 -123 144h-58q-61 -81 -130 -144h104q-20 -159 -73 -254q-63 -112 -195 -186l-57 57q129 106 148 323q-81 -63 -180 -111l-67 80q155 97 260 235h-236l-6 77h295q37 60 61 114q-81 -1 -248 1l-14 93q335 22 679 74
l44 -152q-137 -9 -267 -12q-27 -57 -65 -118h415l-9 -77h-257q120 -98 311 -156z" />
    <glyph glyph-name="uni4E56" unicode="&#x4e56;" 
d="M238 513h144v-451h-144v90q-122 -40 -183 -58l-22 142q53 7 205 31v74h-161l-5 75h166v97zM578 552v-645h-158v645h-369l-6 75h375v68q-138 -2 -252 1l-15 93q334 23 638 77l47 -151q-119 -9 -260 -16v-72h376l-9 -75h-367zM771 111h180l-6 -60h-181q-91 0 -121 29
q-27 27 -27 109v310h155v-108q58 45 102 82l87 -121q-110 -60 -189 -93v-148z" />
    <glyph glyph-name="uni4E58" unicode="&#x4e58;" 
d="M915 -75q-191 65 -341 201v-221h-155v195q-157 -107 -349 -176l-46 89q146 74 276 177h-60v57q-72 -31 -154 -61l-27 128q68 14 181 40v63h-147l-5 72h152v48h140v-279l39 36v268h-375l-6 74h381v52q-143 -2 -262 1l-14 93q327 22 653 72l44 -151q-138 -8 -266 -12v-55
h378l-10 -74h-368v-291q155 -125 403 -183zM943 375q-95 -29 -182 -46v-68h182l-6 -58h-184q-88 0 -115 27q-25 26 -25 105v203h148v-106q52 28 119 67z" />
    <glyph glyph-name="uni4E59" unicode="&#x4e59;" 
d="M860 42l-10 -72h-638q-92 0 -115 67q-22 64 37 132q229 262 453 511h-495l-6 84h670q57 0 72 -38q16 -37 -22 -78q-223 -238 -562 -606h616z" />
    <glyph glyph-name="uni4E5C" unicode="&#x4e5c;" 
d="M951 21l-8 -70h-539q-92 0 -133 42q-39 39 -39 121v477h-209v78h209v175h155v-175h402q27 0 46 -19t19 -46v-217q0 -141 -161 -141h-137l-9 61h141v284h-301v-570h564z" />
    <glyph glyph-name="uni4E5D" unicode="&#x4e5d;" 
d="M958 7l-10 -69h-256q-93 0 -93 98v496h-133q-23 -212 -96 -348q-84 -157 -261 -271l-73 55q139 112 202 253q54 123 67 311h-234l-6 81h244q3 98 1 241h172q-4 -163 -9 -241h228q65 0 65 -62v-544h192z" />
    <glyph glyph-name="uni4E5E" unicode="&#x4e5e;" 
d="M279 633q-74 -107 -157 -205l-94 56q91 152 184 365l187 -26q-32 -55 -67 -110h600l-9 -80h-644zM966 27l-10 -65h-746q-82 0 -100 65q-17 63 41 106q92 69 408 289h-363l-6 78h603q47 0 58 -35q12 -36 -26 -61q-248 -166 -557 -377h698z" />
    <glyph glyph-name="uni4E5F" unicode="&#x4e5f;" 
d="M936 10l-8 -66h-619q-159 0 -159 150v496h-120v78h120v103h142v-103h130v187h159v-187h237q26 0 45 -18q18 -19 18 -45v-268q0 -131 -156 -131h-107l-9 61h112v323h-140v-460h-159v460h-130v-580h644z" />
    <glyph glyph-name="uni4E60" unicode="&#x4e60;" 
d="M812 780q26 0 45 -18q18 -18 18 -44v-645q0 -79 -46 -119q-41 -35 -109 -35h-239l-8 70h242v357q-336 -178 -599 -301l-54 156q218 83 384 152q-115 112 -250 237l78 81q188 -121 306 -201l-81 -95l197 83l19 -62v304h-581l-6 80h684z" />
    <glyph glyph-name="uni4E61" unicode="&#x4e61;" 
d="M983 414q-361 -369 -907 -516l-38 106q244 89 440 212h-156q-94 0 -107 74q-14 73 66 128l90 64h-121q-81 0 -98 58q-18 57 39 108q107 99 225 215l175 -70q-206 -171 -293 -244h165q128 93 276 204l158 -92q-147 -100 -346 -239l-200 -139h226q149 106 277 247z" />
    <glyph glyph-name="uni4E66" unicode="&#x4e66;" 
d="M885 565q-93 107 -194 218l69 70q129 -94 227 -174zM501 395h113l7 223h-120v-223zM885 395q63 0 63 -53v-229q0 -60 -46 -83q-35 -18 -109 -18h-180l-7 64h182v240h-287v-407h-159v407h-279l-6 79h285v223h-198l-5 78h203v158h159v-158h230q61 0 55 -46l-17 -255h116z
" />
    <glyph glyph-name="uni4E69" unicode="&#x4e69;" 
d="M370 329h-158v-286h158v286zM349 677h197l-7 -79h-190v-197h70q60 0 84 -21q23 -20 23 -70v-340h-469v431h136v445h156v-169zM959 14l-7 -71h-195q-99 0 -136 38q-34 34 -34 123v750h167v-840h205z" />
    <glyph glyph-name="uni4E70" unicode="&#x4e70;" 
d="M64 710l-6 79h809q51 0 72 -23q20 -23 5 -61q-54 -137 -100 -242l-128 22q19 152 25 225h-677zM415 464q-127 83 -222 140l50 79q159 -60 238 -91zM606 232q-110 -255 -546 -320l-26 99q314 61 397 221h-390l-6 78h274q-144 86 -211 124l51 82q206 -70 252 -87l-58 -119
h117q26 97 24 355h186q-7 -243 -38 -355h330l-9 -78h-347zM640 216q229 -111 335 -164l-97 -143q-145 109 -308 221z" />
    <glyph glyph-name="uni4E71" unicode="&#x4e71;" 
d="M403 245h-181v-204h181v204zM392 556h203l-8 -80h-195v-154h60q58 0 83 -21q24 -21 24 -71v-267h-492v359h163v154h-201l-6 80h207v113q-73 -3 -151 -3l-21 98q226 33 446 91l56 -159q-100 -12 -168 -17v-123zM960 -2l-7 -72h-167q-102 0 -140 39q-35 35 -35 127v762h174
v-856h175z" />
    <glyph glyph-name="uni4E73" unicode="&#x4e73;" 
d="M586 650q-48 -94 -108 -175h44q47 0 61 -33q13 -32 -17 -59q-53 -47 -146 -116v-14q108 12 162 19l3 -91l-165 -35v-101q0 -78 -46 -108q-35 -23 -109 -23h-128l-11 59h134v142q-133 -24 -216 -38l-14 138q115 9 230 21v86h60q11 13 32 40l32 40h-304l-5 73h29l-52 149
l83 33q70 -103 94 -143l-88 -39h301l-55 25l7 18l-122 -38q-38 160 -42 173l87 24q50 -93 79 -153q38 104 56 169zM41 755q244 34 498 104l54 -144q-269 -41 -533 -50zM975 -5l-7 -69h-184q-95 0 -130 36q-33 34 -33 119v771h161v-857h193z" />
    <glyph glyph-name="uni4E7E" unicode="&#x4e7e;" 
d="M207 288h142v99h-142v-99zM207 539v-91h142v91h-142zM974 20l-10 -71h-347q-55 0 -74 35q-17 34 7 83q35 72 89 188q54 118 77 165h-149l-3 52l-25 -36l-46 26v-234h-132v-82h173l-8 -71h-165v-170h-153v170h-180l-5 71h185v82h-144v371h149v83h-167l-5 69h172v102h149
v-102h152l-7 -69h-145v-83h40q70 0 85 -38q41 104 101 294l183 -25q-33 -67 -66 -129h266l-7 -76h-302q-47 -77 -83 -130h296q27 0 37 -18q9 -19 -4 -43q-91 -176 -205 -414h271z" />
    <glyph glyph-name="uni4E86" unicode="&#x4e86;" 
d="M846 772q68 0 82 -55q13 -54 -39 -86q-201 -123 -273 -162v-378q0 -149 -162 -149h-177l-11 70h184v537h49q48 43 163 140h-554l-6 83h744z" />
    <glyph glyph-name="uni4E88" unicode="&#x4e88;" 
d="M892 448q51 0 69 -29q17 -28 -6 -62q-70 -103 -151 -206l-106 51l61 167h-167v-308q0 -150 -173 -150h-157l-11 67h162v391h-376l-6 79h367q-95 86 -146 130l76 82q122 -74 153 -94l171 155h-492l-6 78h671q63 0 77 -51q12 -50 -35 -81q-172 -111 -275 -170l43 -28
l-17 -21h274z" />
    <glyph glyph-name="uni4E89" unicode="&#x4e89;" 
d="M703 220v110h-134v-110h134zM569 404h134v105h-134v-105zM365 687q-70 -60 -126 -104h246l49 104h-169zM971 327h-113v-181h-289v-85q0 -130 -157 -130h-139l-9 63h145v152h-292l-6 74h298v110h-376l-6 74h382v105h-227l-2 29l-57 -42l-68 79q120 119 251 288l194 -52
q-28 -28 -58 -55h224q52 0 70 -30q17 -30 -10 -61q-24 -30 -74 -82h152q54 0 54 -54v-121h119z" />
    <glyph glyph-name="uni4E8B" unicode="&#x4e8b;" 
d="M718 141v72h-146v-72h146zM572 274h146v68h-146v-68zM418 514v90h-126v-90h126zM572 604v-90h117v90h-117zM867 279h89l-6 -71h-83v-126h-295v-23q0 -149 -151 -149h-120l-8 56h125v116h-302l-5 59h307v72h-370l-5 61h375v68h-287l-4 58h291v58h-269v201h269v59h-375
l-5 63h380v73h154v-73h392l-9 -63h-383v-59h179q82 0 82 -65v-136h-261v-58h246q49 0 49 -47v-74z" />
    <glyph glyph-name="uni4E8C" unicode="&#x4e8c;" 
d="M65 138h878l-10 -85h-862zM164 688h677l-8 -84h-663z" />
    <glyph glyph-name="uni4E8D" unicode="&#x4e8d;" 
d="M139 692l-6 79h731l-8 -79h-717zM941 423h-364v-379q0 -134 -163 -134h-159l-8 65h163v448h-353l-7 80h901z" />
    <glyph glyph-name="uni4E8E" unicode="&#x4e8e;" 
d="M957 362h-379v-297q0 -77 -47 -117q-41 -35 -110 -35h-163l-9 70h169v379h-382l-6 80h388v262h-277l-6 79h726l-8 -79h-275v-262h388z" />
    <glyph glyph-name="uni4E8F" unicode="&#x4e8f;" 
d="M160 702l-5 78h690l-9 -78h-676zM438 469l-39 -149h372q69 0 69 -59v-228q0 -112 -173 -112h-227l-7 70h228v251h-449l59 227h-232l-7 79h942l-10 -79h-526z" />
    <glyph glyph-name="uni4E91" unicode="&#x4e91;" 
d="M164 689l-6 80h695l-8 -80h-681zM549 416q-76 -111 -250 -343h402l-135 232l103 50q195 -241 276 -354l-155 -86l-47 84h-502q-75 0 -94 48q-18 45 24 111l168 258h-292l-6 81h923l-10 -81h-405z" />
    <glyph glyph-name="uni4E92" unicode="&#x4e92;" 
d="M592 294l24 171h-210l-35 -171h221zM971 53l-10 -77h-925l-6 77h529l23 166h-401l102 488h-218l-6 75h877l-9 -75h-471l-34 -167l329 1q29 0 44 -16q17 -17 11 -44l-78 -428h243z" />
    <glyph glyph-name="uni4E93" unicode="&#x4e93;" 
d="M160 686l-6 80h705l-9 -80h-690zM953 400h-173v-494h-161v494h-162q-27 -176 -95 -289q-78 -128 -231 -217l-59 66q105 84 151 195q38 90 51 245h-214l-7 82h910z" />
    <glyph glyph-name="uni4E94" unicode="&#x4e94;" 
d="M414 60h192l28 328h-173zM971 60l-10 -79h-921l-6 79h219l47 328h-160l-6 79h177l30 211h-247l-6 79h813l-9 -79h-390l-30 -211h261v-1h19q27 0 42 -13q15 -14 11 -38l-42 -355h208z" />
    <glyph glyph-name="uni4E95" unicode="&#x4e95;" 
d="M594 370v225h-157q-8 -129 -23 -225h180zM954 288h-198v-383h-162v383h-196q-49 -218 -171 -394l-100 38q83 165 113 356h-184l-7 82h201q9 95 11 225h-152l-7 80h159q0 112 -1 173h186q-1 -66 -5 -173h153v180h162v-180h151l-9 -80h-142v-225h208z" />
    <glyph glyph-name="uni4E98" unicode="&#x4e98;" 
d="M93 702l-6 77h823l-10 -77h-807zM677 213v129h-358v-129h358zM319 532v-121h358v121h-358zM721 607q67 0 96 -24q28 -23 28 -74v-371h-694v469h570zM951 44l-10 -79h-889l-6 79h905z" />
    <glyph glyph-name="uni4E9A" unicode="&#x4e9a;" 
d="M451 62h100v642h-100v-642zM980 62l-10 -78h-929l-7 78h264v135l-101 -47l-129 389l102 44l128 -256v377h-216l-7 76h864l-9 -76h-226v-369q55 134 93 249l156 -50q-90 -187 -206 -356l-43 21v-137h276z" />
    <glyph glyph-name="uni4E9B" unicode="&#x4e9b;" 
d="M529 373q-260 -87 -483 -150l-28 157l75 14v364h140v-338l47 9v409h143v-158h105l-6 -78h-99v-144l99 21zM203 147l-5 75h616l-8 -75h-603zM54 34h904l-9 -76h-889zM969 337l-6 -65h-259q-96 0 -129 33q-30 31 -30 116v429h161v-226q54 45 153 133l105 -132
q-138 -86 -258 -139v-149h263z" />
    <glyph glyph-name="uni4E9F" unicode="&#x4e9f;" 
d="M122 727l-6 71h653v-1h6q56 0 67 -49t-34 -71q-150 -73 -240 -112v-362q0 -28 -6 -51q73 64 121 142q-37 38 -107 106l55 67q51 -39 99 -78q20 52 32 104h-162l-8 67h287q32 0 42 -21q10 -20 -2 -49q-45 -113 -87 -182q63 -50 128 -104l-82 -109q-57 60 -114 117
q-59 -73 -142 -126l-65 54q-27 -67 -133 -67h-76l-12 61h85v474q34 23 183 119h-482zM260 538h-54v-273h54v273zM379 197h-290v409h208q46 0 64 -16q18 -17 18 -58v-335zM969 43l-10 -75h-916l-6 75h932z" />
    <glyph glyph-name="uni4EA0" unicode="&#x4ea0;" 
d="M973 498l-10 -81h-916l-7 81h397v103h180v-103h356z" />
    <glyph glyph-name="uni4EA1" unicode="&#x4ea1;" 
d="M351 546v-494h570l-8 -71h-553q-100 0 -139 39q-38 36 -38 124v402h-140l-7 81h387v222h165v-222h372l-10 -81h-599z" />
    <glyph glyph-name="uni4EA2" unicode="&#x4ea2;" 
d="M41 699h364v157h177v-157h373l-10 -79h-898zM966 5l-9 -65h-305q-96 0 -96 101v387h-155q-13 -201 -68 -308q-69 -137 -242 -216l-63 59q135 85 175 223q26 92 24 323h436q67 0 67 -64v-440h236z" />
    <glyph glyph-name="uni4EA4" unicode="&#x4ea4;" 
d="M44 407q85 63 265 223h-237l-7 79h363v143h165v-143h350l-10 -79h-258q172 -100 281 -168l-104 -133q-133 116 -287 243l52 58h-246l87 -102q-175 -120 -360 -210zM926 -96q-248 38 -409 155q-180 -122 -451 -162l-39 108q228 60 371 161q-77 88 -134 200l90 44
q58 -97 138 -165q83 83 145 194l150 -92q-67 -107 -150 -190q133 -56 342 -78z" />
    <glyph glyph-name="uni4EA5" unicode="&#x4ea5;" 
d="M932 390q-114 -117 -235 -203q148 -97 247 -165l-109 -131q-40 39 -240 228q-229 -139 -519 -216l-36 98q482 171 773 496zM474 448q111 89 205 195h-170q-60 -60 -200 -195h165zM959 717l-10 -74h-256l113 -98q-281 -290 -679 -426l-44 93q162 72 305 172h-141
q-67 0 -84 44q-17 42 25 88l113 127h-254l-6 74h372v137h174v-137h372z" />
    <glyph glyph-name="uni4EA6" unicode="&#x4ea6;" 
d="M822 115q-16 43 -109 273v-327q0 -142 -162 -142h-113l-8 67h117v616h-73q-15 -264 -76 -404q-77 -176 -270 -290l-66 57q208 157 235 460q-93 -168 -154 -268l-126 87q109 144 196 261l86 -48q5 75 5 145h-244l-6 77h371v167h159v-167h379l-10 -77h-240v-145l74 37
q134 -213 180 -298z" />
    <glyph glyph-name="uni4EA7" unicode="&#x4ea7;" 
d="M375 660q90 -174 99 -195l-96 -29h182q44 105 87 224h-272zM814 613q-53 -93 -114 -177h234l-9 -76h-617q-42 -290 -223 -453l-76 47q118 155 130 483h176q-23 96 -49 200l87 23h-260l-6 75h363v117h171v-117h316l-9 -75h-242z" />
    <glyph glyph-name="uni4EA8" unicode="&#x4ea8;" 
d="M811 338q57 0 69 -55q12 -54 -37 -73q-138 -53 -267 -90v-78q0 -82 -50 -111q-35 -21 -117 -21h-186l-11 56h192v243h98l114 58h-518l-6 71h719zM671 568h-352v-97h352v97zM827 409h-663v221h570q93 0 93 -73v-148zM957 766l-10 -70h-907l-6 70h381v89h161v-89h381z" />
    <glyph glyph-name="uni4EA9" unicode="&#x4ea9;" 
d="M715 45v188h-137v-188h137zM278 45h138v188h-138v-188zM278 460v-153h138v153h-138zM715 460h-137v-153h137v153zM750 537q72 0 103 -25t31 -79v-466h-774v570h640zM976 718l-9 -78h-935l-6 78h393v135h165v-135h392z" />
    <glyph glyph-name="uni4EAB" unicode="&#x4eab;" 
d="M951 702h-902l-6 70h386v76h158v-76h374zM679 585h-361v-117h361v117zM736 648q92 0 92 -73v-170h-659v243h567zM964 97h-362v-61q0 -78 -46 -106q-33 -20 -109 -20h-169l-10 54h174v133h-385l-6 69h391v67h79l80 40h-457l-6 70h597l2 1h56q49 0 59 -45t-31 -62
q-95 -40 -194 -71h346z" />
    <glyph glyph-name="uni4EAC" unicode="&#x4eac;" 
d="M49 722h363v132h168v-132h369l-10 -78h-884zM381 150q-139 -129 -258 -228l-84 138q141 88 273 180zM321 331h358v156h-358v-156zM583 256v-230q0 -69 -48 -96q-38 -21 -114 -21h-121l-8 60h125v287h-251v306h561q108 0 108 -87v-219h-252zM691 240q171 -115 263 -181
l-107 -126q-117 123 -228 231z" />
    <glyph glyph-name="uni4EAD" unicode="&#x4ead;" 
d="M70 775h352v80h158v-80h352l-9 -64h-848zM662 597h-323v-91h323v91zM734 655q90 0 90 -71v-135h-647v206h557zM213 224h578l-8 -64h-202v-145q0 -63 -47 -86q-35 -18 -110 -18h-139l-8 53h144v196h-203zM909 386q41 -1 41 -42v-165h-148v142h-607v-142h-140v207h854z" />
    <glyph glyph-name="uni4EAE" unicode="&#x4eae;" 
d="M58 771h347v83h168v-83h347l-9 -65h-848zM654 593h-332v-82h332v82zM717 653q87 0 87 -70v-132h-630v202h543zM203 184h-147v208h833q47 0 47 -42v-157h-149v132h-584v-141zM968 -16l-8 -54h-295q-95 0 -95 101v141h-134q-21 -107 -94 -164q-87 -66 -278 -93l-25 81
q146 28 195 88q35 45 41 156h380v-1h23q65 0 65 -61v-194h225z" />
    <glyph glyph-name="uni4EB2" unicode="&#x4eb2;" 
d="M334 682q101 -137 95 -128l-68 -30h198q39 94 60 158h-285zM589 242v-200q0 -130 -162 -130h-121l-8 64h125v266h-120l71 -84q-120 -125 -244 -237l-88 132q142 98 259 189h-201l-6 78h329v126h-395l-7 78h250l-41 125l84 33h-205l-5 76h320v97h153v-97h312l-9 -76h-214
l107 -41q-41 -67 -78 -117h277l-10 -78h-373v-126h310l-9 -78h-301zM696 241q192 -131 273 -190l-108 -125q-135 140 -238 239z" />
    <glyph glyph-name="uni4EB3" unicode="&#x4eb3;" 
d="M60 776h361v78h161v-78h363l-9 -63h-871zM665 612h-331v-77h331v77zM739 665q82 0 82 -65v-117h-642v182h560zM501 158l422 20l-6 -62l-416 -20v-100h407l-6 -63h-405q-92 0 -122 29q-29 28 -29 110v17l-279 -13l-8 62l287 13v51q-76 -2 -114 -2l-14 77q258 23 504 71
l39 -120q-142 -15 -260 -20v-50zM898 425q46 0 46 -41v-149h-149v129h-582v-124h-150v186h819v-1h16z" />
    <glyph glyph-name="uni4EB5" unicode="&#x4eb5;" 
d="M56 786h364v71h143v-71h392l-9 -68h-885zM713 443l7 122h-41q-11 -57 -29 -99zM782 307q-80 0 -73 81l2 32l-43 -88q-25 15 -75 43q-32 -35 -74 -64l-58 36q31 31 53 72l-80 43l41 67l69 -25q6 30 9 61h-114v57h117q1 24 1 77h136q-2 -41 -6 -77h112q55 0 49 -56
l-17 -212h90l-7 -47h-132zM200 393l-139 -18l-6 123q98 2 145 4v67h-113l-5 66h118v67h136v-67h91l-6 -66h-85v-62l97 5l-2 -83l-95 -15v-53q0 -60 -40 -82q-30 -17 -95 -17h-76l-7 48h82v83zM401 58q60 14 131 33q-58 43 -109 100l-22 -10v-123zM925 -64q-233 34 -392 154
l21 -78q-209 -79 -323 -117l-24 118l55 12v101q-112 -40 -215 -68l-33 76q241 85 421 205l163 -60q-39 -23 -91 -48q38 -30 76 -52q65 56 116 116l123 -91q-60 -41 -128 -75q112 -38 269 -52z" />
    <glyph glyph-name="uni4EBA" unicode="&#x4eba;" 
d="M609 852q-19 -183 -56 -313q171 -308 443 -497l-140 -134q-222 180 -360 467q-122 -284 -400 -475l-67 76q209 167 295 385q68 172 92 491h193z" />
    <glyph glyph-name="uni4EBB" unicode="&#x4ebb;" 
d="M699 800q-69 -108 -125 -183v-713h-156v526q-58 -61 -104 -105l-77 72q126 157 280 461z" />
    <glyph glyph-name="uni4EBF" unicode="&#x4ebf;" 
d="M966 36l-12 -77h-491q-76 0 -99 50q-22 49 14 116q200 373 290 530h-308l-1 18q-33 -48 -66 -93v-664h-153v482q-38 -40 -58 -60l-79 69q115 153 259 455l182 -55l-45 -73h431q43 0 56 -27q12 -27 -10 -64q-152 -256 -353 -607h443z" />
    <glyph glyph-name="uni4EC0" unicode="&#x4ec0;" 
d="M486 801q-84 -124 -166 -224v-671h-156v501q-24 -24 -78 -74l-78 77q131 157 289 454zM975 450h-243v-542h-161v542h-231l-6 83h237v320h161v-320h252z" />
    <glyph glyph-name="uni4EC1" unicode="&#x4ec1;" 
d="M404 685q-52 -76 -97 -135v-641h-155v458q-27 -30 -55 -58l-81 72q119 163 270 475l193 -54q-42 -68 -68 -106h491l-7 -82h-486zM986 155l-9 -83h-649l-6 83h664z" />
    <glyph glyph-name="uni4EC2" unicode="&#x4ec2;" 
d="M461 807q-81 -130 -152 -223v-678h-149v499l-64 -67l-82 70q108 148 255 452zM879 624q54 -5 54 -57v-504q0 -128 -149 -128h-177l-8 65h180v543h-101q-51 -381 -260 -648l-89 45q155 247 183 603h-159l-5 81h169q5 105 6 225h179q-4 -118 -15 -225h192z" />
    <glyph glyph-name="uni4EC3" unicode="&#x4ec3;" 
d="M973 693h-178v-627q0 -80 -48 -120q-43 -35 -114 -35h-144l-8 71h148v711h-241l-4 50q-45 -81 -89 -146v-695h-149v496q-2 -3 -56 -65l-85 65q93 143 228 465l190 -51l-20 -37h579z" />
    <glyph glyph-name="uni4EC4" unicode="&#x4ec4;" 
d="M302 722q-7 -276 -38 -434q-41 -203 -145 -370l-99 34q113 254 104 847h824l-9 -77h-637zM697 686q-15 -153 -47 -272q124 -234 328 -380l-137 -122q-153 133 -248 345q-98 -207 -313 -350l-65 68q164 134 229 311q50 136 67 400h186z" />
    <glyph glyph-name="uni4EC5" unicode="&#x4ec5;" 
d="M874 760q74 0 56 -89q-55 -270 -186 -458q101 -98 249 -172l-127 -138q-133 79 -229 184q-108 -107 -259 -182l-63 77q141 89 238 216q-114 174 -176 449l101 30q67 -207 162 -341q78 154 109 357h-348l-5 41q-33 -57 -83 -136v-692h-152v484q-34 -42 -72 -84l-85 66
q103 158 243 489l191 -52l-27 -49h463z" />
    <glyph glyph-name="uni4EC6" unicode="&#x4ec6;" 
d="M447 818q-60 -118 -125 -223v-691h-158v462q-21 -28 -67 -84l-84 63q110 178 246 517zM867 231q-102 122 -205 241v-564h-165v950h165v-310l37 42q172 -136 275 -227z" />
    <glyph glyph-name="uni4EC7" unicode="&#x4ec7;" 
d="M411 811q-61 -119 -137 -232v-672h-150v476l-36 -41l-76 59q108 159 230 455zM969 -3l-9 -66h-200q-88 0 -88 93v525h-85q-26 -397 -201 -641l-86 34q130 237 138 607h-102l-5 71h108q1 69 -1 228h158q-2 -155 -5 -228h175q61 0 61 -58v-565h142z" />
    <glyph glyph-name="uni4EC9" unicode="&#x4ec9;" 
d="M967 14l-10 -75h-212q-93 0 -93 98v677h-64q-19 -519 -204 -815l-88 34v-30h-155v446l-48 -63l-85 59q96 166 224 510l188 -41q-64 -131 -124 -233v-627q119 271 116 841h326q35 0 58 -17q23 -18 23 -48v-716h148z" />
    <glyph glyph-name="uni4ECA" unicode="&#x4eca;" 
d="M804 370q49 0 63 -36q13 -35 -15 -70q-178 -229 -294 -363l-97 65q94 171 171 324h-478l-6 80h255v159h167v-159h234zM636 821l-51 -68q144 -152 400 -245l-86 -151q-228 107 -386 312q-182 -200 -424 -323l-68 90q254 168 411 428z" />
    <glyph glyph-name="uni4ECB" unicode="&#x4ecb;" 
d="M897 382q-80 29 -143 65v-540h-162v595h77q-98 73 -178 179q-93 -105 -207 -190h144q-18 -218 -71 -339q-66 -150 -221 -249l-68 55q106 93 146 221q30 99 34 287q-57 -41 -143 -87l-68 85q234 160 374 404l194 -39q-11 -17 -43 -60q145 -161 413 -232z" />
    <glyph glyph-name="uni4ECD" unicode="&#x4ecd;" 
d="M879 465q27 0 44 -14q19 -16 19 -41v-355q0 -116 -155 -116h-196l-7 65h198v388h-148l46 314h-83q-5 -295 -38 -441q-46 -203 -177 -354l-89 37q95 149 121 343q17 124 12 415h-53l-4 49q-36 -69 -85 -147v-702h-150v492l-44 -53l-83 59q83 134 212 459l183 -45l-17 -33
h413q26 0 40 -13t10 -35l-52 -272h83z" />
    <glyph glyph-name="uni4ECE" unicode="&#x4ece;" 
d="M833 -89q-102 149 -166 348q-80 -206 -223 -355l-100 37q116 151 172 363l-124 -111l-88 149q-65 -231 -180 -425l-106 32q145 311 182 892l190 -6q-16 -188 -48 -337q125 -125 177 -183q52 203 65 541l191 -3q-7 -208 -45 -382q106 -276 269 -464z" />
    <glyph glyph-name="uni4ED1" unicode="&#x4ed1;" 
d="M894 361q-208 118 -377 321q-100 -99 -215 -186h83v-196q140 78 303 193l109 -155q-205 -110 -412 -180v-141h472l-7 -69h-461q-99 0 -137 36q-35 34 -35 122v329q-70 -47 -122 -77l-70 89q237 180 409 415l208 -48l-51 -57q147 -137 395 -248z" />
    <glyph glyph-name="uni4ED3" unicode="&#x4ed3;" 
d="M699 486q-97 76 -196 187q-103 -103 -228 -187h424zM888 361q-73 41 -136 85q2 -8 2 -14v-189q0 -59 -48 -81q-35 -16 -113 -16h-144l-7 64h146v198h-211v-400h503l-7 -68h-491q-95 0 -132 36q-34 33 -34 118v355q-69 -41 -131 -70l-62 88q254 158 411 399l199 -46
q-19 -24 -57 -70q153 -135 401 -239z" />
    <glyph glyph-name="uni4ED4" unicode="&#x4ed4;" 
d="M976 329h-244v-276q0 -146 -155 -146h-142l-11 70h148v352h-267l-6 79h273v135h31q94 155 97 161h-301l-5 66q-63 -118 -109 -190v-674h-153v459q-40 -49 -43 -52l-84 61q92 148 226 484l184 -47l-17 -32h451q52 0 67 -36q14 -34 -16 -67q-90 -100 -168 -178v-90h253z
" />
    <glyph glyph-name="uni4ED5" unicode="&#x4ed5;" 
d="M480 807q-92 -139 -180 -243v-660h-152v496l-68 -64l-75 75q137 162 293 456zM730 454v-404h230l-9 -77h-603l-6 77h229v404h-240l-6 79h246v321h159v-321h253l-8 -79h-245z" />
    <glyph glyph-name="uni4ED6" unicode="&#x4ed6;" 
d="M398 820q-58 -114 -117 -208v-706h-149v496q-17 -22 -46 -56l-81 58q92 149 214 457zM967 4l-8 -65h-437q-88 0 -124 36q-34 33 -34 112v445h-54l-5 63h59v124h149v-124h52v259h152v-259h158q24 0 41 -17q16 -16 16 -41v-307q0 -64 -42 -88q-33 -19 -102 -19h-57l-7 58
h61v351h-68v-467h-152v467h-52v-528h454z" />
    <glyph glyph-name="uni4ED7" unicode="&#x4ed7;" 
d="M442 811q-64 -114 -131 -210v-689h-153v492q-24 -28 -72 -80l-80 67q112 158 253 472zM903 -100q-176 49 -287 145q-95 -86 -239 -150l-61 66q139 78 217 172q-102 134 -153 361l98 32q50 -164 133 -263q49 114 60 291h-333l-5 78h342q3 90 1 220l172 -1q-4 -147 -8 -219
h137l-8 -78h-136q-24 -245 -115 -387q104 -68 275 -108z" />
    <glyph glyph-name="uni4ED8" unicode="&#x4ed8;" 
d="M462 801q-68 -108 -142 -204v-688h-158v504q-63 -63 -77 -76l-76 72q125 158 271 450zM974 532h-144v-463q0 -81 -47 -124q-42 -38 -110 -38h-156l-8 72h161v553h-317l-6 80h323v239h160v-239h153zM525 156q-76 129 -139 231l79 64q125 -129 178 -190z" />
    <glyph glyph-name="uni4ED9" unicode="&#x4ed9;" 
d="M438 814q-88 -137 -163 -229h9v-681h-147v525q-39 -39 -59 -58l-75 68q121 152 258 426zM945 661v-694h-450q-88 0 -122 33q-31 31 -31 110v542h149v-622h80v817h152v-817h76v631h146z" />
    <glyph glyph-name="uni4EDD" unicode="&#x4edd;" 
d="M578 35h328l-9 -78h-794l-6 78h328v297h-213l-5 77h588q-168 97 -294 257q-166 -207 -420 -316l-59 81q274 149 409 429l178 -34q-26 -45 -46 -75q146 -154 404 -242l-80 -147q-37 16 -91 46l-8 -76h-210v-297z" />
    <glyph glyph-name="uni4EDE" unicode="&#x4ede;" 
d="M867 761q26 0 43 -17q18 -17 18 -42v-632q0 -143 -149 -143h-175l-7 67h177v687h-69q-14 -279 -66 -434q-65 -195 -225 -339l-81 49q121 141 162 322q30 134 33 402h-125l-5 66q-44 -70 -100 -148v-291q51 124 103 254l107 -31q-56 -216 -74 -282l-136 49v-388h-149v509
q-33 -36 -69 -72l-79 68q110 147 251 444l181 -55l-26 -43h460z" />
    <glyph glyph-name="uni4EDF" unicode="&#x4edf;" 
d="M966 338h-239v-433h-161v433h-244l-6 79h250v234q-90 -9 -177 -15l-14 61q-35 -58 -78 -118v-674h-156v477q-35 -39 -56 -61l-80 67q111 155 253 472l183 -52q-8 -16 -40 -69q214 42 462 116l59 -156q-67 -11 -195 -29v-253h247z" />
    <glyph glyph-name="uni4EE1" unicode="&#x4ee1;" 
d="M426 807q-67 -115 -140 -217v-685h-153v495q-14 -16 -40 -44l-81 64q100 145 229 435zM969 14l-9 -64h-512q-67 0 -85 49q-18 46 22 94q164 200 264 313h-237l-2 37l-36 -42l-83 60q79 130 194 394l193 -33q-23 -39 -69 -111h353l-8 -77h-397q-53 -75 -115 -152h401
q36 0 46 -26q10 -25 -14 -51q-169 -180 -364 -391h458z" />
    <glyph glyph-name="uni4EE3" unicode="&#x4ee3;" 
d="M778 577q-35 64 -105 188l84 55q112 -114 146 -153zM442 811q-60 -107 -128 -206v-701h-155v500q-23 -26 -73 -80l-80 67q111 155 253 472zM976 -17l-7 -69h-200q-60 0 -83 18q-22 17 -32 68l-90 395l-216 -49l-24 80l222 51l-85 375h165q22 -92 75 -340l254 58l10 -84
l-246 -56l99 -447h158z" />
    <glyph glyph-name="uni4EE4" unicode="&#x4ee4;" 
d="M786 386q53 -5 64 -48q10 -43 -29 -75q-133 -111 -228 -185l141 -48l-79 -147q-209 104 -459 220l62 86q130 -42 195 -64q131 154 154 182h-473l-6 79h274v145h171v-145h213zM652 819q-38 -46 -71 -82q147 -130 395 -202l-79 -155q-229 93 -392 281q-187 -177 -431 -289
l-60 90q270 160 437 405z" />
    <glyph glyph-name="uni4EE5" unicode="&#x4ee5;" 
d="M469 479q-65 109 -173 280l86 68q152 -160 216 -236zM448 270q-178 -148 -341 -267l-77 146l65 37v602h152v-511l152 95zM856 -85q-89 115 -194 245q-106 -142 -272 -257l-63 71q208 165 294 380q68 169 95 487h179q-38 -355 -164 -577q172 -148 259 -231z" />
    <glyph glyph-name="uni4EE8" unicode="&#x4ee8;" 
d="M380 713q-31 -50 -77 -118v-690h-162v485q-33 -37 -53 -58l-80 66q104 147 245 460l182 -51q-32 -56 -48 -82h550l-8 -77h-545zM413 339l-6 77h499l-8 -77h-485zM984 97l-9 -79h-648l-6 79h663z" />
    <glyph glyph-name="uni4EEA" unicode="&#x4eea;" 
d="M607 590q-79 172 -101 218l97 48q133 -167 147 -187zM962 735q-72 -312 -226 -521q105 -112 253 -199l-131 -126q-132 90 -226 203q-108 -110 -248 -190l-75 71q140 108 236 240q-115 190 -176 472q-34 -49 -67 -91v-687h-153v513q-42 -42 -64 -63l-77 70
q114 144 254 427l181 -57q-16 -26 -48 -74l66 19q68 -233 170 -391q94 174 147 413z" />
    <glyph glyph-name="uni4EEB" unicode="&#x4eeb;" 
d="M458 804q-74 -118 -159 -226v-671h-152v498l-66 -65l-76 72q127 161 271 450zM779 783q-171 -245 -385 -429l-74 75q128 146 279 417zM852 -92l-30 75h-368q-83 0 -99 59q-15 57 43 131q79 102 349 461l156 -86q-166 -223 -403 -489h292l-82 199l94 48q137 -225 189 -320
z" />
    <glyph glyph-name="uni4EEC" unicode="&#x4eec;" 
d="M879 781q25 0 42 -17t17 -41v-675q0 -137 -143 -137h-108l-7 64h111v729h-180l-122 -93l-20 35v-740h-147v752h140q-38 65 -79 132q-52 -90 -109 -170v-715h-146v532l-22 -24q-15 -17 -23 -25l-75 60q98 137 220 412l170 -44l-3 -5l66 46q116 -113 141 -141l-4 65h281z
" />
    <glyph glyph-name="uni4EF0" unicode="&#x4ef0;" 
d="M582 313v373q-47 -11 -103 -21v-376l77 60zM897 760q24 0 41 -14q16 -15 16 -38v-519q0 -115 -137 -115h-77l-7 55h80v556h-87v-785h-144v325q-110 -113 -207 -201l-84 127l40 29v488q-30 -49 -72 -110v-652h-149v462l-24 -27l-82 62q95 144 224 454l183 -49l-22 -41
q75 36 152 84l58 -91h298z" />
    <glyph glyph-name="uni4EF2" unicode="&#x4ef2;" 
d="M785 605h-79v-317h79v317zM484 288h69v317h-69v-317zM947 203h-238v-297h-159v297h-227v449l-45 -68v-679h-152v480q-18 -23 -37 -43l-82 63q95 145 224 451l185 -45q-42 -76 -70 -121h204v166h159v-166h113q68 0 97 -24q28 -24 28 -78v-385z" />
    <glyph glyph-name="uni4EF3" unicode="&#x4ef3;" 
d="M984 557q-82 -86 -196 -148v-411h164l-6 -68h-157q-95 0 -130 36q-32 33 -32 118v28q-107 -90 -246 -193l-66 138l41 22v689q-26 -55 -65 -129v-736h-162v474l-40 -55l-84 54q87 161 200 492l180 -37l-5 -11h130v-281h111l-6 -79h-105v-295q16 10 48 28l48 28l21 -93v727
h161v-303q50 45 96 107z" />
    <glyph glyph-name="uni4EF5" unicode="&#x4ef5;" 
d="M418 811q-61 -114 -127 -212v-691h-153v490q-24 -28 -37 -42l-82 62q92 140 217 442zM973 284h-237v-378h-155v378h-252l-6 81h258v259h-43q-58 -102 -131 -194l-89 47q89 150 158 383l167 -19q-30 -72 -63 -138h376l-7 -79h-213v-259h246z" />
    <glyph glyph-name="uni4EF6" unicode="&#x4ef6;" 
d="M412 814q-70 -136 -138 -243h2v-662h-150v455q-26 -32 -40 -48l-83 61q98 158 225 483zM978 230h-223v-325h-158v325h-295l-6 80h301v228h-115q-45 -105 -98 -193l-93 37q59 143 102 377l164 -14q-23 -75 -43 -127h83v237h158v-237h189l-8 -80h-181v-228h232z" />
    <glyph glyph-name="uni4EF7" unicode="&#x4ef7;" 
d="M894 376q-37 20 -72 42v-500h-147v572h56q-75 72 -127 166q-58 -91 -137 -176h128q-28 -365 -172 -573l-87 35q82 176 87 493q-31 -30 -73 -65l-62 47v-511h-149v477l-34 -35l-79 68q105 143 250 442l184 -51q-80 -133 -172 -251v-102q149 167 238 410l179 -24l-39 -79
q99 -160 315 -244z" />
    <glyph glyph-name="uni4EFB" unicode="&#x4efb;" 
d="M726 327v-282h235l-8 -79h-608l-6 79h231v282h-253l-6 79h259v214q-84 -7 -190 -10l-22 97q-30 -50 -64 -101v-700h-150v498q-27 -33 -57 -66l-82 63q95 145 224 451l185 -46q-18 -33 -54 -95q267 41 519 120l64 -162q-118 -20 -217 -33v-230h253l-9 -79h-244z" />
    <glyph glyph-name="uni4EFD" unicode="&#x4efd;" 
d="M435 815q-71 -139 -137 -242v-665h-146v461q-40 -49 -43 -52l-84 61q92 148 226 484zM888 409v-375q0 -108 -143 -108h-129l-7 60h132v406h-90q-18 -172 -65 -276q-56 -122 -176 -210l-65 48q80 82 112 194q24 85 31 244h-54l-2 31q-16 -22 -40 -53l-83 51
q61 112 158 407l175 -38q-80 -178 -179 -323h330q-88 148 -153 357l99 28q109 -216 259 -369z" />
    <glyph glyph-name="uni4EFF" unicode="&#x4eff;" 
d="M652 587q-9 -109 -18 -166h207q61 0 61 -54v-336q0 -108 -149 -108h-162l-7 62h165v357h-129q-56 -264 -235 -442l-81 47q99 129 136 290q29 125 34 350h-140l-3 46q5 8 -37 -52v-676h-146v493q-17 -20 -54 -59l-80 66q105 148 245 460l182 -52q-43 -76 -88 -146h220v179
h164v-179h236l-8 -80h-313z" />
    <glyph glyph-name="uni4F01" unicode="&#x4f01;" 
d="M908 423q-232 81 -407 263q-192 -166 -432 -267l-52 85q263 139 429 362l187 -49q-28 -31 -59 -62q153 -123 404 -186zM584 43h372l-10 -77h-902l-6 77h141v387h150v-387h103v549h152v-247h260l-6 -75h-254v-227z" />
    <glyph glyph-name="uni4F09" unicode="&#x4f09;" 
d="M329 652l-39 -60v-687h-149v489q-34 -40 -52 -60l-85 65q90 138 229 465l190 -51q-52 -93 -71 -124h198v166h168v-166h244l-9 -80h-621zM971 -6l-8 -63h-198q-90 0 -90 96v391h-97q-9 -176 -43 -281q-43 -131 -143 -227l-84 38q73 102 94 245q13 93 9 305h363
q62 0 62 -59v-445h135z" />
    <glyph glyph-name="uni4F0A" unicode="&#x4f0a;" 
d="M750 352v146h-100q-10 -84 -22 -146h122zM663 710q-1 -51 -7 -138h94v138h-87zM969 502h-64v-226h-296q-60 -216 -226 -375l-81 46q119 147 159 329h-144l-6 76h164q9 58 14 146h-192l-6 74h201q2 88 2 138h-129l-3 41q-44 -81 -91 -155v-688h-152v478l-34 -41l-83 60
q83 134 212 459l183 -46l-17 -33h468q57 0 57 -57v-150h70z" />
    <glyph glyph-name="uni4F0D" unicode="&#x4f0d;" 
d="M596 51h128l20 328h-101zM982 51l-8 -79h-672l-6 79h145l47 328h-137l-6 78h154l34 237h-158l-2 20q-46 -74 -86 -130h4v-676h-153v488q-27 -31 -57 -63l-78 65q119 164 256 474l177 -51q-5 -10 -14 -25l-14 -24h542l-8 -78h-254l-34 -237h199q54 -2 46 -47l-31 -359h114
z" />
    <glyph glyph-name="uni4F0E" unicode="&#x4f0e;" 
d="M285 -2q139 50 236 135q-82 87 -152 208l90 45q67 -92 151 -159q59 79 93 170h-362l-9 77h206v144h-215l-1 10q-24 -34 -37 -51v-579zM916 -107q-166 52 -292 147q-127 -96 -296 -137l-43 71v-66h-152v490q-16 -18 -51 -53l-78 68q107 143 250 444l182 -55
q-18 -30 -67 -106h169v158h155v-158h255l-8 -78h-247v-144h150q46 0 59 -33q12 -30 -10 -68q-76 -137 -154 -226q102 -52 251 -89z" />
    <glyph glyph-name="uni4F0F" unicode="&#x4f0f;" 
d="M688 463q106 -283 311 -447l-150 -112q-154 154 -231 390q-75 -222 -251 -396l-78 48v-38h-149v478q-27 -30 -55 -58l-76 67q120 159 262 455l178 -50q-74 -124 -160 -238v-607q172 212 209 508h-183l-6 77h198q10 123 12 313h179l-2 -43q-2 -28 -2 -41l81 44
q117 -141 129 -157l-119 -73l-91 183q-9 -138 -21 -226h285l-8 -77h-262z" />
    <glyph glyph-name="uni4F10" unicode="&#x4f10;" 
d="M455 807q-71 -118 -146 -216v-686h-156v500q-34 -36 -54 -56l-79 68q111 149 250 441zM973 -14l-8 -73h-218q-63 0 -87 20q-22 18 -32 74l-23 109q-102 -59 -230 -109l-50 92q128 65 251 159l-47 224l-192 -35l-19 74l195 36l-61 295h177l54 -264l96 18q-42 63 -112 163
l75 65q120 -99 151 -127l-105 -100l145 27l6 -76l-241 -45l25 -123q59 61 107 123l132 -102q-100 -113 -205 -193l47 -232h169z" />
    <glyph glyph-name="uni4F11" unicode="&#x4f11;" 
d="M850 11q-83 113 -152 256v-360h-156v351q-87 -138 -214 -277l-33 167q147 170 227 384h-202l-5 71l-24 -33v-662h-153v482q-15 -16 -47 -48l-79 68q107 143 250 444l182 -55q-65 -108 -123 -188h221v241h156v-241h257l-9 -79h-243q125 -248 291 -423z" />
    <glyph glyph-name="uni4F17" unicode="&#x4f17;" 
d="M899 370q-68 32 -126 67q-15 -79 -39 -150q89 -134 259 -239l-105 -141q-127 101 -211 248q-87 -162 -241 -260l-82 56q199 165 248 543l96 -7q-103 76 -203 183q-90 -99 -200 -180l123 -9q-16 -80 -39 -155q143 -97 152 -104l-104 -126l-92 115q-86 -185 -234 -300
l-86 52q161 162 216 482q-69 -46 -143 -83l-66 87q249 163 401 416l196 -42q-30 -42 -55 -72q165 -127 411 -209z" />
    <glyph glyph-name="uni4F18" unicode="&#x4f18;" 
d="M426 813q-63 -119 -131 -223v-683h-152v478q-27 -33 -57 -66l-79 62q111 163 242 479zM968 -16l-6 -62h-180q-95 0 -126 31q-28 28 -28 113v293q-54 -272 -248 -450l-84 44q176 209 193 556h-164l-6 80h172q1 50 -1 260h172q-2 -151 -7 -260h138q-51 84 -98 154l76 57
q113 -106 147 -141l-85 -70h131l-8 -80h-307q-6 -61 -15 -120h156v-405h178z" />
    <glyph glyph-name="uni4F19" unicode="&#x4f19;" 
d="M724 373q95 -222 269 -361l-149 -111q-134 134 -203 331q-79 -197 -281 -331l-68 49v-39h-156v477q-36 -40 -55 -60l-80 66q113 160 253 473l183 -53q-74 -130 -145 -229v-621q187 162 229 409l-86 -49q-58 147 -117 290l90 47q89 -141 125 -201q10 120 5 397h179
q-4 -279 -22 -411l11 -29q66 129 123 269l150 -63q-85 -144 -201 -282z" />
    <glyph glyph-name="uni4F1A" unicode="&#x4f1a;" 
d="M697 502q-108 69 -198 166q-102 -93 -218 -166h416zM248 482q-85 -51 -177 -90l-56 87q262 146 426 378l194 -49q-20 -23 -60 -67q149 -121 408 -185l-75 -157q-93 33 -179 83l-6 -55h-471zM61 314h855l-10 -77h-400q-52 -47 -126 -111l-93 -82h379q-47 68 -86 121l86 63
q155 -143 231 -224l-130 -105l-42 61h-515q-76 0 -94 53q-17 50 33 100q52 52 121 124h-203z" />
    <glyph glyph-name="uni4F1B" unicode="&#x4f1b;" 
d="M979 10l-8 -66h-463q-88 0 -125 37q-35 35 -35 114v635q-43 -74 -69 -112v-710h-144v518l-52 -59l-79 60q90 132 213 430l175 -47l-21 -38h583l-7 -74h-451v-595q87 111 154 246l-145 244l83 57q82 -110 122 -165q38 100 61 184l154 -36q-49 -149 -120 -278
q75 -103 144 -207l-127 -92l-99 169q-65 -91 -149 -174l-78 50v-91h483z" />
    <glyph glyph-name="uni4F1E" unicode="&#x4f1e;" 
d="M926 439q-246 74 -431 250q-195 -142 -427 -246l-50 82q259 143 443 338l184 -54q-23 -20 -69 -58q161 -113 416 -164zM613 284q68 112 116 212l136 -77q-77 -98 -176 -190zM250 230l-89 227l93 38q127 -192 133 -202zM570 215h404l-10 -76h-394v-233h-159v233h-372
l-6 76h378v394h159v-394z" />
    <glyph glyph-name="uni4F1F" unicode="&#x4f1f;" 
d="M675 646v-112h237l-8 -75h-229v-117h207q61 0 61 -51v-193q0 -55 -44 -75q-32 -15 -105 -15h-94l-6 59h96v200h-115v-363h-155v363h-205l-6 75h211v117h-155l-6 75h161v112h-181l-3 39q-27 -47 -60 -100v-676h-152v464q-24 -30 -37 -45l-81 59q99 156 222 472l177 -45
q-16 -32 -48 -92h163v132h155v-132h284l-8 -76h-276z" />
    <glyph glyph-name="uni4F20" unicode="&#x4f20;" 
d="M613 477l-32 -125h262q52 0 67 -35q15 -33 -15 -66q-78 -84 -172 -172q28 -12 119 -53l-89 -135q-191 120 -391 235l65 81q60 -25 180 -77l91 150h-296l50 197h-153l-5 75h177l29 117h-135l-5 64q-46 -87 -89 -158v-669h-143v459l-38 -49l-85 58q85 147 212 486l186 -40
l-38 -77h154l28 112h161l-28 -112h241l-8 -74h-252l-29 -117h342l-8 -75h-353z" />
    <glyph glyph-name="uni4F22" unicode="&#x4f22;" 
d="M966 379h-118v-313q0 -149 -157 -149h-140l-8 69h145v308q-136 -187 -334 -302l-71 74q170 127 268 313h-193l52 267h136l-37 -190h179v264h-291l-5 64q-49 -91 -109 -181v-697h-149v498q-16 -19 -50 -57l-79 61q98 145 228 455l176 -47l-10 -18h564l-8 -78h-107v-264
h126z" />
    <glyph glyph-name="uni4F24" unicode="&#x4f24;" 
d="M449 809q-74 -124 -156 -234v-668h-153v488q-17 -19 -53 -55l-78 68q117 158 258 456zM563 626q-14 -19 -42 -55h174q-3 -76 -9 -143h183q28 0 46 -15q19 -16 19 -42v-329q0 -116 -161 -116h-176l-7 66h178v358h-91q-45 -299 -285 -441l-71 54q169 134 191 387h-173
l-6 78h183q1 43 1 138q-53 -66 -113 -128l-79 60q76 109 187 365l172 -48q-24 -43 -67 -111h357l-7 -78h-404z" />
    <glyph glyph-name="uni4F25" unicode="&#x4f25;" 
d="M411 820q-61 -119 -123 -217v-698h-153v483q-14 -18 -44 -54l-81 59q97 154 222 469zM575 409v-270l96 33l28 -100q-199 -101 -329 -160l-43 148q30 9 92 29v320h-109l-6 77h115v357h156v-252q107 110 208 240l118 -104q-127 -118 -272 -213l-54 64v-92h392l-9 -77h-221
q95 -239 252 -403l-162 -100q-140 192 -206 503h-46z" />
    <glyph glyph-name="uni4F26" unicode="&#x4f26;" 
d="M576 6h337l-7 -63h-330q-92 0 -124 32q-31 30 -31 112v355q-45 -37 -97 -70l-32 31v-498h-159v498q-30 -32 -46 -48l-81 70q102 140 246 440l192 -53q-74 -121 -152 -222v-107q162 150 260 368l182 -29q-21 -39 -42 -71q121 -128 295 -218l-96 -132q-146 93 -262 258
q-63 -85 -139 -157h86v-200q89 62 203 161l108 -135q-151 -98 -311 -161v-161z" />
    <glyph glyph-name="uni4F27" unicode="&#x4f27;" 
d="M750 488q-70 79 -130 174q-68 -95 -155 -174h285zM535 -8h376l-7 -66h-368q-95 0 -130 34q-33 32 -33 117v335l-43 -30l-46 42v-514h-156v503q-27 -27 -41 -40l-80 71q102 133 243 415l187 -59q-76 -118 -153 -214v-106q163 155 262 380l181 -27q-19 -36 -44 -77
q106 -132 297 -255l-101 -135q-38 30 -67 59v-230q0 -58 -44 -79q-33 -17 -105 -17h-93l-7 60h96v254h-124v-421z" />
    <glyph glyph-name="uni4F2A" unicode="&#x4f2a;" 
d="M676 380l120 -108v244h-124q-19 -95 -43 -175zM889 598q25 0 43 -15q18 -16 18 -41v-480q0 -125 -149 -125h-178l-7 65h180v211l-77 -69q-25 40 -104 157q-75 -214 -233 -401l-84 50q169 241 211 566h-185l-6 82h200l6 78l-74 -72q-21 33 -86 132q-34 -64 -75 -130v-701
h-150v488q-18 -23 -56 -69l-80 59q102 163 228 482l179 -42l-35 -68l59 53q104 -80 93 -71q4 71 5 117h179q-8 -140 -25 -256h203z" />
    <glyph glyph-name="uni4F2B" unicode="&#x4f2b;" 
d="M554 846h168v-212h172q45 -1 45 -45v-185h-155v153h-296v-158h-149v235h215v212zM428 805q-62 -116 -128 -217v-681h-146v482q-22 -27 -66 -77l-82 64q103 156 239 478zM981 89l-8 -79h-631l-6 79h645z" />
    <glyph glyph-name="uni4F2F" unicode="&#x4f2f;" 
d="M411 828q-54 -115 -121 -227v-696h-161v457l-38 -49l-85 58q95 165 218 498zM767 16v277h-231v-277h231zM767 598h-231v-228h231v228zM800 673q77 0 107 -26q29 -24 29 -83v-623h-567v732h148q13 102 19 181l197 -14q-36 -81 -82 -167h149z" />
    <glyph glyph-name="uni4F30" unicode="&#x4f30;" 
d="M751 284h-225v-261h225v261zM716 556v-195h86q64 0 91 -23q27 -22 27 -74v-319h-562v416h193v195h-235l-4 46l-20 -31v-665h-153v467q-21 -25 -35 -40l-84 65q93 143 228 465l190 -51q-54 -98 -105 -178h218v221h165v-221h257l-9 -78h-248z" />
    <glyph glyph-name="uni4F32" unicode="&#x4f32;" 
d="M288 -3q85 270 87 744q-44 -86 -87 -158v-586zM544 719q-3 -75 -9 -144h256v144h-247zM529 502q-33 -324 -163 -591l-78 26v-32h-152v454l-33 -42l-85 58q88 150 212 489l184 -43l-14 -29h487q46 0 46 -44v-246h-404zM703 -1h258l-6 -68h-256q-103 0 -138 35
q-32 32 -32 124v377h174v-187q82 65 162 147l100 -108q-127 -99 -262 -163v-157z" />
    <glyph glyph-name="uni4F34" unicode="&#x4f34;" 
d="M970 180h-248v-273h-171v273h-234l-6 77h240v164h-212l-6 75h218v70l-104 -53l-86 203q-31 -57 -70 -120v-690h-161v464q-26 -32 -40 -48l-87 62q86 140 216 470l190 -47l-35 -67l72 32l53 -73q34 -46 52 -72v230h171v-251q74 115 116 193l134 -84q-91 -108 -198 -200
l-52 42v-61h223l-8 -75h-215v-164h256z" />
    <glyph glyph-name="uni4F36" unicode="&#x4f36;" 
d="M272 445v-536h-149v512l-50 -47l-73 71q127 151 270 421l177 -54q-82 -123 -175 -233v-113q183 158 292 397l182 -29q-33 -57 -58 -96q112 -118 306 -217l-92 -139q-158 105 -276 269q-125 -160 -290 -267zM840 367q48 0 60 -35q12 -33 -18 -64q-139 -144 -182 -186
l146 -65l-85 -130q-185 115 -393 234l63 78l153 -66q84 124 106 158h-352l-6 77h205v143h159v-143h125v-1h19z" />
    <glyph glyph-name="uni4F38" unicode="&#x4f38;" 
d="M792 247v166h-91v-166h91zM470 247h91v166h-91v-166zM470 630v-147h91v147h-91zM792 630h-91v-147h91v147zM936 172h-229v-266h-155v266h-224v500q-21 -35 -50 -78v-687h-153v486l-39 -44l-79 61q99 146 228 454l176 -47q-28 -52 -63 -112h202v151h156v-151h118
q61 0 87 -22q25 -21 25 -71v-440z" />
    <glyph glyph-name="uni4F3A" unicode="&#x4f3a;" 
d="M771 513h-472l-5 77h484zM570 349h-64v-186h64v186zM726 90h-375v331h276q55 0 77 -20t22 -69v-242zM889 776q25 0 43 -17q18 -18 18 -43v-658q0 -143 -149 -143h-124l-7 66h126v717h-422l-4 67q-49 -90 -100 -170v-688h-146v486q-24 -30 -37 -45l-83 59q85 140 204 444
l185 -42l-17 -33h513z" />
    <glyph glyph-name="uni4F3C" unicode="&#x4f3c;" 
d="M613 497q-99 182 -161 290l80 56q137 -167 201 -255zM664 286q-159 -149 -306 -268l-76 129l53 35v510q-43 -72 -77 -120v-668h-137v490l-36 -41l-76 60q107 156 230 455l169 -46q-34 -65 -53 -97h123v-445l137 98zM868 -68q-56 111 -110 214q-96 -134 -259 -239l-59 59
q201 152 276 360q57 161 72 492h158q-28 -370 -122 -562q117 -154 171 -235z" />
    <glyph glyph-name="uni4F3D" unicode="&#x4f3d;" 
d="M258 -10q62 226 65 576h-47l-5 70l-13 -23v-623zM322 729q-20 -40 -47 -86h48zM564 642q50 -4 50 -51v-532q0 -111 -131 -111h-61l-7 53h64v565h-20q-18 -388 -130 -655l-71 20v-24h-137v504l-41 -53l-79 53q81 139 190 437l130 -28v30h144q-2 -139 -4 -207h103v-1z
M810 651h-46v-585h46v585zM836 723q59 0 80 -19q20 -18 20 -66v-645h-296v730h196z" />
    <glyph glyph-name="uni4F43" unicode="&#x4f43;" 
d="M786 52v304h-89v-304h89zM477 52h83v304h-83v-304zM477 683v-254h83v254h-83zM786 683h-89v-254h89v254zM808 758q73 0 101 -25q27 -23 27 -80v-676h-607v701q-40 -56 -60 -82v-689h-143v521q-30 -32 -46 -48l-77 65q107 141 237 418l177 -48l-35 -57h426z" />
    <glyph glyph-name="uni4F46" unicode="&#x4f46;" 
d="M532 700v-174h219v174h-219zM751 256v194h-219v-194h219zM377 734q-48 -82 -94 -151v-676h-150v480l-42 -48l-85 64q89 135 222 453l189 -50l-13 -24h379q69 0 97 -24q27 -22 27 -78v-507h-530v561zM979 53l-9 -80h-653l-6 80h668z" />
    <glyph glyph-name="uni4F4D" unicode="&#x4f4d;" 
d="M324 626q-18 -27 -43 -62v-659h-152v471l-41 -44l-80 66q110 155 244 460l183 -52q-46 -81 -93 -153h221v186h164v-186h231l-9 -79h-621zM457 100l-99 390l105 38q114 -273 149 -369zM982 74l-8 -80h-672l-6 80h315q67 209 124 457l177 -37q-70 -211 -171 -420h241z" />
    <glyph glyph-name="uni4F4E" unicode="&#x4f4e;" 
d="M646 470l-27 176q-45 -6 -135 -14v-162h162zM990 -20l-7 -66h-165q-53 0 -73 18q-18 16 -25 65l-61 395h-175v-206l118 83l50 -96q-53 -50 -112 -103l64 31l53 -66q32 -40 49 -64l-122 -65q-43 109 -61 149q-84 -74 -167 -142l-78 134l51 33v622q-31 -59 -68 -119v-676
h-146v464l-24 -30l-86 57q81 138 199 464l184 -43q-24 -49 -48 -96h52q227 52 469 137l75 -165q-73 -15 -152 -27l30 -198h143l-8 -78h-124l62 -412h103z" />
    <glyph glyph-name="uni4F4F" unicode="&#x4f4f;" 
d="M978 72l-8 -78h-662l-6 78h248v220h-185l-6 75h191v215h-208l-5 67q-25 -36 -49 -67v-673h-150v497l-45 -46l-79 68q103 137 243 431l181 -54q-56 -90 -95 -147h205v173h159v-173h246l-8 -76h-240v-215h225l-7 -75h-218v-220h273z" />
    <glyph glyph-name="uni4F50" unicode="&#x4f50;" 
d="M282 192q114 168 185 395h-145l-2 36l-38 -57v-374zM981 36l-9 -77h-625l-6 77h269v266h-89l-3 43q-76 -132 -179 -245l-57 31v-225h-153v460q-23 -27 -38 -43l-82 63q100 151 239 478l183 -49q-41 -78 -85 -149h145q26 95 45 195l175 -15q-25 -105 -50 -180h310l-9 -79
h-329q-41 -108 -96 -208h386l-8 -77h-149v-266h215z" />
    <glyph glyph-name="uni4F51" unicode="&#x4f51;" 
d="M290 225q117 147 194 348h-149l-5 62q-20 -30 -40 -55v-355zM584 25h171v298h-171v-298zM650 573q-40 -91 -93 -175h247q62 0 88 -22q25 -22 25 -74v-352h-494v270q-25 -29 -64 -66l-69 44v-285h-152v487q-36 -38 -56 -58l-78 68q116 156 258 455l182 -54
q-52 -87 -103 -160h171q33 100 57 205l176 -17q-30 -107 -62 -188h286l-8 -78h-311z" />
    <glyph glyph-name="uni4F53" unicode="&#x4f53;" 
d="M817 188q-78 97 -132 213v-213h132zM536 370q-56 -94 -129 -182h129v182zM886 111q-41 41 -69 77l-7 -75h-114v-204h-171v204h-118l-5 68q-26 -31 -80 -89l-32 156q124 145 189 321h-156l-4 51l-30 -44v-664h-156v470l-22 -24q-15 -17 -23 -25l-77 65q110 152 248 461
l176 -50q-47 -84 -97 -161h192v209h162v-209h256l-8 -79h-214q88 -182 269 -322z" />
    <glyph glyph-name="uni4F55" unicode="&#x4f55;" 
d="M971 672h-83v-625q0 -139 -152 -139h-127l-8 66h133v698h-371v4q-40 -58 -61 -85v-688h-146v513q-40 -42 -61 -63l-79 67q102 135 243 432l181 -54q-20 -32 -29 -48h568zM551 494h-63v-291h63v291zM688 130h-336v437h241q54 0 75 -19q20 -18 20 -66v-352z" />
    <glyph glyph-name="uni4F57" unicode="&#x4f57;" 
d="M799 477v166h-327v-128h95v-251q139 76 258 179l99 -126q-171 -109 -357 -165v-148h379l-7 -65h-370q-92 0 -126 33q-31 31 -31 113v393h-86v168q-28 -38 -43 -56v-687h-152v518q-30 -30 -46 -45l-75 67q111 138 249 416l174 -54q-42 -67 -56 -87h188v136h149v-136h186
q48 0 48 -44v-197h-149z" />
    <glyph glyph-name="uni4F58" unicode="&#x4f58;" 
d="M701 541q-105 63 -199 159q-100 -90 -216 -159h415zM245 517q-88 -49 -168 -82l-55 87q252 137 412 352l194 -50l-54 -57q160 -122 418 -172l-68 -153q-88 27 -173 71l-4 -46h-499zM367 199q-115 -152 -215 -269l-109 113q111 103 238 228zM586 287v-254
q0 -122 -168 -122h-132l-8 63h136v313h-339l-6 76h859l-9 -76h-333zM696 271q185 -168 249 -232l-129 -110q-79 110 -206 276z" />
    <glyph glyph-name="uni4F59" unicode="&#x4f59;" 
d="M375 170q-120 -136 -232 -248l-92 118q114 89 249 205zM679 547q-95 59 -184 146q-96 -84 -196 -146h380zM572 258v-217q0 -127 -156 -127h-109l-8 63h113v281h-346l-6 77h352v135h-182l-3 35q-76 -43 -164 -80l-53 85q263 139 429 361l187 -48q-36 -40 -55 -58
q154 -116 408 -173l-70 -152q-77 25 -150 62l-3 -32h-184v-135h347l-9 -77h-338zM669 243q138 -93 272 -191l-103 -121q-123 128 -239 239z" />
    <glyph glyph-name="uni4F5A" unicode="&#x4f5a;" 
d="M402 812q-54 -107 -113 -202v-704h-153v488q-15 -19 -45 -55l-84 60q91 147 212 459zM846 -103q-113 119 -184 317q-79 -185 -274 -314l-78 54q180 152 229 368h-223l-6 77h243q11 75 14 180h-75q-34 -82 -75 -160l-85 32q33 122 59 324l161 -17q-17 -63 -32 -104h48
q0 57 -2 201h179q-2 -135 -5 -201h180l-8 -75h-175q-9 -110 -21 -180h252l-8 -77h-212q97 -189 248 -311z" />
    <glyph glyph-name="uni4F5B" unicode="&#x4f5b;" 
d="M631 314v120h-39v-120h39zM413 314h48v120h-41zM590 506h41v123h-41v-123zM765 629v-123h49v123h-49zM900 314q57 0 57 -47v-189q0 -51 -40 -70q-29 -13 -97 -13h-44l-6 54h46v192h-51v-337h-134v337h-21q-21 -134 -78 -211q-66 -91 -207 -146l-39 66q86 50 121 123
q28 57 39 168h-161l17 266h123v-1h25v123h-131l-5 72q-41 -66 -70 -107v-686h-140v508l-22 -24l-82 60q75 113 196 406l181 -48q-28 -51 -63 -109h136v149h140v-149h41v153h134v-153h133q40 0 40 -37v-230h-173v-120h135z" />
    <glyph glyph-name="uni4F5C" unicode="&#x4f5c;" 
d="M435 807q-69 -114 -141 -212v-684h-153v500q-38 -40 -59 -61l-79 68q112 150 250 444zM670 605v-168h261l-7 -75h-254v-156h284l-7 -75h-277v-221h-155v594q-56 -72 -112 -135l-82 61q84 131 217 437l187 -42q-39 -70 -84 -142h337l-7 -78h-301z" />
    <glyph glyph-name="uni4F5D" unicode="&#x4f5d;" 
d="M528 176h78v261h-78v-261zM892 720q47 -10 47 -58v-607q0 -141 -149 -141h-192l-7 67h195v663h-215q-56 -80 -99 -132h179q55 0 77 -19q22 -20 22 -68v-324h-365v309l-34 -37l-57 45v-510h-156v460q-40 -49 -43 -52l-83 60q97 157 225 484l184 -47q-59 -117 -127 -226
v-114q74 114 198 386l184 -47q-20 -36 -55 -92l257 1q8 0 12 -1h2z" />
    <glyph glyph-name="uni4F5E" unicode="&#x4f5e;" 
d="M397 762q-55 -99 -115 -188v-670h-152v471q-20 -24 -40 -46l-82 63q103 155 232 466l183 -49l-16 -29h491l-7 -72h-490zM316 585h648l-8 -73h-635zM550 291q-32 -53 -58 -90l73 -25q48 -16 72 -25q45 53 63 140h-150zM871 291q-31 -119 -93 -189l189 -67l-66 -131
q-78 37 -236 109q-114 -64 -324 -102l-27 87q141 33 221 74l-185 82l3 5q20 44 56 132h-104l-5 74h136q13 34 47 135l172 -27q-20 -38 -60 -108h381l-8 -74h-97z" />
    <glyph glyph-name="uni4F5F" unicode="&#x4f5f;" 
d="M751 70l136 -28l-36 -147q-283 96 -492 159l31 89q114 -22 334 -67q-100 88 -198 172l58 71q153 -89 242 -145zM572 659q-13 -19 -41 -57q44 -44 95 -80q59 62 98 137h-152zM868 734q48 0 59 -35q11 -33 -14 -67q-82 -110 -157 -181q101 -43 237 -69l-62 -169
q-167 45 -296 139q-134 -89 -305 -124l-47 91v-415h-149v468l-50 -55l-80 67q117 168 260 482l186 -49q-86 -149 -167 -259v-234q146 42 250 117q-42 42 -70 79q-28 -32 -66 -70l-80 54q115 148 199 358l164 -23q-24 -46 -59 -105h247z" />
    <glyph glyph-name="uni4F60" unicode="&#x4f60;" 
d="M298 432q111 161 180 428l174 -18q-28 -79 -63 -153h323q50 0 69 -24q19 -23 1 -58q-68 -139 -102 -199l-122 28q22 118 31 177h-238q-71 -126 -164 -230zM423 816q-68 -125 -133 -224v-687h-152v484q-2 -3 -56 -65l-82 64q106 159 239 478zM791 426q148 -231 194 -311
l-127 -77l-141 314v-314q0 -126 -151 -126h-103l-8 62h108v375q-75 -178 -139 -316l-131 69q91 159 181 319l89 -38v174h154v-171z" />
    <glyph glyph-name="uni4F63" unicode="&#x4f63;" 
d="M793 316v165h-87v-165h87zM478 481q-7 -98 -17 -165h102v165h-85zM487 709q-1 -56 -5 -155h81v155h-76zM793 709h-87v-155h87v155zM257 -20q81 241 74 730q-43 -76 -74 -123v-607zM881 786q25 0 42 -17t17 -41v-684q0 -137 -143 -137q-2 -1 -74 0l-7 59h77v277h-89v-260
h-143v260h-112q-36 -182 -118 -338l-74 23v-24h-140v492l-30 -36l-81 58q88 139 208 447l176 -44l-18 -35h509z" />
    <glyph glyph-name="uni4F64" unicode="&#x4f64;" 
d="M580 421q88 -117 107 -145l15 228h-165l-12 -110zM990 1l-9 -65h-225q-91 0 -84 95l12 195l-84 -47q-82 172 -80 169l-27 -237l140 53l29 -92q-165 -92 -325 -169l-44 136l46 16q12 110 39 344l34 301h-75q-21 -33 -65 -97v-697h-137v526q-34 -38 -54 -58l-77 63
q98 137 225 425l175 -49l-20 -35h569l-8 -78h-385l-15 -130h255q68 0 62 -72l-36 -497h164z" />
    <glyph glyph-name="uni4F65" unicode="&#x4f65;" 
d="M683 515q-98 71 -180 169q-90 -86 -202 -169h382zM258 485q-90 -64 -185 -116l-63 84q252 177 429 411l193 -48q-18 -20 -54 -58q154 -139 412 -214l-80 -154q-98 40 -177 91l-4 -41h-467zM447 89l-54 300l103 18q77 -214 100 -286zM236 374q117 -240 134 -278l-150 -48
q-30 108 -87 298zM861 345q-70 -166 -156 -312h260l-10 -77h-911l-7 77h543q62 160 117 357z" />
    <glyph glyph-name="uni4F67" unicode="&#x4f67;" 
d="M461 810q-83 -134 -169 -246v-659h-152v481q-28 -30 -44 -46l-82 70q106 146 255 453zM660 386v-136l56 62q194 -125 253 -166l-98 -122q-80 79 -211 204v-323h-156v481h-188l-6 79h171v391h152v-138h291l-7 -78h-284v-175h353l-8 -79h-318z" />
    <glyph glyph-name="uni4F69" unicode="&#x4f69;" 
d="M673 97v305h-15v-305h15zM728 466q43 0 43 -35v-307q0 -43 -26 -59q-21 -12 -69 -12h-18v-145h-116v494h-16v-352h-97v416h99v109h-76l-5 67h309l-7 -67h-81v-109h60zM256 14q43 226 38 669q-15 -29 -38 -66v-603zM988 -27l-6 -63h-105q-49 0 -65 18q-15 17 -17 66
l-21 725h-338q-8 -521 -109 -811l-71 18v-21h-150v493l-24 -31l-79 54q85 144 197 450l172 -37l-22 -46h515q46 0 48 -61l22 -754h53z" />
    <glyph glyph-name="uni4F6C" unicode="&#x4f6c;" 
d="M276 246q133 81 245 182h-221l-6 74h176v155h-103l-5 67q-38 -65 -86 -138v-340zM622 657v-130q52 55 109 130h-109zM731 428q-67 -64 -138 -116v-88q112 59 232 141l85 -131q-164 -81 -317 -126v-99h359l-6 -65h-357q-99 0 -132 32q-31 30 -31 118v111q-76 -40 -117 -59
l-33 52v-291h-146v487l-45 -51l-79 61q98 144 228 454l176 -47q-22 -42 -45 -81h105v125h152v-125h132l-5 -47q37 50 77 117l145 -79q-81 -124 -167 -219h171l-8 -74h-236z" />
    <glyph glyph-name="uni4F6F" unicode="&#x4f6f;" 
d="M463 669q-36 84 -54 124q-24 -47 -70 -124h124zM974 152h-279v-244h-152v244h-245l-5 76h250v143h-197l-5 74h202v148h-213l-4 56q-26 -42 -40 -63v-677h-149v476q-27 -33 -57 -66l-79 63q107 159 242 478l157 -42l93 48l120 -138l-102 -59h153q35 93 59 196l165 -45
q-45 -83 -95 -151h162l-8 -76h-252v-148h235l-8 -74h-227v-143h288z" />
    <glyph glyph-name="uni4F70" unicode="&#x4f70;" 
d="M760 487h-241v-191h241v191zM760 19v203h-241v-203h241zM741 707q-23 -69 -58 -145h115q70 0 98 -24q27 -23 27 -78v-516h-565v618h184q7 60 11 145h-202q-24 -46 -59 -105v-697h-165v453q-13 -18 -34 -44l-88 59q78 140 209 485l193 -42l-16 -33h588l-8 -76h-230z" />
    <glyph glyph-name="uni4F73" unicode="&#x4f73;" 
d="M373 709q-44 -67 -82 -117h6v-680h-152v505l-55 -56l-76 66q113 149 245 432l175 -52q-30 -49 -60 -96h190v144h155v-144h197l-7 -75h-190v-134h251l-8 -78h-635l-6 78h243v134h-186zM982 44l-8 -79h-658l-6 79h255v156h-207l-5 75h212v100h156v-100h216l-8 -75h-208
v-156h261z" />
    <glyph glyph-name="uni4F74" unicode="&#x4f74;" 
d="M723 195v124h-168v-143zM555 724v-129h168v129h-168zM555 392h168v131h-168v-131zM984 148l-105 -12v-230h-156v212l-401 -45l-14 75l95 11v565h-30l-2 25q-38 -69 -73 -127v-716h-150v502q-27 -34 -57 -69l-83 60q91 146 218 471l184 -46l-13 -25h564l-8 -75h-74v-511
l105 12v-77z" />
    <glyph glyph-name="uni4F76" unicode="&#x4f76;" 
d="M739 228h-194v-197h194v197zM794 306q61 0 87 -22q26 -23 26 -74v-257h-529v353h416zM722 625v-128h223l-8 -77h-599l-5 77h231v128h-247l-1 12q-5 -9 -29 -42v-688h-155v495l-44 -47l-83 66q98 143 234 448l189 -53q-36 -64 -67 -111h203v154h158v-154h257l-9 -80h-248z
" />
    <glyph glyph-name="uni4F7B" unicode="&#x4f7b;" 
d="M281 306q76 50 161 110q3 39 3 80l-64 -30l-71 182l-29 -47v-295zM385 720l62 -91q0 65 -2 217h158q-4 -346 -28 -509q-34 -237 -136 -430l-91 28q55 143 79 311l-90 -84l-56 88v-341h-146v487l-46 -55l-86 61q82 135 209 459l190 -48q-20 -39 -60 -111zM785 -5h181
l-6 -65h-173q-88 0 -121 33q-30 31 -30 110v781h149v-263q38 88 57 142l137 -56q-62 -104 -143 -197l-51 27v-79q128 -83 207 -140l-81 -127q-64 65 -126 126v-292z" />
    <glyph glyph-name="uni4F7C" unicode="&#x4f7c;" 
d="M621 531q-137 -98 -287 -172l-50 77q94 75 211 190h-158l-3 45q-59 -90 -50 -77v-687h-152v487l-42 -48l-82 62q92 139 225 454l182 -48l-62 -110h222v150h153v-150h243l-8 -78h-424zM731 622q174 -95 266 -149l-88 -126q-93 79 -241 198zM862 377q-56 -115 -127 -201
q101 -69 260 -119l-88 -158q-164 61 -278 169q-119 -102 -290 -162l-53 85q148 72 251 179q-69 93 -124 215l92 41q53 -90 115 -153q53 78 89 166z" />
    <glyph glyph-name="uni4F7E" unicode="&#x4f7e;" 
d="M713 201v101h-221v-101h221zM492 480v-111h221v111h-221zM705 869q97 -160 296 -307l-112 -139l-29 29v-424q0 -116 -143 -116h-93l-7 61h96v161h-221v-229h-143v543l-26 -24l-57 50v-569h-143v514l-41 -44l-77 63q98 137 225 425l175 -49q-70 -121 -139 -218v-84
q84 109 189 319l172 -55q-84 -125 -172 -222h319q-84 111 -160 277z" />
    <glyph glyph-name="uni4F7F" unicode="&#x4f7f;" 
d="M399 295q62 -60 130 -100q9 34 18 100h-148zM487 368h81v156h-81v-156zM791 524h-83v-156h83v156zM931 -107q-199 33 -351 118q-84 -70 -233 -112l-29 84q104 42 154 101q-91 71 -166 167l77 44h-44v302h220v71h-220l-2 25q-19 -33 -54 -85v-702h-156v496
q-20 -24 -40 -46l-82 62q92 140 217 442l182 -49q-30 -56 -38 -69h193v113h155v-113h259l-8 -74h-251v-71h125q102 0 102 -83v-219h-216q-18 -102 -51 -166q127 -42 303 -59z" />
    <glyph glyph-name="uni4F83" unicode="&#x4f83;" 
d="M515 522h224v190h-224v-190zM279 -31q87 124 82 431h150q-7 -176 -37 -273q-38 -122 -135 -208l-60 30v-44h-152v502q-14 -16 -44 -48l-81 65q98 137 230 437l182 -51l-12 -21h386q58 0 83 -21t25 -70v-254h-536v275q-46 -73 -81 -122v-628zM542 400h134v-468h-134v468z
M984 -19l-6 -57h-126q-85 0 -111 27q-25 25 -25 101v347h142v-418h126z" />
    <glyph glyph-name="uni4F84" unicode="&#x4f84;" 
d="M984 36l-9 -78h-671l-6 78h254v163h-193l-6 76h199v121h-153q-66 0 -81 43q-15 41 25 92l121 152h-113l-2 36q-47 -77 -75 -118h1v-694h-149v500l-34 -38l-83 62q89 134 211 429l181 -48l-29 -53h586l-8 -76h-302l14 -8q-64 -75 -189 -203h282l-70 133l90 46
q144 -184 187 -246l-134 -76l-34 67h-90v-121h234l-8 -76h-226v-163h280z" />
    <glyph glyph-name="uni4F88" unicode="&#x4f88;" 
d="M452 817q-87 -138 -179 -250v-659h-146v498l-45 -44l-74 69q123 155 266 437zM907 388q44 0 55 -33q9 -30 -14 -61q-122 -170 -252 -259q-152 -106 -358 -134l-39 91q158 32 273 106q-5 7 -57 67l59 71l50 -29q33 -19 49 -29q59 61 99 133h-110q-115 -102 -265 -186
l-65 77q101 77 185 170q-73 -31 -161 -54l-47 91q131 42 225 103l-43 55l60 67l79 -52q53 45 96 101h-149q-82 -96 -184 -182l-74 66q85 101 189 303l169 -57l-40 -55h236q47 0 59 -36q11 -34 -18 -63q-132 -131 -245 -205l110 -28q-24 -26 -36 -38h164z" />
    <glyph glyph-name="uni4F89" unicode="&#x4f89;" 
d="M331 667q-36 -66 -55 -98v-98q108 75 178 189h-122zM622 660q-50 -80 -110 -137h224q-48 58 -85 137h-29zM276 453v-548h-146v449q-24 -32 -37 -48l-82 57q100 170 220 502l178 -42q-22 -48 -45 -93h127q28 60 47 127l170 -22q-22 -59 -46 -105h272l-8 -70h-145
q76 -78 200 -126l-92 -137q-74 37 -134 103l-4 -43h-243l-4 59q-72 -69 -170 -119zM323 367h615l-7 -70h-352l-23 -103h242q61 0 61 -49v-143q0 -54 -44 -73q-32 -14 -105 -14h-184l-6 60h185v152h-306l38 170h-109z" />
    <glyph glyph-name="uni4F8B" unicode="&#x4f8b;" 
d="M245 265q75 181 126 436h-55l-2 24q-23 -42 -73 -120h4v-340zM614 550q57 0 43 -66q-78 -363 -290 -565l-73 51q89 107 138 231q-26 24 -68 60l42 81q52 -22 64 -28q20 74 31 161h-53q-55 -142 -129 -273l-74 30v-325h-134v522q-14 -18 -28 -34l-78 56q82 128 196 420
l171 -39l-29 -55h306l-6 -76h-120q-20 -74 -47 -151h138zM786 125h-122v607h122v-607zM954 841v-805q0 -130 -135 -130h-121l-7 62h127v873h136z" />
    <glyph glyph-name="uni4F8D" unicode="&#x4f8d;" 
d="M829 334h120l-8 -76h-112v-229q0 -118 -151 -118h-111q-1 0 -8 59h116v288h-201q110 -103 138 -131l-116 -96q-54 89 -111 177l67 50h-124l-5 76h352v96h154v-96zM980 534l-8 -75h-662l-6 75h245v122h-179l-3 40q-40 -60 -79 -112v-675h-152v494q-17 -19 -54 -56l-79 68
q108 145 250 443l182 -54q-22 -37 -45 -72h159v124h153v-124h215l-8 -76h-207v-122h278z" />
    <glyph glyph-name="uni4F8F" unicode="&#x4f8f;" 
d="M378 811q-53 -111 -110 -208v-697h-149v479q-20 -26 -31 -39l-85 56q77 134 192 452zM720 351q84 -160 255 -274l-96 -125q-95 82 -163 193v-240h-149v234q-90 -102 -215 -186l-75 86q160 128 253 312h-230l-6 76h273v172h-92q-29 -66 -74 -147l-83 35q36 117 66 321
l161 -19q-17 -58 -39 -115h61v181h149v-181h214l-8 -75h-206v-172h250l-8 -76h-238z" />
    <glyph glyph-name="uni4F91" unicode="&#x4f91;" 
d="M410 526q29 59 50 107h-119l-2 23q-22 -37 -50 -77v-267q58 89 119 211v3h2zM763 453h-205v-100h205v100zM763 190v95h-205v-95h205zM633 633q-21 -37 -65 -107h292q26 0 44 -15q19 -16 19 -42v-447q0 -122 -155 -122h-91l-6 65h92v158h-205v-219h-150v397
q-15 -20 -47 -58l-72 57v-394h-152v472q-16 -20 -50 -58l-84 65q98 151 235 477l191 -51q-14 -27 -58 -103h123q31 72 63 155l173 -44q-46 -93 -56 -111h310l-8 -75h-343z" />
    <glyph glyph-name="uni4F94" unicode="&#x4f94;" 
d="M451 537q-65 0 -82 41q-17 38 19 88q22 31 67 91q58 77 82 110l168 -47q-78 -95 -179 -208h249l-76 134l86 47q132 -158 190 -235l-127 -79l-32 59zM447 811q-76 -133 -160 -247v-657h-153v469l-37 -40l-80 65q103 149 245 459zM974 116h-230v-211h-152v211h-285l-6 76
h291v141h-122q-33 -59 -78 -125l-81 39q47 102 92 258l145 -17q-15 -35 -38 -81h82v116h152v-116h185l-8 -74h-177v-141h238z" />
    <glyph glyph-name="uni4F97" unicode="&#x4f97;" 
d="M774 544h-316l-5 69h327zM648 390h-53v-207h53v207zM767 112h-290v348h209q46 0 63 -16q18 -17 18 -59v-273zM882 790q24 0 41 -16q16 -16 16 -40v-691q0 -132 -137 -132h-76l-7 58h79v746h-357v-807h-134v793q-29 -55 -52 -93v-701h-134v503q-14 -19 -37 -47l-76 53
q92 149 200 452l163 -38l-19 -40h530z" />
    <glyph glyph-name="uni4F9B" unicode="&#x4f9b;" 
d="M397 816q-56 -110 -116 -208v-699h-153v484q-14 -16 -42 -50l-80 58q93 148 214 460zM583 313h112v242h-112v-242zM972 235h-205q154 -172 205 -234l-141 -93q-71 124 -163 276l86 51h-236l105 -60q-108 -143 -243 -272l-78 61q87 128 166 271h-167l-6 78h141v242h-84
l-6 76h90v214h147v-214h112v225h149v-225h106l-8 -76h-98v-242h137z" />
    <glyph glyph-name="uni4F9D" unicode="&#x4f9d;" 
d="M282 293q127 142 246 307h-217l-2 21l-27 -39v-289zM964 441q-80 -80 -174 -152q85 -137 206 -234l-150 -111q-178 177 -256 485l-41 -41v-275q74 38 111 58l32 -91q-141 -102 -274 -188l-56 128l49 24v215q-45 -41 -94 -82l-35 42v-312h-153v485l-22 -24
q-15 -17 -23 -25l-80 66q105 149 245 461l183 -52q-47 -83 -85 -140h204v162h159v-162h249l-8 -78h-202q-23 -26 -69 -76q24 -70 54 -132q54 69 107 146z" />
    <glyph glyph-name="uni4FA0" unicode="&#x4fa0;" 
d="M974 278h-262q109 -147 254 -252l-143 -132q-112 108 -201 295q-80 -169 -261 -291l-75 52q164 139 219 328h-197l-6 78h221q6 27 9 55l-128 -44q-32 118 -61 217l93 28q99 -185 98 -184q10 84 12 209h-205l-3 35q-34 -49 -61 -84v-682h-149v508q-28 -30 -43 -45l-76 66
q105 139 246 430l177 -49q-33 -54 -65 -102h179q0 43 -2 139h172l-3 -139h235l-8 -77h-229q-8 -169 -33 -281h305zM711 423q55 117 86 196l135 -59q-59 -92 -142 -183z" />
    <glyph glyph-name="uni4FA3" unicode="&#x4fa3;" 
d="M546 510h192v214h-192v-214zM384 719q-48 -66 -91 -117v-696h-152v533q-29 -29 -61 -58l-79 74q110 135 254 407l190 -57l-6 -9h354q59 0 83 -21q25 -20 25 -69v-269h-517v282zM759 275h-241v-247h241v247zM813 352q65 0 94 -23q27 -23 27 -75v-304h-589v402h468z" />
    <glyph glyph-name="uni4FA5" unicode="&#x4fa5;" 
d="M308 656l-48 -67v-683h-147v504l-28 -30l-81 64q90 129 214 411l184 -48q-14 -25 -55 -91l133 22l-43 117h169q6 -13 34 -91l254 41l4 -72l-234 -38l26 -72q82 42 160 94l88 -129q-100 -55 -203 -97l20 -56h197l-9 -55h-271q-36 0 -51 9q-14 9 -25 35l-6 15
q-125 -39 -254 -62l-32 93q127 36 243 86l-42 113l-193 -31zM960 4l-6 -61h-168q-99 0 -129 30q-27 28 -27 116v147h-54q-18 -123 -69 -195q-62 -87 -190 -136l-47 63q75 46 106 114q25 55 32 154h-119l-5 74h671l-8 -74h-149v-232h162z" />
    <glyph glyph-name="uni4FA6" unicode="&#x4fa6;" 
d="M542 857h153v-97h257l-7 -73h-250v-124h165q52 0 52 -51v-380h-148v353h-281v-359h-140v437h199v294zM440 808q-75 -127 -159 -237v-660h-153v482q-13 -14 -41 -42l-79 68q112 150 250 444zM715 429q-17 -214 -80 -321q-80 -138 -279 -208l-46 68q143 68 192 183
q35 84 42 278h171zM696 161q144 -67 281 -136l-86 -134q-128 98 -257 189z" />
    <glyph glyph-name="uni4FA7" unicode="&#x4fa7;" 
d="M793 139h-116v607h116v-607zM533 629q-5 -272 -41 -409q-48 -179 -181 -308l-67 34q76 94 111 208h-87v504q-12 -24 -31 -54v-698h-134v502l-15 -19q-10 -12 -15 -19l-73 51q90 146 195 438l158 -34q-9 -20 -29 -60h285q41 0 41 -44v-548h-111v517h-162v-443
q21 120 19 382h137zM536 171q111 -107 144 -141l-106 -88q-60 96 -111 175zM950 839v-800q0 -126 -134 -126h-95l-7 56h101v870h135z" />
    <glyph glyph-name="uni4FA8" unicode="&#x4fa8;" 
d="M895 196q-33 20 -63 42v-321h-146v419h45q-51 61 -94 150h-8q-44 -77 -104 -141h75q-15 -159 -57 -251q-52 -112 -165 -189l-64 48q103 103 118 307q-43 -33 -87 -59l-73 62q120 89 193 223h-157l-6 75h200q23 55 38 103q-92 -6 -144 -8l-20 90q-47 -84 -108 -174v-665
h-150v470q-11 -14 -35 -40l-82 62q95 144 224 454l183 -48l-30 -55q219 34 469 100l54 -151q-98 -12 -185 -21q-20 -57 -47 -117h287l-8 -75h-186q78 -87 224 -148z" />
    <glyph glyph-name="uni4FA9" unicode="&#x4fa9;" 
d="M421 811q-77 -143 -154 -253v-654h-152v459l-27 -31l-82 63q95 142 232 465zM787 488q-95 76 -167 185q-67 -99 -156 -185h323zM447 472q-46 -41 -91 -75l-79 66q160 154 259 398l179 -26q-11 -23 -35 -67q108 -134 311 -216l-86 -141q-68 36 -117 77l-7 -73h-330z
M302 309h653l-8 -75h-303q-69 -89 -156 -196h245l-70 144l88 41q137 -189 176 -249l-130 -69l-27 56h-361q-63 0 -80 38q-16 37 17 88q15 23 102 147h-140z" />
    <glyph glyph-name="uni4FAA" unicode="&#x4faa;" 
d="M294 -44q119 115 142 354h164q-43 -274 -251 -409zM444 653q70 -55 153 -100q49 46 91 100h-244zM936 260q-45 12 -95 30v-378h-150v397h101q-91 36 -178 89q-126 -73 -286 -116l-44 88q125 45 216 107q-86 67 -151 137l63 39h-79l-1 14q-19 -31 -57 -89v-669h-153v470
l-36 -41l-82 62q92 139 225 454l183 -49q-35 -63 -44 -78h183v128h155v-128h256l-8 -74h-50q-71 -92 -160 -164q107 -40 245 -68z" />
    <glyph glyph-name="uni4FAC" unicode="&#x4fac;" 
d="M269 219q100 109 172 241h-142v199l-31 -49h1v-391zM446 621v-151q39 73 71 151h-71zM848 -81q-179 208 -256 532l-10 -15q-6 -11 -10 -16v-287l101 56l36 -94q-140 -109 -263 -193l-61 133l45 23v182q-45 -48 -100 -95l-61 44v-286h-146v504l-42 -51l-81 58
q87 140 207 444l179 -41q-33 -65 -64 -118h224q30 88 49 161l169 -17q-24 -80 -49 -144h190q47 0 47 -42v-169h-149v133h-121l-11 -24q36 -123 94 -243q41 47 90 108l104 -98q-67 -58 -141 -108q79 -130 188 -233z" />
    <glyph glyph-name="uni4FAE" unicode="&#x4fae;" 
d="M404 820q-63 -121 -128 -218v-693h-143v504l-44 -50l-76 59q98 144 223 443zM743 317h-223l-17 -165h135q-44 49 -95 99l57 59l130 -78l-69 -80h82v165zM527 388h123q-54 55 -95 94l54 61l61 -32q40 -20 58 -30l-71 -93h86v163h-199zM891 317v-165h63l-8 -69h-55v-41
q0 -128 -143 -128h-230l-8 59h233v110h-383l24 234h-87l-5 71h99l16 151q-31 -35 -50 -55l-73 55q72 108 166 322l165 -36q-31 -52 -41 -66h394l-7 -70h-435q-29 -41 -52 -69h358q25 0 42 -15q17 -16 17 -40v-177h86l-9 -71h-77z" />
    <glyph glyph-name="uni4FAF" unicode="&#x4faf;" 
d="M400 783q-58 -97 -123 -190v-688h-153v489q-12 -15 -36 -43l-82 63q93 146 224 444l192 -37l-13 -23h393q49 0 67 -25q17 -24 -3 -57q-43 -66 -65 -98h158l-8 -74h-639l-6 74h346q14 47 31 112h-279zM524 247q14 54 22 126h-57q-35 -54 -87 -126h122zM950 174h-247
q95 -81 249 -126l-74 -154q-150 63 -258 206q-92 -126 -290 -196l-35 80q149 75 203 190h-196l-5 73h81l-65 34q39 96 84 253l173 -22l-36 -65h366l-7 -74h-169q-11 -73 -29 -126h264z" />
    <glyph glyph-name="uni4FB5" unicode="&#x4fb5;" 
d="M367 770q-49 -88 -101 -165v-700h-147v506l-43 -50l-76 59q100 148 223 441l171 -42l-6 -12h466q50 0 50 -47v-279h-564l-5 63h420v70h-387l-5 57h392v73h-386zM462 206q62 -49 139 -82q45 36 83 82h-222zM430 349v-82h376v82h-376zM942 -102q-182 22 -327 95
q-136 -78 -298 -105l-39 91q131 29 226 82q-63 45 -123 107l66 38h-101l-4 39h-52v167h619q46 0 46 -41v-124h-89q12 -16 9 -37q-4 -22 -21 -37q-62 -57 -111 -94q98 -23 233 -29z" />
    <glyph glyph-name="uni4FBF" unicode="&#x4fbf;" 
d="M408 243q37 -43 89 -76q20 37 32 76h-121zM492 577v-95h77q2 60 2 95h-79zM736 577q-1 -48 -6 -95h73v95h-67zM492 309h55q10 43 17 108h-72v-108zM803 309v108h-81q-8 -65 -20 -108h101zM682 243q-25 -71 -62 -126q128 -34 340 -20l-27 -173q-248 -3 -408 83
q-65 -58 -151 -104l-68 56q73 50 126 111q-90 75 -155 196l79 35v341h215q0 57 -1 87h-212l-4 52q-41 -87 -85 -160v-716h-146v500q-12 -16 -36 -46l-82 55q76 130 189 440l176 -41l-6 -13h587l-8 -71h-202q-2 -60 -2 -87h105q52 0 74 -18q22 -19 22 -61v-320h-258z" />
    <glyph glyph-name="uni4FC3" unicode="&#x4fc3;" 
d="M528 365q-12 -73 -30 -141q33 -43 74 -68v296h-199v317q-49 -94 -106 -183v-628q75 144 100 417zM534 530h209v204h-209v-204zM724 104q98 -14 252 3l-22 -183q-327 -18 -495 182q-42 -104 -104 -191l-88 33v-42h-153v472l-25 -30l-83 60q88 143 211 459l183 -46l-5 -9
h399q60 0 86 -22q25 -22 25 -72v-266h-181v-117h214l-7 -78h-207v-153z" />
    <glyph glyph-name="uni4FC4" unicode="&#x4fc4;" 
d="M552 42q76 62 150 145l-29 283h-121v-123l95 24l8 -93l-103 -39v-197zM272 283l145 32v155h-131l-6 73h137v106l-71 -15l-17 46l-57 -80v-317zM864 -35h120l-7 -64h-160q-53 0 -73 19q-17 17 -22 68l-7 66q-60 -46 -110 -77l-53 60q-1 -117 -134 -117h-86l-7 59h92v210
q-78 -28 -118 -41l-27 130v-369h-138v527q-18 -20 -57 -59l-70 62q116 149 243 420l164 -45l-47 -77q99 45 211 106l66 -131q-62 -20 -92 -29v-140h113l-32 313h142l9 -89l55 33q114 -130 127 -146l-112 -75l-63 121l15 -157h159l-8 -73h-143l11 -118q21 31 48 82l122 -63
q-70 -113 -152 -199z" />
    <glyph glyph-name="uni4FC5" unicode="&#x4fc5;" 
d="M390 552q127 -127 141 -142l-113 -88q-39 68 -105 176zM265 162q126 92 268 204v221h-207l-5 74q-18 -30 -56 -86v-413zM960 470q-76 -84 -162 -157q70 -81 183 -156l-104 -136q-112 95 -190 229v-191q0 -149 -151 -149h-120l-8 62h125v238q-102 -100 -190 -179l-78 118
v-244h-149v478l-27 -30l-82 62q87 131 218 442l182 -48q-37 -69 -84 -146h210v191h154v-191h106l-81 114l68 63q106 -82 133 -106l-69 -71h125l-8 -76h-274v-105q21 -43 42 -77q49 67 106 155z" />
    <glyph glyph-name="uni4FCA" unicode="&#x4fca;" 
d="M441 806q-82 -136 -164 -243v-662h-153v482q-30 -30 -45 -46l-79 69q113 149 258 455zM565 266l-28 -31q49 -48 101 -77q50 46 90 108h-163zM939 -113q-173 31 -304 117q-129 -78 -285 -108l-43 89q132 35 231 96q-44 43 -74 80q-56 -48 -86 -71l-76 64q100 100 177 235
q-67 -38 -142 -71l-47 76q85 56 186 155h-23q-63 0 -79 39q-16 38 19 85l147 190l161 -48q-65 -75 -168 -187h248q-20 26 -88 111l73 63q133 -112 220 -194l-110 -104l-34 45h-126q144 -55 269 -106l-66 -122q-118 74 -266 158l47 70h-156l66 -72q-40 -30 -60 -43l125 -21
q-25 -38 -62 -88h244q45 0 55 -34q10 -33 -17 -61q-68 -76 -128 -128q96 -30 220 -42z" />
    <glyph glyph-name="uni4FCE" unicode="&#x4fce;" 
d="M596 33h163v189h-163v-189zM596 719v-171h163v171h-163zM596 298h163v173h-163v-173zM970 33l-8 -78h-590l-6 78h78v103l-101 -98q-37 52 -85 115q-60 -127 -160 -218l-84 44q126 150 161 446l164 -11q-14 -76 -34 -140q96 -80 139 -117v381l-87 -106l-114 130
q-60 -100 -143 -182l-84 49q118 149 176 411l166 -16q-25 -84 -60 -160q83 -55 146 -101v234h406q64 0 64 -69v-695h56z" />
    <glyph glyph-name="uni4FCF" unicode="&#x4fcf;" 
d="M949 779q-66 -103 -149 -196l-79 46q54 109 93 209zM433 580l-73 172q-39 -76 -76 -139v-707h-144v488l-52 -67l-85 58q83 142 205 476l184 -43l-14 -28l59 27q107 -145 124 -171zM766 222v108h-275v-108h275zM491 504v-105h275v105h-275zM858 574q26 0 43 -15
q18 -16 18 -41v-484q0 -121 -148 -121h-75l-7 63h77v176h-275v-245h-146v667h219v282h150v-282h144z" />
    <glyph glyph-name="uni4FD0" unicode="&#x4fd0;" 
d="M256 197q80 115 122 261h-97l-5 76h124v125q-28 -4 -81 -10l-11 36q-34 -54 -52 -81v-407zM645 101v110l-67 -54l-38 73v-319h-140v277q-50 -79 -113 -155l-31 130v-256h-134v522q-21 -26 -43 -49l-76 58q92 134 208 418l168 -45l-33 -61q112 36 225 90l62 -134
q-71 -18 -93 -22v-150h92l-7 -76h-85v-85l15 11l45 -52q30 -34 45 -52v455h125v-634h-125zM941 848v-800q0 -135 -140 -135h-109l-8 59h116v876h141z" />
    <glyph glyph-name="uni4FD1" unicode="&#x4fd1;" 
d="M777 203v103h-98v-103h98zM454 203h88v103h-88v-103zM454 478v-104h88v104h-88zM777 478h-98v-104h98v104zM869 547q26 0 43 -15q18 -16 18 -40v-460q0 -119 -149 -119h-74l-7 63h77v159h-98v-189h-137v189h-88v-227h-140v639h226l-122 104l61 60q84 -48 126 -73l95 98
h-342l-2 31q-48 -88 -102 -172v-691h-137v502l-34 -41l-78 57q92 145 210 445l172 -40l-10 -19h477q51 0 62 -40q12 -40 -25 -67q-112 -86 -212 -154h190z" />
    <glyph glyph-name="uni4FD7" unicode="&#x4fd7;" 
d="M866 545q-111 127 -214 237l70 69q166 -125 249 -193zM330 594q74 91 153 256l161 -53q-107 -152 -242 -264zM439 813q-81 -133 -160 -235v-673h-149v501l-36 -37l-82 69q101 138 239 431zM776 307q-80 68 -144 167q-77 -93 -172 -167h316zM715 235h-179v-214h179v214z
M904 220q-14 7 -40 23q1 -6 1 -22v-273h-477v308l-41 -25l-68 70q196 146 304 372l168 -28q-36 -60 -56 -88q101 -123 291 -201z" />
    <glyph glyph-name="uni4FD8" unicode="&#x4fd8;" 
d="M371 726q-38 -66 -87 -140v-681h-146v488q-17 -21 -51 -59l-82 64q102 154 232 465l183 -49l-31 -56q235 36 474 103l57 -150q-267 -42 -534 -51zM963 174h-240v-133q0 -78 -46 -109q-35 -23 -109 -23h-114l-12 59h122v206h-258l-6 76h264v81h65l60 77h-345l-6 74h51
q-19 75 -37 139l90 37q69 -114 86 -145l-68 -31h110q-12 56 -33 164l95 23q65 -127 79 -160l-99 -27h172l-45 23q44 106 69 183l137 -53q-41 -71 -108 -153q45 -3 58 -35q11 -31 -18 -57q-55 -50 -154 -119v-21h249z" />
    <glyph glyph-name="uni4FDA" unicode="&#x4fda;" 
d="M469 397h83v134h-83v-134zM469 735v-137h83v137h-83zM773 735h-80v-137h80v137zM773 397v134h-80v-134h80zM971 27l-8 -72h-667l-5 72h253v119h-209l-5 71h214v110h-217v362q-26 -45 -49 -82v-700h-143v498q-15 -19 -47 -57l-80 59q92 146 214 459l176 -44l-9 -17h422
q58 0 82 -21t24 -67v-390h-215v-110h230l-8 -71h-222v-119h269z" />
    <glyph glyph-name="uni4FDC" unicode="&#x4fdc;" 
d="M485 707v-92h79v92h-79zM795 707h-88v-92h88v92zM795 448v107h-88v-107h88zM485 448h79v107h-79v-107zM342 690q-29 -52 -55 -94v-691h-152v474q-25 -33 -54 -66l-80 59q96 152 228 484l177 -44l-23 -45h177v88h149v-88h134q95 0 95 -78v-301h-596v302zM587 258l-22 -93
h283q63 0 63 -50v-110q0 -54 -46 -73q-32 -13 -108 -13h-201l-7 62h202v121h-350l37 156h-130l-6 68h684l-8 -68h-391z" />
    <glyph glyph-name="uni4FDD" unicode="&#x4fdd;" 
d="M529 550h214v178h-214v-178zM735 296q101 -117 255 -206l-105 -126q-93 65 -177 179v-237h-164v214q-100 -94 -239 -168l-9 133q129 87 205 211h-198l-6 73h247v108h-170v255q-49 -90 -92 -157v-669h-156v452l-39 -48l-80 60q102 164 235 494l179 -42l-11 -22h386
q55 0 79 -20t24 -67v-236h-191v-108h247l-8 -73h-212z" />
    <glyph glyph-name="uni4FDE" unicode="&#x4fde;" 
d="M393 162v86h-136v-86h136zM257 396v-85h136v85h-136zM474 461q54 0 54 -48v-400q0 -99 -131 -99h-61l-7 47h64v138h-136v-188h-134v550h351zM629 600q-70 48 -123 98q-68 -57 -130 -98h253zM924 460l-37 12v-448q0 -112 -140 -112h-92l-7 56h97v520h98q-63 25 -129 60
l-2 -17h-430l-1 10q-98 -57 -211 -102l-51 85q261 133 428 346l187 -51q-34 -36 -52 -53q159 -107 408 -158zM699 73h-128v377h128v-377z" />
    <glyph glyph-name="uni4FDF" unicode="&#x4fdf;" 
d="M447 565q-65 0 -81 42q-15 41 27 86q137 147 167 181l142 -73q-77 -71 -181 -164h246l-74 115l79 51q149 -160 201 -222l-118 -85l-43 69h-365zM424 818q-66 -114 -140 -218v-693h-150v507q-14 -16 -44 -48l-80 65q95 137 229 435zM729 184q89 -91 249 -133l-76 -151
q-168 59 -267 223q-85 -140 -277 -220l-46 72q141 80 191 209h-201l-5 73h227q13 60 19 137h-41q-55 -73 -113 -129l-74 52q52 82 112 241l156 -42q-13 -23 -32 -51h371l-7 -71h-195q-11 -75 -28 -137h271l-8 -73h-226z" />
    <glyph glyph-name="uni4FE1" unicode="&#x4fe1;" 
d="M764 187h-246v-164h246v164zM818 259q103 0 103 -86v-223h-558v309h455zM326 416h621l-8 -70h-607zM903 503h-535l-5 69h547zM985 738l-8 -74h-644q-23 -35 -50 -74v-683h-149v496q-16 -19 -50 -55l-78 64q107 148 241 449l175 -49l-43 -74h182v117h153v-117h271z" />
    <glyph glyph-name="uni4FE3" unicode="&#x4fe3;" 
d="M511 576h252v158h-252v-158zM368 735q-45 -79 -88 -145v-682h-144v489l-58 -67l-76 60q113 163 238 468l170 -46l-4 -8h405q96 0 96 -81v-217h-539v229zM708 179q92 -104 279 -137l-59 -136q-194 47 -298 213q-84 -141 -304 -206l-34 73q165 65 214 193h-200l-5 70h224
q9 43 14 113h-199l-6 71h593l-7 -71h-218q-8 -61 -21 -113h281l-8 -70h-246z" />
    <glyph glyph-name="uni4FE6" unicode="&#x4fe6;" 
d="M579 214l59 -63l55 -62l-111 -76q-66 130 -79 154zM258 62q93 142 154 326h-118l-5 71h145q12 42 21 82h-106l-5 69h127l16 83h-149l-2 20q-35 -57 -78 -115v-536zM560 388q-21 -52 -45 -102h198v73h141v-73h115l-7 -69h-108v-203q0 -62 -41 -86q-32 -19 -99 -19h-100
l-7 54h106v254h-213l-2 34q-73 -141 -169 -254l-71 33v-126h-137v525l-41 -44l-78 62q96 136 217 411l177 -46l-29 -49h131q5 32 13 98l168 -10q-4 -30 -14 -88h293l-8 -70h-299q-12 -56 -19 -83h300l-7 -69h-312q-8 -28 -26 -82h395l-8 -71h-414z" />
    <glyph glyph-name="uni4FE8" unicode="&#x4fe8;" 
d="M606 726v-310h53v310h-53zM796 416h174l-8 -75h-454q-25 -285 -166 -439l-80 36q90 147 88 478h125v63l-79 -40l-83 194l81 38q59 -81 81 -113v168h-115l-1 11q-53 -90 -104 -164v-669h-134v498l-34 -38l-82 62q87 131 218 442l182 -49l-10 -19h562l-7 -74h-154v-178
q27 58 50 132l131 -44q-61 -102 -139 -185l-42 20v-55z" />
    <glyph glyph-name="uni4FE9" unicode="&#x4fe9;" 
d="M778 323l42 -55v235h-33q-8 -113 -20 -189zM602 338q22 -25 41 -50q7 81 9 215h-40q-7 -93 -21 -173zM433 97q40 148 45 406h-45v-406zM603 577h47v118h-47v-118zM909 577q25 0 42 -15t17 -39v-489q0 -117 -143 -117h-93l-7 51h95v170l-29 -24l-45 103q-30 -114 -94 -215
l-73 26q32 71 49 157l-29 -24l-29 69q-27 -101 -75 -198l-62 20v-142h-137v667h176v118h-144l-1 10q-38 -68 -74 -122v-676h-137v488q-1 -2 -29 -35l-78 57q92 145 210 445l171 -40q-18 -34 -26 -51h603l-8 -76h-181v-118h131z" />
    <glyph glyph-name="uni4FEA" unicode="&#x4fea;" 
d="M443 405l37 -96v240h-69v-157zM548 617q21 0 35 -12q14 -13 14 -32v-558q0 -98 -113 -98h-47l-8 44h51v226l-36 -14l-33 128v-394h-116v710h253zM780 403l45 -113v259h-79v-155zM898 616q50 0 50 -47v-551q0 -104 -119 -104h-63l-8 46h67v231l-49 -15l-30 116v-382h-119
v706h271zM976 773l-8 -72h-656q-31 -58 -66 -111v-682h-134v498l-31 -37l-72 53q101 152 208 436l156 -39l-23 -46h626z" />
    <glyph glyph-name="uni4FED" unicode="&#x4fed;" 
d="M756 515q-73 64 -138 148q-71 -84 -141 -148h279zM280 460v-556h-153v489q-27 -27 -41 -40l-77 71q119 151 263 438l181 -57q-82 -130 -173 -243v-64q151 151 266 358l192 -34l-52 -73q107 -100 297 -188l-91 -146q-53 33 -91 63l-4 -39h-367l-2 32q-56 -46 -86 -68z
M393 40q-39 183 -65 299l98 21q86 -221 109 -285zM920 343q-67 -172 -147 -319h187l-8 -77h-644l-6 77h350q16 44 29 85l-121 -22l-41 289l100 15q62 -195 75 -242q32 104 67 233z" />
    <glyph glyph-name="uni4FEE" unicode="&#x4fee;" 
d="M615 709q-12 -18 -19 -26q47 -47 95 -77q40 42 74 103h-150zM279 66v571q-20 -32 -31 -47v-682h-134v507l-39 -44l-73 57q100 143 218 431l162 -43q-47 -88 -78 -139h94v-83q69 98 140 268l150 -43l-30 -48h226q40 0 50 -30q9 -29 -14 -56q-61 -81 -118 -136
q80 -32 188 -52l-51 -136q-96 25 -177 67l63 -93q-171 -91 -365 -124l-30 76q176 53 316 150q-27 15 -45 28q-111 -77 -254 -110l-45 79q118 35 210 102q-37 33 -73 78q-33 -39 -76 -80l-65 51v-519h-119zM419 143q245 60 418 180l76 -112q-214 -117 -465 -149zM365 -4
q324 46 540 181l80 -122q-266 -134 -595 -148z" />
    <glyph glyph-name="uni4FEF" unicode="&#x4fef;" 
d="M253 -9q58 219 53 681q-17 -28 -53 -82v-599zM706 616q-45 -87 -97 -165v-546h-131v378l-20 -22l-23 17q-30 -199 -104 -364l-78 21v-29h-140v505l-28 -31l-76 58q92 134 208 418l168 -44l-41 -76h238v119h146v-119h241l-8 -73h-500q-3 -157 -12 -255q47 86 111 246z
M970 392h-73v-370q0 -114 -134 -114h-86l-7 53h92v205l-66 -35q-7 15 -40 93q-24 56 -39 89l74 35q48 -66 71 -99v143h-136l-5 72h141v166h135v-166h79z" />
    <glyph glyph-name="uni4FF1" unicode="&#x4ff1;" 
d="M734 157q160 -93 243 -143l-87 -121q-111 102 -217 191zM530 228h220v80h-220v-80zM530 731v-86h220v86h-220zM530 366h220v79h-220v-79zM530 503h220v84h-220v-84zM987 228l-8 -69h-427l78 -83q-122 -98 -270 -179l-51 72q82 69 195 190h-191l-5 69h76v519
q-53 -90 -104 -164v-676h-150v480q-12 -13 -36 -41l-82 62q90 139 225 452l185 -46l-10 -18h431q57 0 57 -59v-509h87z" />
    <glyph glyph-name="uni4FF3" unicode="&#x4ff3;" 
d="M451 846h146v-936h-146v251h-146l-5 76h151v165h-100l-5 75h105v144h-125l-2 27l-41 -59v-682h-147v500l-40 -43l-77 63q104 148 232 435l178 -46q-30 -52 -72 -119h94v149zM972 166h-165v-261h-146v950h146v-154h163l-7 -75h-156v-142h139l-6 -74h-133v-167h171z" />
    <glyph glyph-name="uni4FF8" unicode="&#x4ff8;" 
d="M553 288v73h146v-73h82q-56 53 -97 135h-105q-50 -76 -122 -135h96zM287 275q88 64 144 148h-122l-5 64h164q15 30 32 76h-132l-5 63h157q10 34 18 76h-175l-2 20q-24 -40 -74 -114v-333zM699 131h229l-7 -66h-222v-160h-146v160h-226l-5 66h231v94h-113l-4 47
q-47 -35 -95 -61l-54 41v-344h-143v519q-38 -42 -58 -63l-78 63q106 148 233 438l175 -50q-5 -10 -14 -25l-14 -24h161q8 47 12 97l158 -10q-4 -45 -12 -87h220l-7 -64h-226q-8 -36 -20 -76h235l-7 -63h-250q-19 -46 -35 -76h348l-8 -64h-157q70 -65 191 -98l-66 -127
q-63 24 -116 65l-4 -38h-106v-94z" />
    <glyph glyph-name="uni4FFA" unicode="&#x4ffa;" 
d="M466 183h70v95h-70v-95zM596 664q-68 -102 -152 -176h94v94h131v-94h88q-69 77 -119 176h-42zM267 475q96 78 165 189h-109l-1 17q-26 -44 -55 -89v-117zM536 423h-70v-84h70v84zM667 339h74v84h-74v-84zM741 183v95h-74v-95h74zM688 -9h266l-6 -58h-269q-92 0 -120 27
q-26 25 -26 107v51h-204v284l-22 -14l-40 37v-520h-152v479l-28 -34l-84 60q88 145 212 456l185 -43q-30 -58 -46 -85h120q30 61 51 122l164 -23q-22 -52 -48 -99h315l-8 -74h-196q87 -101 242 -172l-83 -128l-33 21v-267h-190v-127z" />
    <glyph glyph-name="uni4FFE" unicode="&#x4ffe;" 
d="M519 379q19 60 26 120h-64v-120h38zM481 690v-124h71q5 59 6 124h-77zM796 690h-67q-6 -65 -15 -124h82v124zM796 379v120h-95q-16 -68 -38 -120h133zM975 97h-169v-190h-168v190h-348l-6 74h160l-36 25q52 55 82 115h-157v404q-28 -58 -58 -113v-693h-155v447l-34 -46
l-83 54q90 166 200 495l178 -39l-28 -63h152v101l196 -7q-28 -54 -54 -94h193q58 0 82 -21q24 -20 24 -66v-359h-318q-48 -79 -121 -140h131v108h168v-108h177z" />
    <glyph glyph-name="uni500C" unicode="&#x500c;" 
d="M814 669h-339v-102h339v102zM736 393v103h-224v-103h224zM512 154v-135h263v135h-263zM956 538h-85q1 -3 1 -11v-205h-360v-99h359q46 0 46 -43v-230h-549v589h-39v139q-9 -16 -40 -63h1v-707h-153v506l-49 -56l-85 63q84 130 215 441l189 -50q-19 -36 -39 -69h191v112
h156v-112h196q45 0 45 -41v-164z" />
    <glyph glyph-name="uni500D" unicode="&#x500d;" 
d="M346 682q-30 -45 -72 -101v-672h-152v494q-14 -15 -43 -44l-79 67q107 142 242 432l182 -54l-45 -73h178v115h159v-115h229l-8 -74h-589zM735 229h-197v-200h197v200zM787 301q56 0 80 -20q24 -21 24 -68v-257h-508v345h404zM983 444l-9 -74h-671l-5 74h144
q-36 118 -54 173l95 32q90 -145 106 -175l-77 -30h151q35 111 59 209l149 -40q-39 -88 -89 -169h201z" />
    <glyph glyph-name="uni500F" unicode="&#x500f;" 
d="M747 392q-6 -78 -19 -139h59l-47 62l60 56q-61 27 -109 60q-31 -23 -58 -39h114zM632 711q-24 -30 -36 -44q36 -46 87 -84q46 56 82 128h-133zM740 158q165 -121 219 -165l-107 -100q-103 116 -183 202q-76 -122 -262 -185l-40 65q157 70 197 210h-122l-5 68h142
q7 48 10 114q-56 -29 -106 -46l-54 74q99 43 176 109q-36 36 -73 89l-51 -56l-60 44v-507h-128v575l-16 -24q-10 -16 -16 -24v-694h-137v514q-15 -18 -45 -52l-73 57q104 151 225 441l165 -40q-30 -56 -72 -128h97v-87q61 102 126 242l172 -27q-20 -30 -40 -55h204
q39 0 50 -28q10 -27 -12 -55q-64 -97 -129 -166q79 -32 189 -50l-55 -141q-66 15 -121 37q68 -42 93 -59l-55 -57h109l-7 -68h-235q-15 -45 -37 -83z" />
    <glyph glyph-name="uni5012" unicode="&#x5012;" 
d="M530 150q42 4 128 14l4 -96q-247 -59 -401 -88l-14 143l148 13v113h-126l-5 70h131v115h135v-115h117l-7 -70h-110v-99zM667 131v299l-110 -36l-16 56h-188q-94 0 -58 104q10 27 61 150h-49l-1 14q-30 -58 -75 -132v-680h-131v495l-19 -24l-79 53q81 136 184 427l169 -39
l-10 -21q-6 -14 -10 -21h323l-7 -72h-132q-64 -131 -91 -181h92l-32 106l84 25q95 -195 95 -196v276h125v-603h-125zM952 852v-811q0 -134 -135 -134h-138l-7 63h145v882h135z" />
    <glyph glyph-name="uni5014" unicode="&#x5014;" 
d="M491 724q-2 -74 -4 -111h302v111h-298zM483 545q-22 -331 -119 -633l-90 24q71 324 69 831q-37 -80 -74 -147v-715h-143v491q-9 -13 -29 -39l-80 51q78 140 178 444l170 -36l-11 -24h531q46 0 46 -42v-205h-448zM943 198v-260h-346q-78 0 -103 24q-23 23 -23 92v144h130
v-206h40v249h-43q-70 0 -92 22q-21 20 -21 83v131h117v-185h39v224h128v-224h38v186h119v-237h-157v-249h49v206h125z" />
    <glyph glyph-name="uni5018" unicode="&#x5018;" 
d="M543 562v56l-109 -56h109zM890 562q25 0 43 -15q18 -16 18 -41v-475q0 -121 -149 -121h-92l-7 58h94v520h-349v-584h-147v658h131l-80 190q-51 -93 -89 -152v-694h-146v492l-33 -39l-81 58q90 142 208 447l176 -44l-30 -58l83 38q70 -92 103 -137v192h156v-224
q55 98 106 203l137 -72q-71 -97 -170 -193l-73 50v-57h191zM645 341h-48v-193h48v193zM758 80h-272v328h196q43 0 59 -15q17 -15 17 -55v-258z" />
    <glyph glyph-name="uni5019" unicode="&#x5019;" 
d="M673 616q14 47 31 112h-248l-4 67h366q47 0 64 -24q17 -23 -2 -54q-30 -49 -66 -101h139l-8 -71h-525l-5 71h258zM279 46v575q-22 -34 -34 -51v-664h-132v495l-36 -41l-76 59q103 150 223 443l169 -45q-40 -77 -82 -146h96v-625h-128zM747 171q81 -88 232 -122l-66 -141
q-137 45 -225 175q-87 -121 -281 -183l-35 73q161 70 210 198h-159l-5 70h185q11 53 17 132h-41q-41 -65 -93 -128l-74 44q40 81 89 249l151 -31q-19 -40 -34 -66h304l-7 -68h-130q-9 -74 -25 -132h205l-7 -70h-211z" />
    <glyph glyph-name="uni501A" unicode="&#x501a;" 
d="M970 389h-73v-367q0 -116 -151 -116h-112l-7 54h116v429h-440l-5 73h64l-23 61q141 50 184 152h-158l-4 48q-43 -74 -85 -136v-682h-147v487q-28 -34 -47 -55l-76 60q110 163 237 465l172 -42q-7 -14 -20 -37l-20 -36h168q7 36 12 109h171q-6 -58 -18 -109h231l-8 -72
h-246q-64 -150 -257 -213h397q-98 56 -187 102l50 83q156 -47 252 -79l-49 -106h87zM558 272h-67v-162h67v162zM702 48h-354v286h268q47 0 66 -17q20 -17 20 -59v-210z" />
    <glyph glyph-name="uni501C" unicode="&#x501c;" 
d="M784 388h-324l-5 64h103v93h-82l-5 62h87v74h128v-74h88l-6 -62h-82v-93h105zM659 258h-86v-132h86v132zM772 68h-310v247h241q38 0 53 -14q16 -14 16 -48v-185zM252 -31q68 244 63 748q-46 -83 -63 -111v-637zM878 788q23 0 39 -15q16 -16 16 -39v-689q0 -126 -131 -126
h-94l-8 55h98v743h-334q-10 -524 -132 -809l-80 21v-23h-134v504q-31 -40 -34 -43l-79 53q82 141 190 438l172 -37l-16 -33h527z" />
    <glyph glyph-name="uni501F" unicode="&#x501f;" 
d="M409 817q-60 -111 -119 -200h1v-707h-144v512q-42 -50 -64 -75l-76 60q107 159 230 453zM756 18v113h-225v-113h225zM531 311v-114h225v114h-225zM806 384q62 0 88 -22q25 -21 25 -72v-344h-549v438h436zM590 522h85v123h-85v-123zM971 522l-8 -75h-639l-6 75h129v123
h-87l-6 74h93v128h143v-128h85v134h146v-134h127l-8 -74h-119v-123h150z" />
    <glyph glyph-name="uni5021" unicode="&#x5021;" 
d="M539 735v-94h182v94h-182zM721 493v88h-182v-88h182zM378 753q-44 -77 -92 -152v-693h-156v477l-36 -45l-84 59q84 140 211 451l190 -37l-8 -15h379q55 0 78 -19q23 -20 23 -65v-284h-505v323zM762 17v107h-263v-107h263zM499 293v-105h263v105h-263zM815 360
q60 0 85 -21q25 -20 25 -68v-321h-588v410h478z" />
    <glyph glyph-name="uni5025" unicode="&#x5025;" 
d="M326 668q-14 -25 -44 -73v-690h-146v483q-34 -42 -52 -63l-83 60q88 142 219 471l183 -46l-38 -73h194v119h159v-119h181q47 0 47 -42v-165h-96q54 -36 104 -74l-96 -117q-108 114 -210 213l66 71l83 -56v95h-327v-97q31 39 52 70l117 -92q-114 -122 -258 -206l-56 69
q60 56 120 128h-119v134zM967 36l-9 -77h-639l-6 77h251v224h-197l-6 75h558l-8 -75h-195v-224h251z" />
    <glyph glyph-name="uni5026" unicode="&#x5026;" 
d="M718 710q72 125 80 140l119 -82q-56 -56 -133 -113zM272 261q94 72 155 165h-127l-6 68h172q23 45 38 90h-165l-5 68h95l-57 130q-49 -95 -100 -175v-346zM525 652q5 16 13 50l-85 -50h72zM576 426q-37 -57 -89 -109h241q-47 52 -80 109h-72zM547 -6h379l-6 -62h-376
q-92 0 -123 30q-29 29 -29 110v166q-33 -23 -60 -38l-60 46v-340h-150v490q-24 -30 -37 -45l-75 56q102 158 220 458l165 -38l-11 -21l63 33l96 -114q12 55 22 127l159 -11q-14 -96 -43 -189h259l-8 -68h-274q-20 -50 -41 -90h357l-8 -68h-185q74 -59 196 -99l-75 -138
q-59 29 -102 62v-111q0 -49 -40 -66q-28 -12 -97 -12h-79l-7 54h82v134h-112v-256z" />
    <glyph glyph-name="uni5028" unicode="&#x5028;" 
d="M796 176h-167v-158h167v158zM519 728q-2 -74 -4 -112h273v112h-269zM779 346v-100h71q52 0 74 -19t22 -63v-216h-466v298h158v100h-145q-31 -228 -126 -416l-87 27q95 260 90 778q-56 -89 -98 -146v-682h-143v505l-22 -24q-15 -17 -23 -25l-81 65q97 138 230 434l184 -48
l-11 -18h479q45 0 45 -42v-206h-418q-2 -46 -10 -132h136v103h141v-103h195l-8 -70h-187z" />
    <glyph glyph-name="uni5029" unicode="&#x5029;" 
d="M770 124v72h-261v-72h261zM509 323v-72h261v72h-261zM858 386q59 0 59 -51v-325q0 -59 -42 -83q-32 -18 -101 -18h-94l-7 54h97v105h-261v-160h-150v478h499zM974 513l-8 -65h-657l-5 65h257v68h-198l-5 60h203v70h-211l-1 14q-43 -77 -79 -135v-684h-143v483
q-17 -22 -46 -56l-78 58q103 158 224 472l171 -43l-23 -46h186v80h153v-80h227l-8 -63h-219v-70h213l-8 -60h-205v-68h260z" />
    <glyph glyph-name="uni502A" unicode="&#x502a;" 
d="M650 745q-80 -42 -174 -76v-96h138l-7 -72h-131v-132h304v128h-127l-5 72h132v141h-127zM969 -7l-6 -59h-182q-92 0 -121 29q-26 26 -26 108v226h-59q-36 -263 -206 -395l-67 45q101 119 111 350l-80 1v411q-38 -62 -58 -91v-709h-140v524q-32 -39 -48 -55l-82 61
q85 128 210 430l182 -48q-27 -52 -62 -108h2q133 74 222 151l90 -102l-1 18h200v-1h24q51 0 51 -51v-431h-134v-304h180z" />
    <glyph glyph-name="uni502C" unicode="&#x502c;" 
d="M446 806q-79 -118 -166 -220v-678h-147v522l-52 -49l-76 72q111 135 258 409zM493 294h275v104h-275v-104zM493 556v-95h275v95h-275zM973 71h-270v-166h-152v166h-249l-6 75h255v82h-207v393h187v238h150v-73h262l-7 -70h-255v-95h136q101 0 101 -83v-310h-215v-82h279z
" />
    <glyph glyph-name="uni502D" unicode="&#x502d;" 
d="M260 417q131 53 219 139h-186l-5 70h262v63q-73 -4 -168 -4l-17 79q-56 -92 -107 -163h1v-694h-134v528q-16 -19 -50 -55l-72 60q108 147 231 424l164 -43q-4 -8 -14 -24l-14 -24q232 27 453 84l51 -138q-95 -12 -181 -21v-72h270l-8 -70h-217q92 -74 245 -101l-54 -123
q-141 40 -236 136v-96h-143v81q-104 -75 -240 -117zM558 219q-36 -44 -55 -65l105 -32q47 40 69 97h-119zM654 346q-21 -30 -42 -57h349l-9 -70h-110q-33 -85 -92 -141l193 -60l-81 -121q-79 34 -237 100q-115 -53 -308 -85l-26 84q117 26 197 57l-128 52l1 1h-4
q40 70 62 113h-128l-6 70h169q13 26 37 78z" />
    <glyph glyph-name="uni502E" unicode="&#x502e;" 
d="M280 17q124 88 210 225h-180l-5 73h252v64h-200v333q-36 -61 -77 -122v-573zM499 743v-116h67v116h-67zM763 743h-72v-116h72v116zM763 444v122h-72v-122h72zM499 444h67v122h-67v-122zM727 242q93 -101 258 -158l-80 -143q-119 53 -205 161v-196h-143v194
q-94 -95 -224 -161l-53 68v-101h-143v496l-46 -53l-82 62q93 139 218 442l171 -45h409q54 0 77 -20q23 -19 23 -63v-346h-207v-64h267l-8 -73h-232z" />
    <glyph glyph-name="uni503A" unicode="&#x503a;" 
d="M709 279q-15 -167 -83 -243q-88 -98 -315 -133l-25 79q160 33 213 106q39 54 46 191h164zM762 96q101 -37 203 -78l-68 -128q-115 73 -244 150l51 78l54 -20v200h-272v-215h-143v279h516q48 0 48 -44v-222h-145zM981 490l-8 -65h-675l-5 65h259v78h-191l-4 61h195v74
h-206l-1 11q-46 -77 -77 -122v-689h-146v498l-42 -48l-79 61q95 143 228 452l178 -44l-30 -55h175v92h149v-92h242l-8 -64h-234v-74h206l-8 -61h-198v-78h280z" />
    <glyph glyph-name="uni503C" unicode="&#x503c;" 
d="M488 31h248v77h-248v-77zM488 166h248v78h-248v-78zM736 440v75h-248v-75h248zM488 304h248v78h-248v-78zM976 31l-8 -72h-684l-6 72h64v552l191 1q6 60 8 94h-224l-1 17q-22 -38 -56 -88v-699h-137v517l-46 -53l-74 57q95 137 211 416l164 -40q-20 -38 -31 -56h198
q3 56 3 109l169 -8q-16 -68 -25 -101h268l-8 -71h-281q-20 -64 -30 -94h178v-1h10q56 0 56 -58v-494h91z" />
    <glyph glyph-name="uni503E" unicode="&#x503e;" 
d="M773 162q164 -111 208 -143l-91 -112q-108 115 -176 182q-70 -113 -215 -185l-52 49q115 72 162 180h-96v40q-128 -97 -207 -150l-58 134l48 22v524q-22 -43 -54 -95h1v-703h-137v506q-9 -12 -27 -34l-79 53q80 133 184 427l169 -39l-33 -68h105v-235h79l-6 -73h-73v-201
l60 30l28 -83v426h127q2 66 2 98h-159l-5 72h488l-7 -72h-167q-14 -47 -34 -98h138q47 0 47 -47v-428h-130v405h-181v-343q24 95 24 302h144q-10 -274 -77 -398z" />
    <glyph glyph-name="uni5043" unicode="&#x5043;" 
d="M973 32l-7 -62h-513q-81 0 -116 35q-32 32 -32 105v575l-54 -88v-691h-137v503l-31 -37l-78 56q89 140 203 432l171 -39l-13 -26h598l-8 -69h-515v-694h532zM702 213q25 27 38 66h-89l-32 -41zM877 279q-21 -64 -58 -103l119 -37l-63 -95l-155 66q-86 -37 -242 -59
l-22 68q96 17 151 37q-51 22 -110 45h-1q20 39 36 78h-76l-4 61h105l25 64l147 -15l-33 -49h264l-7 -61h-76zM786 459v63h-184v-63h184zM602 632v-64h184v64h-184zM905 409h-421v273h351q70 0 70 -60v-213z" />
    <glyph glyph-name="uni5047" unicode="&#x5047;" 
d="M666 727l-4 73h229q44 0 44 -43v-254h-268l-4 73h136v151h-133zM455 725v-152h67v152h-67zM455 152v-247h-143v797q-25 -46 -51 -90v-707h-140v501q-12 -16 -38 -48l-82 55q82 139 195 452l177 -41l-13 -27h249q42 0 42 -41v-254h-196v-95h155l-6 -71h-149v-114h164
l-6 -70h-158zM903 416q33 0 44 -22q9 -21 -3 -52q-48 -136 -103 -221q65 -59 156 -103l-104 -115q-79 47 -138 114q-76 -73 -174 -114l-63 63q104 58 168 145q-50 87 -85 205l87 27q29 -64 63 -117q22 53 37 123h-155l-8 67h278z" />
    <glyph glyph-name="uni5048" unicode="&#x5048;" 
d="M500 125q50 76 94 198l142 -40q-26 -42 -35 -54q57 -29 90 -49l-65 -102q-54 56 -79 81q-32 -39 -80 -83zM277 262q73 85 141 201h-53v293q-43 -81 -88 -155v-339zM508 760v-84h252v84h-252zM760 525v92h-252v-92h252zM886 391q56 -2 56 -51v-323q0 -103 -143 -103h-147
l-7 60h149v349h-294q-37 -37 -56 -54h55v-194h284l-6 -56h-284q-85 0 -111 26q-25 24 -25 99v50q-11 -9 -35 -27l-45 44v-305h-143v492q-32 -40 -49 -60l-78 57q98 151 217 460l141 -35v2h445q51 0 73 -18q21 -18 21 -60v-281h-379l77 -25q-26 -32 -40 -47h324z" />
    <glyph glyph-name="uni504C" unicode="&#x504c;" 
d="M277 170q94 92 168 213h-139l-5 74h185q24 44 52 109l-77 -12l-5 54q-4 37 -5 53h-107l-2 29q-27 -43 -65 -96v-424zM563 31h186v192h-186v-192zM616 383q-37 -53 -65 -87h251q56 0 80 -20q23 -21 23 -68v-250h-497v190q-34 -30 -72 -57l-59 49v-230h-156v492l-15 -16
q-10 -10 -15 -16l-78 63q97 136 225 425l175 -49q-34 -60 -44 -75h74l-10 99l105 13l32 -112h162q9 56 15 113l157 -23q-15 -50 -31 -90h91l-8 -73h-112q-32 -74 -55 -117l-92 26q6 23 22 91h-128l11 -42q8 -28 11 -42l-20 -3l123 -18q-21 -43 -53 -99h318l-8 -74h-357z" />
    <glyph glyph-name="uni504E" unicode="&#x504e;" 
d="M474 749v-103h85v103h-85zM773 749h-87v-103h87v103zM773 480v110h-87v-110h87zM474 480h85v110h-85v-110zM338 727q-38 -70 -75 -128v-692h-141v494q-40 -49 -43 -52l-74 56q102 157 219 458l165 -38l-5 -11h431q52 0 74 -18q21 -19 21 -61v-320h-572v312zM668 290
q29 -45 63 -81q45 41 84 81h-147zM919 207q-53 -39 -107 -67q76 -52 179 -86l-93 -145q-237 94 -346 381h-49v-187l94 32l32 -87q-171 -88 -284 -140l-39 131l59 18v233h-88l-5 69h698l-8 -69h-118z" />
    <glyph glyph-name="uni504F" unicode="&#x504f;" 
d="M819 210v128h-37v-128h37zM672 210v128h-36v-128h36zM527 210v128h-34v-128h34zM264 218q64 169 71 509q-30 -49 -71 -111v-398zM487 670q0 -8 -9 -96h298v96h-289zM903 407q57 0 57 -49v-356q0 -57 -40 -80q-31 -18 -97 -18h-25l-7 57h28v182h-37v-181h-110v181h-36
v-194h-109v194h-34v-235h-128v280q-29 -54 -70 -110l-31 14v-187h-146v521q-11 -13 -35 -39l-82 60q81 123 203 418l182 -48q-30 -54 -45 -79h213v117h162v-117h169q39 -3 39 -43v-189h-456q-11 -65 -20 -99h455z" />
    <glyph glyph-name="uni5055" unicode="&#x5055;" 
d="M762 267h-258v-94h258v94zM762 8v103h-258v-103h258zM784 451h170l-6 -57h-169q-64 0 -92 14q-28 -45 -47 -71h171q58 0 83 -21q24 -20 24 -67v-311h-569v399h145l7 86q-112 -48 -170 -70l-32 139l56 14v248q-33 -63 -78 -135v-712h-150v503q-22 -28 -38 -46l-81 57
q85 137 201 433l146 -34v26h138v-108h134l-6 -72h-128v-125q94 25 124 34l12 -96l-118 -52l166 -14q-35 24 -35 109v331h142v-132q50 36 111 88l88 -118q-99 -58 -199 -97v-143z" />
    <glyph glyph-name="uni505A" unicode="&#x505a;" 
d="M375 822q-57 -113 -117 -209v-707h-138v517l-32 -38l-78 56q85 132 196 422zM495 317h-71v-221h71v221zM390 387v183h-109l-5 71h114v205h137v-205h82l-7 -71h-75v-183h9q47 0 66 -17t19 -59v-285h-320v361h89zM713 490q19 -88 50 -171q18 98 23 256h-52q-26 -60 -41 -89
zM854 -97q-54 57 -98 129q-51 -66 -127 -127l-59 42q86 83 136 186q-50 118 -77 291l-57 24q41 128 87 403l163 -19q-22 -82 -58 -182h213l-7 -75h-50q-16 -258 -83 -408q59 -96 149 -174z" />
    <glyph glyph-name="uni505C" unicode="&#x505c;" 
d="M344 710q-32 -50 -68 -98v-705h-143v533q-19 -20 -59 -60l-73 63q112 146 240 422l168 -50l-31 -52h173v91h149v-91h250l-7 -66h-598zM759 587h-257v-81h257v81zM816 647q81 0 81 -68v-133h-532v201h451zM338 208h583l-7 -65h-188v-129q0 -64 -46 -87q-35 -18 -110 -18
h-124l-8 56h128v178h-223zM901 386q45 0 45 -41v-115h-149v92h-359v-94h-141v158h604z" />
    <glyph glyph-name="uni5065" unicode="&#x5065;" 
d="M506 322q-25 -96 -56 -169q65 -50 163 -75v67h-122l-4 65h126v70h-104zM237 -31q54 87 85 176q-47 66 -85 156l80 33q15 -38 38 -75q14 63 22 134h-123l90 262h-61q-30 -52 -46 -77v-609zM741 473h55v81h-55v-81zM741 617h55v81h-55v-81zM613 409h-87l-1 -4q0 -3 -1 -5
q-8 -38 -13 -56h102v65zM659 69q130 -22 328 -5l-24 -155q-377 -15 -559 146q-45 -84 -110 -158l-57 34v-25h-137v478l-14 -17l-82 55q79 135 188 440l176 -41q-15 -33 -47 -95h137q22 0 33 -12t4 -29l-90 -226h80q17 0 27 -7l-2 21h106v81h-138l-4 63h142v81h-91l-5 64h95
v95h137v-95h126q41 0 41 -40v-98h49l-5 -70h-44v-145h-168v-65h171l-7 -64h-164v-70h190l-7 -65h-183v-76h-92z" />
    <glyph glyph-name="uni506C" unicode="&#x506c;" 
d="M277 565q94 119 163 292l141 -20q-31 -58 -53 -93h350q55 0 55 -47v-348q0 -56 -38 -78q-30 -18 -93 -18h-97l-7 56h100v287q-29 -63 -63 -116l59 -29l-70 -109l-60 40q-62 -71 -129 -123l-65 50q58 59 104 131l-43 27q-76 -88 -182 -153l-58 58q78 65 142 157l-36 22
l52 66l29 -14q18 35 33 69l124 -53q-18 -35 -42 -70l34 -16q33 66 57 135l114 -39v47h-315q-58 -82 -135 -158zM645 270q94 -122 120 -159l-111 -63q-68 148 -85 183zM254 46l86 175l88 -40q-52 -158 -81 -238l-93 41v-74h-134v520l-48 -53l-69 58q108 145 234 425l157 -41
q-67 -121 -140 -222v-551zM853 -30l-2 7l-9 -46h-276q-84 0 -111 22q-27 23 -27 93v180h136v-248h286l-74 228l89 30q109 -198 118 -217z" />
    <glyph glyph-name="uni5076" unicode="&#x5076;" 
d="M759 239q45 -116 54 -143v175h-143v-111l35 5l-13 59zM564 479v108h-63v-108h63zM501 746v-94h63v94h-63zM764 746h-68v-94h68v94zM764 479v108h-68v-108h68zM897 338q57 0 57 -48v-288q0 -55 -40 -76q-31 -17 -97 -17h-96l-7 52h99v82l-77 -20l-10 47q-154 -43 -263 -69
l-17 131q35 3 96 11v128h-98v-365h-137v432h257v73h-200v317q-50 -92 -98 -167v-660h-137v468q-34 -43 -48 -59l-81 60q107 169 235 497l178 -45l-5 -9h397q53 0 75 -19q21 -18 21 -62v-321h-205v-73h201z" />
    <glyph glyph-name="uni5077" unicode="&#x5077;" 
d="M398 802q-72 -131 -146 -230v-662h-134v500q-5 -6 -16 -17l-17 -18l-74 60q99 137 220 414zM491 164v94h-70v-94h70zM421 404v-83h70v83h-70zM563 471q50 0 50 -44v-425q0 -93 -119 -93h-46l-7 49h50v143h-70v-192h-119v562h261zM799 481h123v-467q0 -99 -124 -99h-108
l-7 48h116v518zM765 37h-112v399h112v-399zM744 596q-60 45 -113 98q-62 -56 -124 -98h237zM744 815q-20 -25 -48 -55q120 -86 296 -147l-66 -127q-80 38 -158 92l-4 -46h-284l-3 44q-73 -46 -156 -84l-55 74q194 111 313 291z" />
    <glyph glyph-name="uni507B" unicode="&#x507b;" 
d="M437 654l-64 125q-46 -82 -102 -161v-711h-144v529q-16 -18 -46 -50l-69 57q106 144 225 413l157 -41l-18 -31l72 44l56 -59q34 -36 52 -56l-86 -59h87v203h140v-203h85l-72 42q46 105 59 140l127 -61q-42 -57 -109 -121h168l-8 -70h-215q91 -76 246 -105l-54 -122
q-135 38 -227 130v-108h-140v107q-104 -92 -250 -160l-11 99q121 65 202 159h-172l-6 70h117zM581 239q-23 -30 -69 -86l119 -36q53 46 77 122h-127zM667 357l-33 -47h335l-8 -71h-97q-32 -101 -97 -164q120 -38 178 -57l-77 -116l-222 93q-115 -53 -312 -85l-25 82
q125 25 206 57l-146 59h-4l2 3q36 59 71 128h-143l-6 71h184q18 35 36 77z" />
    <glyph glyph-name="uni507E" unicode="&#x507e;" 
d="M375 716q-42 -65 -96 -137v-674h-155v491q-32 -34 -49 -51l-73 65q123 160 266 456l171 -48l-34 -56h138v93h165v-93h215l-7 -67h-216v-98h-149v98h-174zM774 103q81 -36 194 -89l-75 -125q-81 58 -249 172l55 76l71 -32v228h-293v-232q49 59 68 184h185
q-28 -149 -106 -232q-93 -98 -291 -149l-29 87q111 41 165 100h-144v308h554q53 0 53 -50v-246h-158zM980 562l-8 -67h-110v-75h-153v75h-165v-75h-150v75h-102l-5 67h113v85h140v-85h172v85h143v-85h125z" />
    <glyph glyph-name="uni507F" unicode="&#x507f;" 
d="M910 787q-51 -72 -119 -140l-79 44q41 95 64 156zM427 645l-44 145q-54 -96 -114 -184v-701h-150v503l-39 -45l-76 58q98 148 222 439l174 -39l-2 -3l69 25q84 -130 91 -142v152h150v-211h195q44 0 44 -40v-165h-142v135h-355v-142h-140v212h248v55zM465 395l-5 69h332
l-6 -69h-321zM836 -100l-23 49h-400q-65 0 -82 41q-16 40 22 88q19 25 55 68q50 61 63 78h-171l-5 71h675l-8 -71h-291q-81 -89 -188 -203h295l-75 155l91 43q134 -182 177 -248z" />
    <glyph glyph-name="uni5080" unicode="&#x5080;" 
d="M846 262q-23 -63 -57 -140h54l-16 77l66 16q43 -105 66 -169l-94 -25l-8 38h-132q-66 0 -43 73q33 103 53 158zM521 386q10 63 15 134h-66v-134h51zM470 697v-113h70q4 72 4 113h-74zM768 697h-73l-4 -58q-2 -36 -4 -55h81v113zM768 386v134h-88q-10 -78 -22 -134h110z
M974 -1l-6 -57h-298q-85 0 -112 26q-25 25 -25 101v22q-70 -95 -181 -176l-62 49q166 146 217 355h-174v371q-25 -40 -59 -90v-695h-146v503l-39 -45l-82 62q90 139 217 440l184 -46l-31 -55h117v94l181 -7q-9 -23 -41 -87h172q55 0 78 -19q22 -19 22 -64v-362h-265
q-7 -27 -20 -63h54v-257h299z" />
    <glyph glyph-name="uni5085" unicode="&#x5085;" 
d="M688 258h88v46h-88v-46zM548 359v73h-81v-73h81zM467 559v-74h81v74h-81zM688 432v-73h88v73h-88zM688 559v-74h88v74h-88zM977 118h-135v-99q0 -63 -45 -87q-33 -18 -106 -18h-103l-8 54h108v150h-210q85 -95 98 -111l-123 -64l-75 152l50 23h-131l-5 68h396v60h-140v58
h-81v-67h-140v383h219v58h-219l-47 -68v-702h-146v521q-15 -17 -45 -49l-81 63q86 122 215 413l181 -50l-36 -61h178v112h146v-114h72q-34 54 -50 78l74 40l105 -89l-48 -29h118l-7 -63h-264v-60h178q49 0 49 -46v-316h-77v-72h143z" />
    <glyph glyph-name="uni5088" unicode="&#x5088;" 
d="M643 736h-38v-80h38v80zM806 593h-37v-153h37v153zM448 440h39v153h-39v-153zM608 593v-153h39v153h-39zM731 223q97 -92 265 -147l-72 -134q-126 56 -220 159v-190h-152v173q-96 -73 -227 -128l-59 82v-130h-143v485l-34 -41l-84 60q86 140 212 456l185 -43l-10 -20h560
l-8 -69h-164v-80h75q89 0 89 -73v-206h-632v279h162v80h-120q-38 -70 -88 -146v-548q136 73 233 181h-200l-6 74h259v74h152v-74h270l-8 -74h-235z" />
    <glyph glyph-name="uni508D" unicode="&#x508d;" 
d="M693 362h246l-7 -72h-322q-8 -53 -19 -94h228q65 0 65 -53v-133q0 -56 -48 -77q-34 -14 -113 -14h-163l-6 63h164v145h-151q-65 -147 -244 -223l-50 66q88 55 124 137q28 64 36 183h-123l-5 72h235v97h153v-97zM534 689l73 -113l-52 -17h110l32 130h-163zM908 559
q45 0 45 -40v-120h-149v91h-364v-89h-144v158h162l-23 107l79 23h-159l-3 45q-37 -61 -84 -128v-695h-152v507q-19 -22 -40 -43l-74 61q105 145 228 426l168 -48q-10 -19 -32 -55h190v96h149v-96h251l-8 -70h-220l118 -32q-24 -46 -60 -98h122z" />
    <glyph glyph-name="uni50A3" unicode="&#x50a3;" 
d="M333 707q-23 -39 -71 -111v-353q70 78 122 177h-105l-5 67h143q14 28 32 78h-107l-5 64h134q9 29 22 78h-160zM262 214v-307h-140v505q-14 -17 -44 -51l-76 59q102 151 223 441l171 -42q-16 -30 -25 -45h138q7 32 16 85l153 -13q-10 -48 -16 -72h261l-7 -67h-272
q-10 -33 -26 -78h279l-8 -64h-296q-16 -40 -36 -78h401l-8 -67h-152q71 -72 186 -118l-73 -119q-142 77 -222 237h-169q-81 -137 -200 -242zM539 206v36l-38 -57zM849 193q-51 -27 -83 -39q30 -14 190 -93l-55 -116q-128 87 -220 144v-71q0 -62 -42 -86q-32 -19 -98 -19h-92
l-7 51h97v136q-111 -78 -220 -147l-49 112q89 44 180 93q-42 42 -62 61l52 65q62 -24 99 -41v130h142v-179l22 -10l-16 23l77 91z" />
    <glyph glyph-name="uni50A5" unicode="&#x50a5;" 
d="M428 619l-59 133q-42 -72 -82 -133h141zM443 619h103v60zM758 476q26 0 42 -4v78h-374v-74h332zM511 271h194v137h-194v-137zM972 -16l-7 -57h-198q-88 0 -115 27q-25 24 -25 103v146h-40q-23 -109 -77 -175q-63 -75 -190 -121l-35 65q123 70 147 231h-64v222h-85v188
l-21 -31v-676h-143v492q-10 -13 -32 -37l-79 61q95 143 220 440l178 -44l-22 -39l60 31q114 -137 102 -122v168h146v-237h61l-61 52q67 110 90 153l119 -81q-54 -59 -138 -124h140q46 0 46 -41v-149h-104q4 -12 4 -31v-195h-74v-219h197z" />
    <glyph glyph-name="uni50A7" unicode="&#x50a7;" 
d="M533 225h114v128h-114v-128zM450 543q114 41 283 112l83 -99v119h-366v-132zM781 156q111 -86 189 -154l-116 -98l-175 212l53 40h-188l72 -77q-126 -96 -263 -170l-55 78q77 70 169 169h-165l-5 69h93v298h3l52 18h-135v136q-19 -31 -47 -69h9v-703h-146v530
q-32 -36 -51 -55l-72 58q102 141 223 413l163 -43l-37 -64h209v107h164v-107h189q44 0 44 -40v-157h-134l5 -6q-129 -37 -296 -65v-55h394l-7 -68h-129v-128h181l-8 -69h-183z" />
    <glyph glyph-name="uni50A8" unicode="&#x50a8;" 
d="M383 552q-27 62 -68 152q-40 -58 -79 -109v-688h-134v535l-29 -30l-71 60q103 133 218 384l163 -45l-39 -64l42 22q94 -116 118 -148zM788 305h-107v-108h107v108zM788 -6v137h-107v-137h107zM709 668v-97q37 48 66 97h-66zM798 475q-56 -59 -114 -103h151q54 0 76 -19
q21 -19 21 -65v-362h-394v353q-32 -18 -76 -36l-34 48v-116l53 42l52 -74q-106 -113 -199 -199l-71 106l41 30v369h-59l-5 75h144q44 0 44 -45v-152q106 61 196 148h-155l-5 69h111v124h-76l-5 68h81v113h134v-113h80l-5 -53q32 54 57 114l136 -54q-54 -111 -121 -199h128
l-8 -69h-178z" />
    <glyph glyph-name="uni50A9" unicode="&#x50a9;" 
d="M651 83h93v126h-76l-5 69h81v123h-76l-5 69h81v122h-93v-509zM228 95q47 109 80 234q-40 116 -78 222l77 34l37 -82q11 65 19 149h-86l-4 34l-45 -77v-514zM977 12h-326v-106h-128v519l-26 -35l-44 28q-21 -72 -28 -94l86 -204l-113 -52l-34 98q-37 -84 -90 -176l-46 27
v-112h-128v521l-21 -26l-76 51q77 129 179 412l164 -35q-29 -60 -55 -109h171q51 0 41 -57q-11 -73 -20 -111q52 114 114 301l150 -30q-36 -84 -75 -159h71v132h131v-132h94l-7 -71h-89v-122h78l-7 -69h-71v-123h78l-7 -69h-71v-126h112z" />
    <glyph glyph-name="uni50AC" unicode="&#x50ac;" 
d="M473 38h145v82h-126l-5 61h131v87h-126l-5 60h131v86h-143l-2 -3v-373zM263 347q81 104 161 263q-54 5 -72 32q-17 24 -17 86v4q-37 -72 -78 -138h6v-247zM971 -30h-498v-64h-137v369q-4 -4 -13 -11l-14 -12l-46 42v-393h-140v496l-41 -53l-82 55q84 144 201 462l179 -39
l-7 -15h98v-143h86v192h137v-192h99v151h134v-207h-465l130 -44q-37 -53 -64 -86h103v93h149v-93h179l-7 -64h-196v-86h185l-7 -60h-178v-87h185l-7 -61h-178v-82h223z" />
    <glyph glyph-name="uni50B2" unicode="&#x50b2;" 
d="M742 512q13 -90 40 -180q14 98 16 252h-54q-14 -27 -46 -79zM381 513h-86l-5 66h91v90h-86l-2 28q-22 -46 -54 -101v-646q89 129 89 406h-63l-5 66h121v91zM864 -100q-52 59 -89 120q-53 -64 -126 -118l-61 44q88 81 136 181q-50 129 -67 313l-12 -17l-77 43l21 47h-67
v-91h111l-7 -66h-149l-6 -68h115q55 0 55 -45v-208q0 -50 -38 -68q-28 -14 -93 -14h-63l-7 53h66v215h-44q-33 -193 -156 -312l-67 33v-38h-135v487l-18 -24l-77 50q83 147 180 444l164 -35q-26 -60 -40 -88h68v110h141v-110h105l-7 -69h-98v-90h81l-4 -42q45 113 99 316
l155 -28q-31 -81 -69 -164h193l-6 -77h-31q-13 -279 -81 -429q57 -97 139 -169z" />
    <glyph glyph-name="uni50BA" unicode="&#x50ba;" 
d="M512 145q-101 -135 -166 -212l-90 91q107 102 184 180zM749 213q130 -101 214 -173l-96 -104q-80 97 -183 214zM837 284q-69 69 -119 157l-6 -61h-216l-1 23q-63 -71 -141 -119h483zM246 321q67 44 112 94q-24 32 -36 46l50 57l45 -30q20 29 31 51l-37 35l39 60l35 -15
q13 36 23 70h-31q-73 -116 -170 -220l-61 48v-196zM715 446q-47 85 -77 188q-50 -111 -109 -188h186zM728 702q24 -61 46 -103q16 70 22 103h-68zM867 213h-191v-202q0 -64 -45 -88q-33 -18 -106 -18h-86l-8 54h91v254h-181l-4 60q-27 -15 -50 -26l-41 42v-384h-137v504
q-18 -22 -28 -33l-77 56q90 140 203 436l169 -43q-58 -119 -130 -230v-72q83 118 168 338l140 -37q-24 -46 -37 -68h91q-1 9 -6 38q-5 25 -7 40l88 19q10 -45 24 -88h193q39 0 54 -20q14 -20 1 -49q-12 -25 -48 -105q-30 -66 -54 -112q57 -73 137 -133l-119 -90z" />
    <glyph glyph-name="uni50BB" unicode="&#x50bb;" 
d="M521 182q43 -38 97 -64q42 32 71 64h-168zM455 709v-174q54 29 94 58l-86 57l42 55l113 -59q42 36 66 63h-229zM789 709h-58l51 -50q-37 -35 -72 -62l79 -42v154zM789 468v84l-54 -84h54zM455 468h276q-52 38 -105 72q-68 -40 -143 -69l-28 48v-51zM943 -94
q-189 7 -327 84q-140 -72 -310 -91l-31 86q135 21 243 73q-44 39 -72 73q-54 -38 -82 -56l-55 58q108 91 191 185q-91 -52 -190 -86l-36 67q79 43 159 106h-114v285q-31 -57 -62 -109v-674h-134v478q-14 -19 -37 -47l-82 56q89 151 202 465l176 -42l-21 -45h121q2 15 7 91
l190 -24q-16 -27 -45 -67h200q93 0 93 -77v-290h-160q118 -43 200 -74l-50 -103q-143 80 -245 133l27 44h-160l33 -42l-22 -14l114 -31q-34 -34 -70 -67h230q43 0 51 -33q8 -32 -19 -55q-59 -52 -104 -87q97 -17 220 -14z" />
    <glyph glyph-name="uni50CF" unicode="&#x50cf;" 
d="M651 406q34 -52 57 -124q61 45 154 124h-211zM494 469q52 52 89 116h-97v-116h8zM531 715q-22 -23 -66 -67h181q24 41 37 67h-152zM724 585q-35 -65 -77 -116h156v116h-79zM955 299q-80 -48 -132 -74q55 -89 157 -156l-90 -113q-98 90 -150 229l-11 -5q5 -62 3 -106
q-4 -94 -42 -131q-35 -34 -120 -34h-99l-8 59h88q43 0 50 102l1 11q-118 -76 -263 -116l-42 74q177 65 292 181l2 -1l-3 14q-119 -85 -271 -123l-40 72q168 55 270 163q-1 3 -5 10l-5 9q-99 -70 -234 -106l-33 59v-409h-143v543q-18 -19 -55 -56l-67 60q115 144 238 410
l154 -46q-58 -102 -127 -196v-291q85 31 147 74h-67v138l-11 -9l-65 62q98 111 190 268l160 -42l-18 -22q-13 -15 -19 -23h210q42 0 56 -25q13 -24 -9 -48q-36 -38 -56 -57h66q86 0 86 -71v-171h-66z" />
    <glyph glyph-name="uni50D6" unicode="&#x50d6;" 
d="M350 717q-28 -47 -71 -109v-700h-150v512q-16 -18 -50 -54l-74 62q108 148 236 438l168 -48l-23 -40h179v76h149v-76h238l-8 -61h-230v-63h235l-7 -57h-606l-5 57h234v63h-215zM763 109h-247v-115h247v115zM841 164q91 0 91 -73v-152h-584v225h493zM526 356
q48 -69 60 -89h97l28 89h-185zM508 409h259v99h-259v-99zM982 267l-8 -62h-670l-5 62h139q-12 60 -15 71l62 18h-126v204h477q80 0 80 -65v-139h-151l88 -32q-25 -38 -41 -57h170z" />
    <glyph glyph-name="uni50DA" unicode="&#x50da;" 
d="M524 104q-95 -105 -174 -184l-82 112q117 87 190 145zM500 234h217v80h-217v-80zM260 412q52 39 99 91q-43 61 -74 99l61 61l84 -63q23 36 43 79h-145l-2 19q-30 -51 -66 -103v-183zM500 444v-73h217v73h-217zM703 499q-54 66 -96 144q-45 -79 -102 -144h198zM696 179
v-170q0 -62 -45 -85q-33 -17 -106 -17h-95l-7 53h99v219h-185v193q-21 -15 -41 -26l-56 48v-489h-143v504q-22 -26 -34 -39l-76 58q94 139 215 429l171 -42l-36 -65h146q18 48 34 111l154 -18q-15 -48 -33 -93h294l-8 -71h-248q40 -52 86 -91q28 35 64 84l97 -95
q-40 -29 -77 -52q54 -34 117 -63l-84 -129l-38 24v-178h-165zM773 171q141 -99 195 -141l-89 -106q-114 126 -167 181z" />
    <glyph glyph-name="uni50E6" unicode="&#x50e6;" 
d="M420 363h77v145h-77v-145zM984 -19l-6 -50h-100q-70 0 -92 23q-21 21 -21 84v214q-47 -187 -151 -341l-73 28q49 90 80 188l-52 -30q-22 47 -41 91v-184q0 -57 -38 -78q-27 -16 -90 -16h-69l-7 46h75v223q-22 -54 -70 -162l-82 44v-151h-134v523l-41 -47l-70 55
q99 142 213 417l157 -39q-26 -51 -68 -122h101v148h124v-148h129l-7 -65h-370l-2 25l-16 -24q-10 -17 -16 -25v-503l93 158l59 -31v68h-103v270h249q42 0 60 -15q17 -16 17 -54v-201h-94v-55l45 23q27 -33 65 -82q35 136 45 320h-45l-5 70h52q4 105 2 276h129l-1 -82l39 22
q72 -86 110 -137l-98 -61l-52 105q-1 -44 -5 -123h142l-6 -70h-141q-5 -59 -10 -95h88v-430h102z" />
    <glyph glyph-name="uni50E7" unicode="&#x50e7;" 
d="M732 -10v98h-209v-98h209zM523 235v-92h209v92h-209zM791 295q53 0 75 -19t22 -62v-284h-520v365h423zM800 410v137q-35 -55 -78 -106l-31 17v-48h109zM466 410h100v56l-70 -28l-30 95v-123zM566 645h-100v-43l46 17l54 -95v121zM800 645h-109v-109q17 39 34 85l75 -30
v54zM845 707q93 0 93 -76v-283h-608v334q-28 -46 -57 -90v-684h-146v491l-45 -52l-73 58q111 161 233 453l165 -40q-20 -39 -62 -111h115l-38 124l100 28l91 -127l-82 -25h127q22 60 42 151l169 -38q-35 -56 -80 -113h56z" />
    <glyph glyph-name="uni50EC" unicode="&#x50ec;" 
d="M491 620v-356h159v85h-142l-4 64h146v84h-140l-5 65h145v88h-136zM491 136h-70l61 -27q-42 -104 -89 -208l-118 62q36 59 108 173h-23v329l-25 -27q-17 -19 -26 -28l-40 32v-533h-146v522q-14 -15 -44 -45l-79 66q95 129 226 407l183 -50q-78 -126 -144 -211h4v-70
q66 105 173 320l186 -35q-27 -43 -65 -96h93v125h131v-125h176l-7 -67h-165v-88h155l-7 -65h-148v-84h153l-6 -64h-147v-85h183l-7 -66h-476v-62zM585 120l23 -100q14 -61 22 -99l-131 -12q-1 79 -5 204zM734 129l34 -97q21 -60 33 -97l-127 -25l-28 204zM867 153
q90 -144 112 -184l-122 -52q-57 161 -74 205z" />
    <glyph glyph-name="uni50ED" unicode="&#x50ed;" 
d="M399 701l-28 -93h24q11 55 16 128h-86l-3 41q-20 -44 -31 -65zM455 455q-56 -84 -145 -147l-51 45q88 84 122 196h-71q-29 0 -37 15q-7 12 -2 46l18 98q-7 -16 -45 -86h5v-721h-138v514q-11 -16 -28 -38l-78 50q79 140 181 444l163 -35l-16 -37h259l-6 -63h-40
q-9 -71 -25 -128h81l-6 -59h-94q-3 -9 -11 -27h74v-56l47 30l26 -63q-85 -72 -169 -135l-42 85l28 16v56zM769 -12v91h-293v-91h293zM476 224v-85h293v85h-293zM820 284q93 0 93 -76v-280h-579v356h486zM990 381l-6 -53h-103q-71 0 -97 15q-27 16 -32 60q-49 -57 -116 -104
l-49 46q97 91 133 208h-75q-29 0 -36 14q-7 12 -2 46l19 102l110 -7q-16 -56 -29 -95h29q11 56 19 129h-136l-5 63h331l-6 -63h-50q-10 -69 -27 -129h103l-6 -60h-117q-7 -17 -17 -38h67v-134h98z" />
    <glyph glyph-name="uni50EE" unicode="&#x50ee;" 
d="M509 714q39 -50 60 -81l-49 -16h150l28 97h-189zM283 617h145q-3 18 -16 75l72 22h-141l-2 29q-38 -69 -79 -134v-708h-134v520l-23 -28q-14 -18 -23 -28l-74 56q96 149 212 445l165 -38q-18 -36 -28 -54h192v81h143v-81h228l-7 -60h-166l93 -31q-18 -30 -45 -66h189
l-8 -61h-688zM478 243h81v77h-81v-77zM478 453v-75h81v75h-81zM776 453h-83v-75h83v75zM776 243v77h-83v-77h83zM699 -4h278l-8 -63h-680l-5 63h265v71h-212l-5 61h217v60h-220v320h506q91 0 91 -73v-247h-227v-60h238l-7 -61h-231v-71z" />
    <glyph glyph-name="uni50F3" unicode="&#x50f3;" 
d="M653 739h-45v-74h45v74zM821 602h-45v-146h45v146zM444 456h39v146h-39v-146zM608 602v-146h46v146h-46zM347 763q-47 -89 -86 -150v-705h-138v513q-26 -32 -40 -48l-77 55q86 135 196 423l169 -42l-1 -1h562l-8 -69h-143v-74h85q86 0 86 -71v-200h-638v271h163v74h-128z
M719 179q96 -80 262 -121l-60 -127q-129 46 -229 146v-171h-140v156q-103 -76 -229 -125l-58 82q128 66 218 160h-183l-5 68h98l-39 84l77 44q71 -73 90 -96l-50 -32h81v132h140v-132h23q47 89 68 138l114 -62q-35 -45 -65 -76h138l-8 -68h-243z" />
    <glyph glyph-name="uni50F5" unicode="&#x50f5;" 
d="M976 352h-679l-5 56h691zM793 92v63h-93v-63h93zM471 92h98v63h-98v-63zM471 260v-60h98v60h-98zM793 260h-93v-60h93v60zM853 308q78 0 78 -63v-201h-596v264h518zM788 501v56h-91v-56h91zM477 501h89v56h-89v-56zM477 654v-52h89v52h-89zM788 654h-91v-52h91v52z
M849 701q76 0 76 -61v-187h-584v248h508zM330 752q-24 -47 -74 -133v-717h-140v510l-37 -47l-79 54q85 144 197 450l172 -38l-13 -27h588l-7 -58h-607v6zM985 6l-8 -59h-693l-4 59h705z" />
    <glyph glyph-name="uni50FB" unicode="&#x50fb;" 
d="M611 735h99v120h128v-120h124l-7 -70h-339zM487 263h-60v-206h60v206zM238 239q47 169 50 432q-25 -46 -50 -88v-344zM422 702q-7 -105 -14 -159h72v159h-58zM523 333q44 0 61 -16q17 -15 17 -55v-275h-286v201l-28 -59l-49 17v-238h-132v483l-15 -19q-10 -12 -15 -19
l-76 53q88 145 200 452l163 -38l-23 -49h223q40 0 40 -38v-259h-205q-12 -74 -31 -141h156zM847 365v-147h115l-7 -71h-108v-242h-134v242h-97l-5 71h102v147h-117l-5 72h176l11 39l-107 -37q-29 106 -55 193l79 24l87 -168q24 92 39 171l128 -26q-35 -102 -82 -196h116
l-7 -72h-129z" />
    <glyph glyph-name="uni5106" unicode="&#x5106;" 
d="M749 506q11 -90 37 -180q14 100 17 272h-27q-21 -49 -43 -95zM362 126h37v172h-37v-172zM228 387q49 73 103 196l21 -6l-7 99h-59l-2 37q-23 -43 -56 -99v-227zM851 -90q-40 50 -72 105q-43 -58 -100 -111l-60 36q72 81 112 176q-49 131 -64 305l-30 15v-425
q0 -96 -119 -96h-81l-8 49h85v478h-115q-31 -41 -68 -81h94q35 0 49 -13q13 -13 13 -45v-240h-211v242l-20 -18l-28 23v-402h-131v519l-20 -25l-72 50q78 128 175 401l155 -36q-18 -39 -36 -75h42l-6 93l87 8l21 -101h67q4 35 8 107l132 -11q-6 -32 -22 -96h54l-7 -66h-65
q-23 -78 -45 -135l-81 20q11 52 19 115h-47l21 -107l-72 -8l62 -19l-24 -37h144q25 0 39 -16q47 139 89 366l144 -19q-27 -94 -55 -168h168l-7 -70h-34q-13 -291 -75 -443q52 -93 126 -166z" />
    <glyph glyph-name="uni5107" unicode="&#x5107;" 
d="M492 291h287v75h-287v-75zM466 634h47v117h-47v-117zM813 751h-47v-117h47v117zM662 634v117h-45v-117h45zM965 149q-53 -37 -104 -61q54 -30 125 -55l-76 -132q-186 84 -306 272q-24 -16 -36 -23v-100q47 12 104 30l16 -77q-143 -63 -262 -110l-27 112l45 11v71
q-59 -26 -139 -50l-32 57v-189h-146v505q-34 -43 -48 -59l-77 57q99 158 217 458l172 -40l-9 -17h479q78 0 78 -64v-169h-597v157q-50 -87 -69 -117v-507q125 51 216 127h-133v185h484q77 0 77 -63v-122h-241q47 -53 96 -91q40 43 69 85zM292 530h687l-7 -62h-675z" />
    <glyph glyph-name="uni510B" unicode="&#x510b;" 
d="M790 97h-186v-112h186v112zM850 152q78 0 78 -66v-157h-461v223h383zM467 454h32l-30 40zM537 730q-32 -39 -73 -83h182q26 48 44 83h-153zM472 585l-3 -86q40 34 83 86h-80zM835 454q-60 66 -89 96l35 35h-186l49 -45q-58 -52 -123 -86h114v71h125v-71h75zM967 398h-504
q-7 -87 -16 -153h502l-6 -52h-492l-4 52q-26 -178 -93 -330l-85 23q64 207 62 578l-2 -2l-61 55v-663h-140v532q-16 -18 -46 -50l-72 59q102 140 223 412l163 -43q-63 -112 -131 -207h3v-30q87 110 178 277l163 -35l-23 -30l218 -1q44 0 59 -26q15 -25 -8 -51
q-25 -30 -61 -66h167l-8 -62h-134q58 -36 89 -57l-65 -74h131zM485 293l-4 50h428l-6 -50h-418z" />
    <glyph glyph-name="uni5112" unicode="&#x5112;" 
d="M546 616h-142v-69l15 43l127 -19v45zM390 488l156 -24v72l-14 -53q-96 37 -128 48v-43h-14zM327 778q-37 -81 -81 -160h2v-711h-128v515q-11 -16 -35 -48l-77 50q75 136 174 429l164 -34l-4 -10h556l-7 -62h-212v-67h232q38 0 38 -35v-155h-123v61l-18 -71
q-77 30 -134 50l20 57q90 -14 132 -19v48h-152v-182l16 48q97 -7 173 -15l-19 -87l-170 44v-12h-128v37l-20 -72l-170 57l20 54h-91v192h257v67h-212zM663 296q-13 -34 -34 -73h259q54 0 54 -45v-191q0 -49 -38 -67q-28 -13 -93 -13h-44l-7 48h47v206h-60v-218h-110v218h-49
v-222h-107v222h-55v-252h-128v314h211q3 24 5 73h-248l-5 62h715l-7 -62h-306z" />
    <glyph glyph-name="uni5121" unicode="&#x5121;" 
d="M476 751v-90h67v90h-67zM728 751h-69v-90h69v90zM728 508v94h-69v-94h69zM476 508h67v94h-67v-94zM334 750q-51 -96 -96 -163v-683h-134v503l-21 -25l-74 55q90 137 198 423l162 -41l-4 -8h415q50 0 71 -18t21 -59v-287h-538v303zM488 3v146h-25v-146h25zM364 3h26v146
h-26v-146zM364 332v-125h26v125h-26zM488 332h-25v-125h25v125zM513 392q40 0 55 -14q15 -13 15 -49v-387h-311v450h241zM842 1v142h-29v-142h29zM704 1h30v142h-30v-142zM704 330v-128h30v128h-30zM842 330h-29v-128h29v128zM867 390q40 0 55 -14t15 -49v-387h-325v450h255
z" />
    <glyph glyph-name="uni513F" unicode="&#x513f;" 
d="M696 7h263l-7 -68h-251q-96 0 -133 37q-34 35 -34 120v752h162v-841zM440 839q-5 -382 -52 -539q-70 -239 -297 -387l-77 54q177 150 224 367q29 138 23 505h179z" />
    <glyph glyph-name="uni5140" unicode="&#x5140;" 
d="M930 11l-6 -69h-226q-99 0 -135 36q-33 34 -33 122v556h-68q-16 -284 -79 -435q-82 -194 -285 -318l-73 63q155 123 205 296q37 124 40 394h-189l-7 83h828l-10 -83h-194v-645h232z" />
    <glyph glyph-name="uni5141" unicode="&#x5141;" 
d="M955 10l-6 -68h-271q-102 0 -137 35q-33 32 -33 123v312h-58q-29 -184 -105 -296q-88 -129 -265 -209l-46 72q126 78 180 186q42 87 59 247h-43q-72 0 -90 46q-17 44 24 105q32 49 93 137l111 160l175 -44q-107 -148 -252 -330h403l-119 238l102 42q170 -240 245 -362
l-152 -73l-39 81h-48v-402h272z" />
    <glyph glyph-name="uni5143" unicode="&#x5143;" 
d="M142 691l-6 80h718l-9 -80h-703zM948 7l-6 -69h-242q-106 0 -142 36q-33 33 -33 127v325h-84q-26 -188 -99 -302q-86 -135 -263 -217l-55 74q124 80 175 192q40 89 53 253h-200l-6 80h873l-10 -80h-203v-419h242z" />
    <glyph glyph-name="uni5144" unicode="&#x5144;" 
d="M304 458h377v265h-377v-265zM953 20l-6 -65h-260q-99 0 -132 33q-30 30 -30 118v272h-80q-25 -181 -98 -282q-89 -122 -281 -186l-39 77q134 61 187 160q42 76 55 231h-126v425h579q122 0 122 -96v-329h-152v-358h261z" />
    <glyph glyph-name="uni5145" unicode="&#x5145;" 
d="M957 -11l-7 -68h-257q-106 0 -141 35q-32 32 -32 126v250h-34q-34 -157 -125 -255q-102 -112 -296 -174l-31 91q131 59 191 144q50 71 70 194h-63v1q-74 1 -92 49q-18 47 29 99l138 153h-256l-6 78h373v137h168v-137h368l-10 -78h-411q-34 -34 -229 -224h371l-110 151
l88 62q194 -188 263 -262l-132 -104l-53 75h-31v-343h257z" />
    <glyph glyph-name="uni5146" unicode="&#x5146;" 
d="M133 768q110 -106 160 -158q2 72 2 231h179q-9 -355 -55 -534q-61 -240 -230 -420l-89 45q116 158 158 350q-73 -50 -169 -110l-66 148q161 75 261 126q4 50 5 77l-80 -63q-86 134 -163 247zM675 12h266l-7 -67h-253q-92 0 -128 36q-33 34 -33 116v757h155v-239
q61 78 126 173l125 -92q-113 -124 -251 -229v-48l15 20q199 -93 271 -129l-88 -139q-94 72 -198 149v-308z" />
    <glyph glyph-name="uni5148" unicode="&#x5148;" 
d="M691 335v-338h252l-7 -61h-249q-92 0 -123 30q-28 28 -28 110v259h-89q-31 -156 -108 -253q-87 -111 -256 -178l-41 76q116 64 168 153q44 74 61 202h-214l-6 78h396v185h-165q-28 -53 -100 -176l-89 39q44 135 91 331l184 -16q-32 -72 -47 -102h126v182h159v-182h267
l-8 -76h-259v-185h349l-9 -78h-255z" />
    <glyph glyph-name="uni5149" unicode="&#x5149;" 
d="M868 748q-82 -128 -185 -238l-84 51q75 140 123 255zM264 503l-122 257l94 45q138 -183 167 -227zM951 1l-7 -62h-262q-92 0 -123 31q-29 28 -29 110v325h-78q-25 -184 -94 -294q-81 -129 -250 -208l-51 68q119 77 167 186q39 86 52 248h-223l-6 79h373v371h155v-371h372
l-9 -79h-253v-404h266z" />
    <glyph glyph-name="uni514B" unicode="&#x514b;" 
d="M321 311h352v185h-352v-185zM961 -12l-7 -66h-274q-102 0 -135 33q-31 30 -31 121v160h-59q-28 -132 -106 -205q-93 -86 -290 -128l-28 85q131 37 187 99q46 52 61 149h-113v335h253v105h-353l-7 78h360v99h155v-99h372l-10 -78h-362v-105h146q109 0 109 -88v-247h-141
v-248h273z" />
    <glyph glyph-name="uni514D" unicode="&#x514d;" 
d="M396 328q16 69 23 187h-127v-187h104zM397 688q-51 -53 -111 -103h216q12 20 58 103h-163zM717 515h-114q-11 -106 -32 -187h146v187zM978 -5l-6 -64h-332q-99 0 -131 31q-29 28 -29 116v52q-124 -165 -420 -232l-30 95q276 81 346 265h-239v212l-51 -35l-61 79
q167 143 317 358l157 -74l-34 -39h232q52 0 70 -32q16 -30 -12 -61q-40 -43 -81 -81h91q108 0 108 -83v-244h-324l-12 -30h110v-233h331z" />
    <glyph glyph-name="uni5151" unicode="&#x5151;" 
d="M323 371h356v206h-356v-206zM950 -3l-6 -67h-244q-107 0 -141 34q-32 32 -32 126v206h-61q-22 -156 -98 -241q-93 -103 -295 -148l-30 90q132 42 183 117q41 60 51 182h-115v356h142q-35 77 -75 162l100 40q125 -147 133 -158l-95 -44h175q46 113 78 210l161 -62
q-44 -75 -101 -148h47q114 0 114 -90v-266h-133v-299h242z" />
    <glyph glyph-name="uni5154" unicode="&#x5154;" 
d="M401 330q20 62 36 172h-130v-172h94zM374 692q-64 -67 -121 -120h259q6 18 22 59q15 40 22 61h-182zM732 502h-117q-16 -96 -43 -172h160v172zM971 -8l-6 -63h-334q-95 0 -126 30q-29 28 -29 112v81q-128 -162 -402 -242l-30 91q249 94 329 258h-220v226q-38 -32 -57 -47
l-68 77q138 143 275 356l185 -50l-50 -59h242q49 0 67 -27q17 -25 -6 -57q-36 -51 -79 -106h120q106 0 106 -82v-231h-151q123 -101 134 -111l-109 -88q-41 60 -107 151l67 48h-179q-12 -24 -19 -36h114v-231h333z" />
    </font>
</defs>
</svg>
